G75*
%MOIN*%
%OFA0B0*%
%FSLAX25Y25*%
%IPPOS*%
%LPD*%
%AMOC8*
5,1,8,0,0,1.08239X$1,22.5*
%
%ADD10C,0.00000*%
%ADD11C,0.06600*%
%ADD12OC8,0.06600*%
%ADD13R,0.06600X0.06600*%
%ADD14C,0.05937*%
%ADD15R,0.16000X0.16000*%
%ADD16R,0.20000X0.20000*%
%ADD17R,0.03562X0.03562*%
%ADD18C,0.01000*%
%ADD19C,0.01600*%
D10*
X0001000Y0001000D02*
X0001000Y0278402D01*
X0060557Y0278402D01*
X0060557Y0258096D01*
X0153559Y0258096D01*
X0153559Y0187850D01*
X0222270Y0187850D01*
X0222270Y0217250D01*
X0249031Y0217250D01*
X0249031Y0001000D01*
X0001000Y0001000D01*
X0013598Y0021709D02*
X0013600Y0021821D01*
X0013606Y0021932D01*
X0013616Y0022044D01*
X0013630Y0022155D01*
X0013647Y0022265D01*
X0013669Y0022375D01*
X0013695Y0022484D01*
X0013724Y0022592D01*
X0013757Y0022698D01*
X0013794Y0022804D01*
X0013835Y0022908D01*
X0013880Y0023011D01*
X0013928Y0023112D01*
X0013979Y0023211D01*
X0014034Y0023308D01*
X0014093Y0023403D01*
X0014154Y0023497D01*
X0014219Y0023588D01*
X0014288Y0023676D01*
X0014359Y0023762D01*
X0014433Y0023846D01*
X0014511Y0023926D01*
X0014591Y0024004D01*
X0014674Y0024080D01*
X0014759Y0024152D01*
X0014847Y0024221D01*
X0014937Y0024287D01*
X0015030Y0024349D01*
X0015125Y0024409D01*
X0015222Y0024465D01*
X0015320Y0024517D01*
X0015421Y0024566D01*
X0015523Y0024611D01*
X0015627Y0024653D01*
X0015732Y0024691D01*
X0015839Y0024725D01*
X0015946Y0024755D01*
X0016055Y0024782D01*
X0016164Y0024804D01*
X0016275Y0024823D01*
X0016385Y0024838D01*
X0016497Y0024849D01*
X0016608Y0024856D01*
X0016720Y0024859D01*
X0016832Y0024858D01*
X0016944Y0024853D01*
X0017055Y0024844D01*
X0017166Y0024831D01*
X0017277Y0024814D01*
X0017387Y0024794D01*
X0017496Y0024769D01*
X0017604Y0024741D01*
X0017711Y0024708D01*
X0017817Y0024672D01*
X0017921Y0024632D01*
X0018024Y0024589D01*
X0018126Y0024542D01*
X0018225Y0024491D01*
X0018323Y0024437D01*
X0018419Y0024379D01*
X0018513Y0024318D01*
X0018604Y0024254D01*
X0018693Y0024187D01*
X0018780Y0024116D01*
X0018864Y0024042D01*
X0018946Y0023966D01*
X0019024Y0023886D01*
X0019100Y0023804D01*
X0019173Y0023719D01*
X0019243Y0023632D01*
X0019309Y0023542D01*
X0019373Y0023450D01*
X0019433Y0023356D01*
X0019490Y0023260D01*
X0019543Y0023161D01*
X0019593Y0023061D01*
X0019639Y0022960D01*
X0019682Y0022856D01*
X0019721Y0022751D01*
X0019756Y0022645D01*
X0019787Y0022538D01*
X0019815Y0022429D01*
X0019838Y0022320D01*
X0019858Y0022210D01*
X0019874Y0022099D01*
X0019886Y0021988D01*
X0019894Y0021877D01*
X0019898Y0021765D01*
X0019898Y0021653D01*
X0019894Y0021541D01*
X0019886Y0021430D01*
X0019874Y0021319D01*
X0019858Y0021208D01*
X0019838Y0021098D01*
X0019815Y0020989D01*
X0019787Y0020880D01*
X0019756Y0020773D01*
X0019721Y0020667D01*
X0019682Y0020562D01*
X0019639Y0020458D01*
X0019593Y0020357D01*
X0019543Y0020257D01*
X0019490Y0020158D01*
X0019433Y0020062D01*
X0019373Y0019968D01*
X0019309Y0019876D01*
X0019243Y0019786D01*
X0019173Y0019699D01*
X0019100Y0019614D01*
X0019024Y0019532D01*
X0018946Y0019452D01*
X0018864Y0019376D01*
X0018780Y0019302D01*
X0018693Y0019231D01*
X0018604Y0019164D01*
X0018513Y0019100D01*
X0018419Y0019039D01*
X0018323Y0018981D01*
X0018225Y0018927D01*
X0018126Y0018876D01*
X0018024Y0018829D01*
X0017921Y0018786D01*
X0017817Y0018746D01*
X0017711Y0018710D01*
X0017604Y0018677D01*
X0017496Y0018649D01*
X0017387Y0018624D01*
X0017277Y0018604D01*
X0017166Y0018587D01*
X0017055Y0018574D01*
X0016944Y0018565D01*
X0016832Y0018560D01*
X0016720Y0018559D01*
X0016608Y0018562D01*
X0016497Y0018569D01*
X0016385Y0018580D01*
X0016275Y0018595D01*
X0016164Y0018614D01*
X0016055Y0018636D01*
X0015946Y0018663D01*
X0015839Y0018693D01*
X0015732Y0018727D01*
X0015627Y0018765D01*
X0015523Y0018807D01*
X0015421Y0018852D01*
X0015320Y0018901D01*
X0015222Y0018953D01*
X0015125Y0019009D01*
X0015030Y0019069D01*
X0014937Y0019131D01*
X0014847Y0019197D01*
X0014759Y0019266D01*
X0014674Y0019338D01*
X0014591Y0019414D01*
X0014511Y0019492D01*
X0014433Y0019572D01*
X0014359Y0019656D01*
X0014288Y0019742D01*
X0014219Y0019830D01*
X0014154Y0019921D01*
X0014093Y0020015D01*
X0014034Y0020110D01*
X0013979Y0020207D01*
X0013928Y0020306D01*
X0013880Y0020407D01*
X0013835Y0020510D01*
X0013794Y0020614D01*
X0013757Y0020720D01*
X0013724Y0020826D01*
X0013695Y0020934D01*
X0013669Y0021043D01*
X0013647Y0021153D01*
X0013630Y0021263D01*
X0013616Y0021374D01*
X0013606Y0021486D01*
X0013600Y0021597D01*
X0013598Y0021709D01*
X0011236Y0207535D02*
X0011238Y0207683D01*
X0011244Y0207831D01*
X0011254Y0207979D01*
X0011268Y0208126D01*
X0011286Y0208273D01*
X0011307Y0208419D01*
X0011333Y0208565D01*
X0011363Y0208710D01*
X0011396Y0208854D01*
X0011434Y0208997D01*
X0011475Y0209139D01*
X0011520Y0209280D01*
X0011568Y0209420D01*
X0011621Y0209559D01*
X0011677Y0209696D01*
X0011737Y0209831D01*
X0011800Y0209965D01*
X0011867Y0210097D01*
X0011938Y0210227D01*
X0012012Y0210355D01*
X0012089Y0210481D01*
X0012170Y0210605D01*
X0012254Y0210727D01*
X0012341Y0210846D01*
X0012432Y0210963D01*
X0012526Y0211078D01*
X0012622Y0211190D01*
X0012722Y0211300D01*
X0012824Y0211406D01*
X0012930Y0211510D01*
X0013038Y0211611D01*
X0013149Y0211709D01*
X0013262Y0211805D01*
X0013378Y0211897D01*
X0013496Y0211986D01*
X0013617Y0212071D01*
X0013740Y0212154D01*
X0013865Y0212233D01*
X0013992Y0212309D01*
X0014121Y0212381D01*
X0014252Y0212450D01*
X0014385Y0212515D01*
X0014520Y0212576D01*
X0014656Y0212634D01*
X0014793Y0212689D01*
X0014932Y0212739D01*
X0015073Y0212786D01*
X0015214Y0212829D01*
X0015357Y0212869D01*
X0015501Y0212904D01*
X0015645Y0212936D01*
X0015791Y0212963D01*
X0015937Y0212987D01*
X0016084Y0213007D01*
X0016231Y0213023D01*
X0016378Y0213035D01*
X0016526Y0213043D01*
X0016674Y0213047D01*
X0016822Y0213047D01*
X0016970Y0213043D01*
X0017118Y0213035D01*
X0017265Y0213023D01*
X0017412Y0213007D01*
X0017559Y0212987D01*
X0017705Y0212963D01*
X0017851Y0212936D01*
X0017995Y0212904D01*
X0018139Y0212869D01*
X0018282Y0212829D01*
X0018423Y0212786D01*
X0018564Y0212739D01*
X0018703Y0212689D01*
X0018840Y0212634D01*
X0018976Y0212576D01*
X0019111Y0212515D01*
X0019244Y0212450D01*
X0019375Y0212381D01*
X0019504Y0212309D01*
X0019631Y0212233D01*
X0019756Y0212154D01*
X0019879Y0212071D01*
X0020000Y0211986D01*
X0020118Y0211897D01*
X0020234Y0211805D01*
X0020347Y0211709D01*
X0020458Y0211611D01*
X0020566Y0211510D01*
X0020672Y0211406D01*
X0020774Y0211300D01*
X0020874Y0211190D01*
X0020970Y0211078D01*
X0021064Y0210963D01*
X0021155Y0210846D01*
X0021242Y0210727D01*
X0021326Y0210605D01*
X0021407Y0210481D01*
X0021484Y0210355D01*
X0021558Y0210227D01*
X0021629Y0210097D01*
X0021696Y0209965D01*
X0021759Y0209831D01*
X0021819Y0209696D01*
X0021875Y0209559D01*
X0021928Y0209420D01*
X0021976Y0209280D01*
X0022021Y0209139D01*
X0022062Y0208997D01*
X0022100Y0208854D01*
X0022133Y0208710D01*
X0022163Y0208565D01*
X0022189Y0208419D01*
X0022210Y0208273D01*
X0022228Y0208126D01*
X0022242Y0207979D01*
X0022252Y0207831D01*
X0022258Y0207683D01*
X0022260Y0207535D01*
X0022258Y0207387D01*
X0022252Y0207239D01*
X0022242Y0207091D01*
X0022228Y0206944D01*
X0022210Y0206797D01*
X0022189Y0206651D01*
X0022163Y0206505D01*
X0022133Y0206360D01*
X0022100Y0206216D01*
X0022062Y0206073D01*
X0022021Y0205931D01*
X0021976Y0205790D01*
X0021928Y0205650D01*
X0021875Y0205511D01*
X0021819Y0205374D01*
X0021759Y0205239D01*
X0021696Y0205105D01*
X0021629Y0204973D01*
X0021558Y0204843D01*
X0021484Y0204715D01*
X0021407Y0204589D01*
X0021326Y0204465D01*
X0021242Y0204343D01*
X0021155Y0204224D01*
X0021064Y0204107D01*
X0020970Y0203992D01*
X0020874Y0203880D01*
X0020774Y0203770D01*
X0020672Y0203664D01*
X0020566Y0203560D01*
X0020458Y0203459D01*
X0020347Y0203361D01*
X0020234Y0203265D01*
X0020118Y0203173D01*
X0020000Y0203084D01*
X0019879Y0202999D01*
X0019756Y0202916D01*
X0019631Y0202837D01*
X0019504Y0202761D01*
X0019375Y0202689D01*
X0019244Y0202620D01*
X0019111Y0202555D01*
X0018976Y0202494D01*
X0018840Y0202436D01*
X0018703Y0202381D01*
X0018564Y0202331D01*
X0018423Y0202284D01*
X0018282Y0202241D01*
X0018139Y0202201D01*
X0017995Y0202166D01*
X0017851Y0202134D01*
X0017705Y0202107D01*
X0017559Y0202083D01*
X0017412Y0202063D01*
X0017265Y0202047D01*
X0017118Y0202035D01*
X0016970Y0202027D01*
X0016822Y0202023D01*
X0016674Y0202023D01*
X0016526Y0202027D01*
X0016378Y0202035D01*
X0016231Y0202047D01*
X0016084Y0202063D01*
X0015937Y0202083D01*
X0015791Y0202107D01*
X0015645Y0202134D01*
X0015501Y0202166D01*
X0015357Y0202201D01*
X0015214Y0202241D01*
X0015073Y0202284D01*
X0014932Y0202331D01*
X0014793Y0202381D01*
X0014656Y0202436D01*
X0014520Y0202494D01*
X0014385Y0202555D01*
X0014252Y0202620D01*
X0014121Y0202689D01*
X0013992Y0202761D01*
X0013865Y0202837D01*
X0013740Y0202916D01*
X0013617Y0202999D01*
X0013496Y0203084D01*
X0013378Y0203173D01*
X0013262Y0203265D01*
X0013149Y0203361D01*
X0013038Y0203459D01*
X0012930Y0203560D01*
X0012824Y0203664D01*
X0012722Y0203770D01*
X0012622Y0203880D01*
X0012526Y0203992D01*
X0012432Y0204107D01*
X0012341Y0204224D01*
X0012254Y0204343D01*
X0012170Y0204465D01*
X0012089Y0204589D01*
X0012012Y0204715D01*
X0011938Y0204843D01*
X0011867Y0204973D01*
X0011800Y0205105D01*
X0011737Y0205239D01*
X0011677Y0205374D01*
X0011621Y0205511D01*
X0011568Y0205650D01*
X0011520Y0205790D01*
X0011475Y0205931D01*
X0011434Y0206073D01*
X0011396Y0206216D01*
X0011363Y0206360D01*
X0011333Y0206505D01*
X0011307Y0206651D01*
X0011286Y0206797D01*
X0011268Y0206944D01*
X0011254Y0207091D01*
X0011244Y0207239D01*
X0011238Y0207387D01*
X0011236Y0207535D01*
X0029347Y0243283D02*
X0029349Y0243380D01*
X0029355Y0243477D01*
X0029365Y0243573D01*
X0029379Y0243669D01*
X0029397Y0243765D01*
X0029418Y0243859D01*
X0029444Y0243953D01*
X0029473Y0244045D01*
X0029507Y0244136D01*
X0029543Y0244226D01*
X0029584Y0244314D01*
X0029628Y0244400D01*
X0029676Y0244485D01*
X0029727Y0244567D01*
X0029781Y0244648D01*
X0029839Y0244726D01*
X0029900Y0244801D01*
X0029963Y0244874D01*
X0030030Y0244945D01*
X0030100Y0245012D01*
X0030172Y0245077D01*
X0030247Y0245138D01*
X0030325Y0245197D01*
X0030404Y0245252D01*
X0030486Y0245304D01*
X0030570Y0245352D01*
X0030656Y0245397D01*
X0030744Y0245439D01*
X0030833Y0245477D01*
X0030924Y0245511D01*
X0031016Y0245541D01*
X0031109Y0245568D01*
X0031204Y0245590D01*
X0031299Y0245609D01*
X0031395Y0245624D01*
X0031491Y0245635D01*
X0031588Y0245642D01*
X0031685Y0245645D01*
X0031782Y0245644D01*
X0031879Y0245639D01*
X0031975Y0245630D01*
X0032071Y0245617D01*
X0032167Y0245600D01*
X0032262Y0245579D01*
X0032355Y0245555D01*
X0032448Y0245526D01*
X0032540Y0245494D01*
X0032630Y0245458D01*
X0032718Y0245419D01*
X0032805Y0245375D01*
X0032890Y0245329D01*
X0032973Y0245278D01*
X0033054Y0245225D01*
X0033132Y0245168D01*
X0033209Y0245108D01*
X0033282Y0245045D01*
X0033353Y0244979D01*
X0033421Y0244910D01*
X0033487Y0244838D01*
X0033549Y0244764D01*
X0033608Y0244687D01*
X0033664Y0244608D01*
X0033717Y0244526D01*
X0033767Y0244443D01*
X0033812Y0244357D01*
X0033855Y0244270D01*
X0033894Y0244181D01*
X0033929Y0244091D01*
X0033960Y0243999D01*
X0033987Y0243906D01*
X0034011Y0243812D01*
X0034031Y0243717D01*
X0034047Y0243621D01*
X0034059Y0243525D01*
X0034067Y0243428D01*
X0034071Y0243331D01*
X0034071Y0243235D01*
X0034067Y0243138D01*
X0034059Y0243041D01*
X0034047Y0242945D01*
X0034031Y0242849D01*
X0034011Y0242754D01*
X0033987Y0242660D01*
X0033960Y0242567D01*
X0033929Y0242475D01*
X0033894Y0242385D01*
X0033855Y0242296D01*
X0033812Y0242209D01*
X0033767Y0242123D01*
X0033717Y0242040D01*
X0033664Y0241958D01*
X0033608Y0241879D01*
X0033549Y0241802D01*
X0033487Y0241728D01*
X0033421Y0241656D01*
X0033353Y0241587D01*
X0033282Y0241521D01*
X0033209Y0241458D01*
X0033132Y0241398D01*
X0033054Y0241341D01*
X0032973Y0241288D01*
X0032890Y0241237D01*
X0032805Y0241191D01*
X0032718Y0241147D01*
X0032630Y0241108D01*
X0032540Y0241072D01*
X0032448Y0241040D01*
X0032355Y0241011D01*
X0032262Y0240987D01*
X0032167Y0240966D01*
X0032071Y0240949D01*
X0031975Y0240936D01*
X0031879Y0240927D01*
X0031782Y0240922D01*
X0031685Y0240921D01*
X0031588Y0240924D01*
X0031491Y0240931D01*
X0031395Y0240942D01*
X0031299Y0240957D01*
X0031204Y0240976D01*
X0031109Y0240998D01*
X0031016Y0241025D01*
X0030924Y0241055D01*
X0030833Y0241089D01*
X0030744Y0241127D01*
X0030656Y0241169D01*
X0030570Y0241214D01*
X0030486Y0241262D01*
X0030404Y0241314D01*
X0030325Y0241369D01*
X0030247Y0241428D01*
X0030172Y0241489D01*
X0030100Y0241554D01*
X0030030Y0241621D01*
X0029963Y0241692D01*
X0029900Y0241765D01*
X0029839Y0241840D01*
X0029781Y0241918D01*
X0029727Y0241999D01*
X0029676Y0242081D01*
X0029628Y0242166D01*
X0029584Y0242252D01*
X0029543Y0242340D01*
X0029507Y0242430D01*
X0029473Y0242521D01*
X0029444Y0242613D01*
X0029418Y0242707D01*
X0029397Y0242801D01*
X0029379Y0242897D01*
X0029365Y0242993D01*
X0029355Y0243089D01*
X0029349Y0243186D01*
X0029347Y0243283D01*
X0029347Y0270685D02*
X0029349Y0270782D01*
X0029355Y0270879D01*
X0029365Y0270975D01*
X0029379Y0271071D01*
X0029397Y0271167D01*
X0029418Y0271261D01*
X0029444Y0271355D01*
X0029473Y0271447D01*
X0029507Y0271538D01*
X0029543Y0271628D01*
X0029584Y0271716D01*
X0029628Y0271802D01*
X0029676Y0271887D01*
X0029727Y0271969D01*
X0029781Y0272050D01*
X0029839Y0272128D01*
X0029900Y0272203D01*
X0029963Y0272276D01*
X0030030Y0272347D01*
X0030100Y0272414D01*
X0030172Y0272479D01*
X0030247Y0272540D01*
X0030325Y0272599D01*
X0030404Y0272654D01*
X0030486Y0272706D01*
X0030570Y0272754D01*
X0030656Y0272799D01*
X0030744Y0272841D01*
X0030833Y0272879D01*
X0030924Y0272913D01*
X0031016Y0272943D01*
X0031109Y0272970D01*
X0031204Y0272992D01*
X0031299Y0273011D01*
X0031395Y0273026D01*
X0031491Y0273037D01*
X0031588Y0273044D01*
X0031685Y0273047D01*
X0031782Y0273046D01*
X0031879Y0273041D01*
X0031975Y0273032D01*
X0032071Y0273019D01*
X0032167Y0273002D01*
X0032262Y0272981D01*
X0032355Y0272957D01*
X0032448Y0272928D01*
X0032540Y0272896D01*
X0032630Y0272860D01*
X0032718Y0272821D01*
X0032805Y0272777D01*
X0032890Y0272731D01*
X0032973Y0272680D01*
X0033054Y0272627D01*
X0033132Y0272570D01*
X0033209Y0272510D01*
X0033282Y0272447D01*
X0033353Y0272381D01*
X0033421Y0272312D01*
X0033487Y0272240D01*
X0033549Y0272166D01*
X0033608Y0272089D01*
X0033664Y0272010D01*
X0033717Y0271928D01*
X0033767Y0271845D01*
X0033812Y0271759D01*
X0033855Y0271672D01*
X0033894Y0271583D01*
X0033929Y0271493D01*
X0033960Y0271401D01*
X0033987Y0271308D01*
X0034011Y0271214D01*
X0034031Y0271119D01*
X0034047Y0271023D01*
X0034059Y0270927D01*
X0034067Y0270830D01*
X0034071Y0270733D01*
X0034071Y0270637D01*
X0034067Y0270540D01*
X0034059Y0270443D01*
X0034047Y0270347D01*
X0034031Y0270251D01*
X0034011Y0270156D01*
X0033987Y0270062D01*
X0033960Y0269969D01*
X0033929Y0269877D01*
X0033894Y0269787D01*
X0033855Y0269698D01*
X0033812Y0269611D01*
X0033767Y0269525D01*
X0033717Y0269442D01*
X0033664Y0269360D01*
X0033608Y0269281D01*
X0033549Y0269204D01*
X0033487Y0269130D01*
X0033421Y0269058D01*
X0033353Y0268989D01*
X0033282Y0268923D01*
X0033209Y0268860D01*
X0033132Y0268800D01*
X0033054Y0268743D01*
X0032973Y0268690D01*
X0032890Y0268639D01*
X0032805Y0268593D01*
X0032718Y0268549D01*
X0032630Y0268510D01*
X0032540Y0268474D01*
X0032448Y0268442D01*
X0032355Y0268413D01*
X0032262Y0268389D01*
X0032167Y0268368D01*
X0032071Y0268351D01*
X0031975Y0268338D01*
X0031879Y0268329D01*
X0031782Y0268324D01*
X0031685Y0268323D01*
X0031588Y0268326D01*
X0031491Y0268333D01*
X0031395Y0268344D01*
X0031299Y0268359D01*
X0031204Y0268378D01*
X0031109Y0268400D01*
X0031016Y0268427D01*
X0030924Y0268457D01*
X0030833Y0268491D01*
X0030744Y0268529D01*
X0030656Y0268571D01*
X0030570Y0268616D01*
X0030486Y0268664D01*
X0030404Y0268716D01*
X0030325Y0268771D01*
X0030247Y0268830D01*
X0030172Y0268891D01*
X0030100Y0268956D01*
X0030030Y0269023D01*
X0029963Y0269094D01*
X0029900Y0269167D01*
X0029839Y0269242D01*
X0029781Y0269320D01*
X0029727Y0269401D01*
X0029676Y0269483D01*
X0029628Y0269568D01*
X0029584Y0269654D01*
X0029543Y0269742D01*
X0029507Y0269832D01*
X0029473Y0269923D01*
X0029444Y0270015D01*
X0029418Y0270109D01*
X0029397Y0270203D01*
X0029379Y0270299D01*
X0029365Y0270395D01*
X0029355Y0270491D01*
X0029349Y0270588D01*
X0029347Y0270685D01*
X0226590Y0207535D02*
X0226592Y0207683D01*
X0226598Y0207831D01*
X0226608Y0207979D01*
X0226622Y0208126D01*
X0226640Y0208273D01*
X0226661Y0208419D01*
X0226687Y0208565D01*
X0226717Y0208710D01*
X0226750Y0208854D01*
X0226788Y0208997D01*
X0226829Y0209139D01*
X0226874Y0209280D01*
X0226922Y0209420D01*
X0226975Y0209559D01*
X0227031Y0209696D01*
X0227091Y0209831D01*
X0227154Y0209965D01*
X0227221Y0210097D01*
X0227292Y0210227D01*
X0227366Y0210355D01*
X0227443Y0210481D01*
X0227524Y0210605D01*
X0227608Y0210727D01*
X0227695Y0210846D01*
X0227786Y0210963D01*
X0227880Y0211078D01*
X0227976Y0211190D01*
X0228076Y0211300D01*
X0228178Y0211406D01*
X0228284Y0211510D01*
X0228392Y0211611D01*
X0228503Y0211709D01*
X0228616Y0211805D01*
X0228732Y0211897D01*
X0228850Y0211986D01*
X0228971Y0212071D01*
X0229094Y0212154D01*
X0229219Y0212233D01*
X0229346Y0212309D01*
X0229475Y0212381D01*
X0229606Y0212450D01*
X0229739Y0212515D01*
X0229874Y0212576D01*
X0230010Y0212634D01*
X0230147Y0212689D01*
X0230286Y0212739D01*
X0230427Y0212786D01*
X0230568Y0212829D01*
X0230711Y0212869D01*
X0230855Y0212904D01*
X0230999Y0212936D01*
X0231145Y0212963D01*
X0231291Y0212987D01*
X0231438Y0213007D01*
X0231585Y0213023D01*
X0231732Y0213035D01*
X0231880Y0213043D01*
X0232028Y0213047D01*
X0232176Y0213047D01*
X0232324Y0213043D01*
X0232472Y0213035D01*
X0232619Y0213023D01*
X0232766Y0213007D01*
X0232913Y0212987D01*
X0233059Y0212963D01*
X0233205Y0212936D01*
X0233349Y0212904D01*
X0233493Y0212869D01*
X0233636Y0212829D01*
X0233777Y0212786D01*
X0233918Y0212739D01*
X0234057Y0212689D01*
X0234194Y0212634D01*
X0234330Y0212576D01*
X0234465Y0212515D01*
X0234598Y0212450D01*
X0234729Y0212381D01*
X0234858Y0212309D01*
X0234985Y0212233D01*
X0235110Y0212154D01*
X0235233Y0212071D01*
X0235354Y0211986D01*
X0235472Y0211897D01*
X0235588Y0211805D01*
X0235701Y0211709D01*
X0235812Y0211611D01*
X0235920Y0211510D01*
X0236026Y0211406D01*
X0236128Y0211300D01*
X0236228Y0211190D01*
X0236324Y0211078D01*
X0236418Y0210963D01*
X0236509Y0210846D01*
X0236596Y0210727D01*
X0236680Y0210605D01*
X0236761Y0210481D01*
X0236838Y0210355D01*
X0236912Y0210227D01*
X0236983Y0210097D01*
X0237050Y0209965D01*
X0237113Y0209831D01*
X0237173Y0209696D01*
X0237229Y0209559D01*
X0237282Y0209420D01*
X0237330Y0209280D01*
X0237375Y0209139D01*
X0237416Y0208997D01*
X0237454Y0208854D01*
X0237487Y0208710D01*
X0237517Y0208565D01*
X0237543Y0208419D01*
X0237564Y0208273D01*
X0237582Y0208126D01*
X0237596Y0207979D01*
X0237606Y0207831D01*
X0237612Y0207683D01*
X0237614Y0207535D01*
X0237612Y0207387D01*
X0237606Y0207239D01*
X0237596Y0207091D01*
X0237582Y0206944D01*
X0237564Y0206797D01*
X0237543Y0206651D01*
X0237517Y0206505D01*
X0237487Y0206360D01*
X0237454Y0206216D01*
X0237416Y0206073D01*
X0237375Y0205931D01*
X0237330Y0205790D01*
X0237282Y0205650D01*
X0237229Y0205511D01*
X0237173Y0205374D01*
X0237113Y0205239D01*
X0237050Y0205105D01*
X0236983Y0204973D01*
X0236912Y0204843D01*
X0236838Y0204715D01*
X0236761Y0204589D01*
X0236680Y0204465D01*
X0236596Y0204343D01*
X0236509Y0204224D01*
X0236418Y0204107D01*
X0236324Y0203992D01*
X0236228Y0203880D01*
X0236128Y0203770D01*
X0236026Y0203664D01*
X0235920Y0203560D01*
X0235812Y0203459D01*
X0235701Y0203361D01*
X0235588Y0203265D01*
X0235472Y0203173D01*
X0235354Y0203084D01*
X0235233Y0202999D01*
X0235110Y0202916D01*
X0234985Y0202837D01*
X0234858Y0202761D01*
X0234729Y0202689D01*
X0234598Y0202620D01*
X0234465Y0202555D01*
X0234330Y0202494D01*
X0234194Y0202436D01*
X0234057Y0202381D01*
X0233918Y0202331D01*
X0233777Y0202284D01*
X0233636Y0202241D01*
X0233493Y0202201D01*
X0233349Y0202166D01*
X0233205Y0202134D01*
X0233059Y0202107D01*
X0232913Y0202083D01*
X0232766Y0202063D01*
X0232619Y0202047D01*
X0232472Y0202035D01*
X0232324Y0202027D01*
X0232176Y0202023D01*
X0232028Y0202023D01*
X0231880Y0202027D01*
X0231732Y0202035D01*
X0231585Y0202047D01*
X0231438Y0202063D01*
X0231291Y0202083D01*
X0231145Y0202107D01*
X0230999Y0202134D01*
X0230855Y0202166D01*
X0230711Y0202201D01*
X0230568Y0202241D01*
X0230427Y0202284D01*
X0230286Y0202331D01*
X0230147Y0202381D01*
X0230010Y0202436D01*
X0229874Y0202494D01*
X0229739Y0202555D01*
X0229606Y0202620D01*
X0229475Y0202689D01*
X0229346Y0202761D01*
X0229219Y0202837D01*
X0229094Y0202916D01*
X0228971Y0202999D01*
X0228850Y0203084D01*
X0228732Y0203173D01*
X0228616Y0203265D01*
X0228503Y0203361D01*
X0228392Y0203459D01*
X0228284Y0203560D01*
X0228178Y0203664D01*
X0228076Y0203770D01*
X0227976Y0203880D01*
X0227880Y0203992D01*
X0227786Y0204107D01*
X0227695Y0204224D01*
X0227608Y0204343D01*
X0227524Y0204465D01*
X0227443Y0204589D01*
X0227366Y0204715D01*
X0227292Y0204843D01*
X0227221Y0204973D01*
X0227154Y0205105D01*
X0227091Y0205239D01*
X0227031Y0205374D01*
X0226975Y0205511D01*
X0226922Y0205650D01*
X0226874Y0205790D01*
X0226829Y0205931D01*
X0226788Y0206073D01*
X0226750Y0206216D01*
X0226717Y0206360D01*
X0226687Y0206505D01*
X0226661Y0206651D01*
X0226640Y0206797D01*
X0226622Y0206944D01*
X0226608Y0207091D01*
X0226598Y0207239D01*
X0226592Y0207387D01*
X0226590Y0207535D01*
X0230133Y0021709D02*
X0230135Y0021821D01*
X0230141Y0021932D01*
X0230151Y0022044D01*
X0230165Y0022155D01*
X0230182Y0022265D01*
X0230204Y0022375D01*
X0230230Y0022484D01*
X0230259Y0022592D01*
X0230292Y0022698D01*
X0230329Y0022804D01*
X0230370Y0022908D01*
X0230415Y0023011D01*
X0230463Y0023112D01*
X0230514Y0023211D01*
X0230569Y0023308D01*
X0230628Y0023403D01*
X0230689Y0023497D01*
X0230754Y0023588D01*
X0230823Y0023676D01*
X0230894Y0023762D01*
X0230968Y0023846D01*
X0231046Y0023926D01*
X0231126Y0024004D01*
X0231209Y0024080D01*
X0231294Y0024152D01*
X0231382Y0024221D01*
X0231472Y0024287D01*
X0231565Y0024349D01*
X0231660Y0024409D01*
X0231757Y0024465D01*
X0231855Y0024517D01*
X0231956Y0024566D01*
X0232058Y0024611D01*
X0232162Y0024653D01*
X0232267Y0024691D01*
X0232374Y0024725D01*
X0232481Y0024755D01*
X0232590Y0024782D01*
X0232699Y0024804D01*
X0232810Y0024823D01*
X0232920Y0024838D01*
X0233032Y0024849D01*
X0233143Y0024856D01*
X0233255Y0024859D01*
X0233367Y0024858D01*
X0233479Y0024853D01*
X0233590Y0024844D01*
X0233701Y0024831D01*
X0233812Y0024814D01*
X0233922Y0024794D01*
X0234031Y0024769D01*
X0234139Y0024741D01*
X0234246Y0024708D01*
X0234352Y0024672D01*
X0234456Y0024632D01*
X0234559Y0024589D01*
X0234661Y0024542D01*
X0234760Y0024491D01*
X0234858Y0024437D01*
X0234954Y0024379D01*
X0235048Y0024318D01*
X0235139Y0024254D01*
X0235228Y0024187D01*
X0235315Y0024116D01*
X0235399Y0024042D01*
X0235481Y0023966D01*
X0235559Y0023886D01*
X0235635Y0023804D01*
X0235708Y0023719D01*
X0235778Y0023632D01*
X0235844Y0023542D01*
X0235908Y0023450D01*
X0235968Y0023356D01*
X0236025Y0023260D01*
X0236078Y0023161D01*
X0236128Y0023061D01*
X0236174Y0022960D01*
X0236217Y0022856D01*
X0236256Y0022751D01*
X0236291Y0022645D01*
X0236322Y0022538D01*
X0236350Y0022429D01*
X0236373Y0022320D01*
X0236393Y0022210D01*
X0236409Y0022099D01*
X0236421Y0021988D01*
X0236429Y0021877D01*
X0236433Y0021765D01*
X0236433Y0021653D01*
X0236429Y0021541D01*
X0236421Y0021430D01*
X0236409Y0021319D01*
X0236393Y0021208D01*
X0236373Y0021098D01*
X0236350Y0020989D01*
X0236322Y0020880D01*
X0236291Y0020773D01*
X0236256Y0020667D01*
X0236217Y0020562D01*
X0236174Y0020458D01*
X0236128Y0020357D01*
X0236078Y0020257D01*
X0236025Y0020158D01*
X0235968Y0020062D01*
X0235908Y0019968D01*
X0235844Y0019876D01*
X0235778Y0019786D01*
X0235708Y0019699D01*
X0235635Y0019614D01*
X0235559Y0019532D01*
X0235481Y0019452D01*
X0235399Y0019376D01*
X0235315Y0019302D01*
X0235228Y0019231D01*
X0235139Y0019164D01*
X0235048Y0019100D01*
X0234954Y0019039D01*
X0234858Y0018981D01*
X0234760Y0018927D01*
X0234661Y0018876D01*
X0234559Y0018829D01*
X0234456Y0018786D01*
X0234352Y0018746D01*
X0234246Y0018710D01*
X0234139Y0018677D01*
X0234031Y0018649D01*
X0233922Y0018624D01*
X0233812Y0018604D01*
X0233701Y0018587D01*
X0233590Y0018574D01*
X0233479Y0018565D01*
X0233367Y0018560D01*
X0233255Y0018559D01*
X0233143Y0018562D01*
X0233032Y0018569D01*
X0232920Y0018580D01*
X0232810Y0018595D01*
X0232699Y0018614D01*
X0232590Y0018636D01*
X0232481Y0018663D01*
X0232374Y0018693D01*
X0232267Y0018727D01*
X0232162Y0018765D01*
X0232058Y0018807D01*
X0231956Y0018852D01*
X0231855Y0018901D01*
X0231757Y0018953D01*
X0231660Y0019009D01*
X0231565Y0019069D01*
X0231472Y0019131D01*
X0231382Y0019197D01*
X0231294Y0019266D01*
X0231209Y0019338D01*
X0231126Y0019414D01*
X0231046Y0019492D01*
X0230968Y0019572D01*
X0230894Y0019656D01*
X0230823Y0019742D01*
X0230754Y0019830D01*
X0230689Y0019921D01*
X0230628Y0020015D01*
X0230569Y0020110D01*
X0230514Y0020207D01*
X0230463Y0020306D01*
X0230415Y0020407D01*
X0230370Y0020510D01*
X0230329Y0020614D01*
X0230292Y0020720D01*
X0230259Y0020826D01*
X0230230Y0020934D01*
X0230204Y0021043D01*
X0230182Y0021153D01*
X0230165Y0021263D01*
X0230151Y0021374D01*
X0230141Y0021486D01*
X0230135Y0021597D01*
X0230133Y0021709D01*
D11*
X0227535Y0059602D03*
X0208500Y0164937D03*
X0198500Y0164937D03*
X0188500Y0164937D03*
X0178500Y0164937D03*
X0178500Y0174937D03*
X0188500Y0174937D03*
X0198500Y0174937D03*
X0208500Y0174937D03*
X0138500Y0238500D03*
X0138500Y0248500D03*
X0128500Y0248500D03*
X0128500Y0238500D03*
X0118500Y0238500D03*
X0118500Y0248500D03*
X0072250Y0028500D03*
X0072250Y0018500D03*
X0062250Y0018500D03*
X0062250Y0028500D03*
X0052250Y0028500D03*
X0052250Y0018500D03*
X0042250Y0018500D03*
X0042250Y0028500D03*
X0082250Y0018500D03*
D12*
X0227535Y0074602D03*
D13*
X0082250Y0028500D03*
D14*
X0176000Y0060906D02*
X0176000Y0066843D01*
X0186000Y0066843D02*
X0186000Y0060906D01*
X0196000Y0060906D02*
X0196000Y0066843D01*
X0206000Y0066843D02*
X0206000Y0060906D01*
X0043126Y0230472D02*
X0043126Y0236409D01*
X0020291Y0236409D02*
X0020291Y0230472D01*
X0019110Y0263150D02*
X0019110Y0269087D01*
X0044307Y0269087D02*
X0044307Y0263150D01*
D15*
X0040370Y0156354D03*
D16*
X0040370Y0106354D03*
X0040370Y0206354D03*
D17*
X0071866Y0209504D03*
X0077772Y0203598D03*
X0079125Y0197781D03*
X0084125Y0194125D03*
X0083677Y0213441D03*
X0088500Y0229504D03*
X0074750Y0248431D03*
X0118500Y0224750D03*
X0136418Y0213500D03*
X0128500Y0124125D03*
X0167875Y0119125D03*
X0183500Y0112250D03*
X0188500Y0102250D03*
X0188500Y0092875D03*
X0175375Y0084750D03*
X0161625Y0060375D03*
X0152250Y0061000D03*
X0152250Y0073500D03*
X0208500Y0117875D03*
X0082280Y0116000D03*
X0077186Y0107875D03*
X0072811Y0078500D03*
X0066625Y0077250D03*
X0061625Y0073500D03*
D18*
X0061625Y0081000D01*
X0066561Y0086000D01*
X0069125Y0088564D01*
X0069125Y0118500D01*
X0079125Y0128500D01*
X0087875Y0128500D01*
X0090375Y0131000D01*
X0090375Y0187875D01*
X0079031Y0187875D01*
X0079125Y0197781D01*
X0073644Y0197692D02*
X0063000Y0197692D01*
X0063000Y0198690D02*
X0073644Y0198690D01*
X0073644Y0198931D02*
X0073644Y0195264D01*
X0074207Y0193905D01*
X0074882Y0193230D01*
X0074839Y0188729D01*
X0074831Y0188710D01*
X0074831Y0187895D01*
X0074824Y0187079D01*
X0074831Y0187060D01*
X0074831Y0187040D01*
X0075144Y0186286D01*
X0075449Y0185530D01*
X0075463Y0185515D01*
X0075471Y0185496D01*
X0076048Y0184919D01*
X0076619Y0184337D01*
X0076638Y0184329D01*
X0076652Y0184314D01*
X0077406Y0184002D01*
X0078156Y0183683D01*
X0078177Y0183683D01*
X0078196Y0183675D01*
X0079011Y0183675D01*
X0079827Y0183667D01*
X0079846Y0183675D01*
X0086175Y0183675D01*
X0086175Y0132740D01*
X0086135Y0132700D01*
X0080997Y0132700D01*
X0081297Y0132980D01*
X0081358Y0133006D01*
X0081868Y0133516D01*
X0082395Y0134010D01*
X0082422Y0134070D01*
X0082469Y0134117D01*
X0082745Y0134784D01*
X0083043Y0135442D01*
X0083045Y0135508D01*
X0083070Y0135569D01*
X0083070Y0136291D01*
X0083093Y0137012D01*
X0083070Y0137074D01*
X0083070Y0174381D01*
X0083092Y0174439D01*
X0083070Y0175164D01*
X0083070Y0175890D01*
X0083046Y0175947D01*
X0083044Y0176009D01*
X0082746Y0176671D01*
X0082469Y0177342D01*
X0082425Y0177386D01*
X0082399Y0177442D01*
X0081871Y0177940D01*
X0081358Y0178453D01*
X0081300Y0178477D01*
X0063000Y0195700D01*
X0063000Y0234336D01*
X0062315Y0235990D01*
X0061049Y0237256D01*
X0059395Y0237941D01*
X0049710Y0237941D01*
X0048779Y0240187D01*
X0046903Y0242063D01*
X0044452Y0243078D01*
X0041800Y0243078D01*
X0039349Y0242063D01*
X0037473Y0240187D01*
X0036457Y0237736D01*
X0036457Y0229146D01*
X0037473Y0226695D01*
X0039349Y0224819D01*
X0041800Y0223804D01*
X0044452Y0223804D01*
X0046903Y0224819D01*
X0048779Y0226695D01*
X0049710Y0228941D01*
X0054000Y0228941D01*
X0054000Y0217259D01*
X0053507Y0218450D01*
X0052466Y0219491D01*
X0051106Y0220054D01*
X0029634Y0220054D01*
X0028274Y0219491D01*
X0027233Y0218450D01*
X0026670Y0217090D01*
X0026670Y0199054D01*
X0020344Y0199054D01*
X0021966Y0199726D01*
X0024557Y0202317D01*
X0025960Y0205703D01*
X0025960Y0209368D01*
X0024557Y0212753D01*
X0021966Y0215345D01*
X0018580Y0216747D01*
X0014916Y0216747D01*
X0011530Y0215345D01*
X0008939Y0212753D01*
X0007536Y0209368D01*
X0007536Y0205703D01*
X0008939Y0202317D01*
X0011530Y0199726D01*
X0013152Y0199054D01*
X0004700Y0199054D01*
X0004700Y0274702D01*
X0015295Y0274702D01*
X0013457Y0272864D01*
X0012442Y0270413D01*
X0012442Y0261823D01*
X0013457Y0259372D01*
X0015333Y0257496D01*
X0017784Y0256481D01*
X0020437Y0256481D01*
X0022888Y0257496D01*
X0024764Y0259372D01*
X0025779Y0261823D01*
X0025779Y0269160D01*
X0026569Y0267251D01*
X0028275Y0265546D01*
X0030503Y0264623D01*
X0032915Y0264623D01*
X0035143Y0265546D01*
X0036848Y0267251D01*
X0037639Y0269160D01*
X0037639Y0261823D01*
X0038654Y0259372D01*
X0040530Y0257496D01*
X0042981Y0256481D01*
X0045634Y0256481D01*
X0048084Y0257496D01*
X0049960Y0259372D01*
X0050976Y0261823D01*
X0050976Y0270413D01*
X0049960Y0272864D01*
X0048123Y0274702D01*
X0056857Y0274702D01*
X0056857Y0257360D01*
X0057420Y0256001D01*
X0058461Y0254960D01*
X0059821Y0254396D01*
X0092250Y0254396D01*
X0092250Y0252631D01*
X0079345Y0252631D01*
X0078627Y0253349D01*
X0077267Y0253912D01*
X0072233Y0253912D01*
X0070873Y0253349D01*
X0069832Y0252308D01*
X0069269Y0250948D01*
X0069269Y0245914D01*
X0069832Y0244554D01*
X0070873Y0243513D01*
X0072233Y0242950D01*
X0077267Y0242950D01*
X0078627Y0243513D01*
X0079345Y0244231D01*
X0092250Y0244231D01*
X0092250Y0234474D01*
X0091017Y0234985D01*
X0085983Y0234985D01*
X0084623Y0234422D01*
X0083582Y0233381D01*
X0083019Y0232021D01*
X0083019Y0226987D01*
X0083582Y0225627D01*
X0084623Y0224586D01*
X0085983Y0224023D01*
X0091017Y0224023D01*
X0092250Y0224534D01*
X0092250Y0217655D01*
X0088253Y0217660D01*
X0087554Y0218359D01*
X0086194Y0218922D01*
X0081160Y0218922D01*
X0079800Y0218359D01*
X0078759Y0217318D01*
X0078196Y0215958D01*
X0078196Y0213704D01*
X0076461Y0213704D01*
X0075743Y0214422D01*
X0074383Y0214985D01*
X0069349Y0214985D01*
X0067989Y0214422D01*
X0066948Y0213381D01*
X0066385Y0212021D01*
X0066385Y0206987D01*
X0066948Y0205627D01*
X0067989Y0204586D01*
X0069349Y0204023D01*
X0072291Y0204023D01*
X0072291Y0201081D01*
X0072854Y0199721D01*
X0073644Y0198931D01*
X0072886Y0199689D02*
X0063000Y0199689D01*
X0063000Y0200687D02*
X0072454Y0200687D01*
X0072291Y0201686D02*
X0063000Y0201686D01*
X0063000Y0202684D02*
X0072291Y0202684D01*
X0072291Y0203683D02*
X0063000Y0203683D01*
X0063000Y0204681D02*
X0067894Y0204681D01*
X0066926Y0205680D02*
X0063000Y0205680D01*
X0063000Y0206678D02*
X0066513Y0206678D01*
X0066385Y0207677D02*
X0063000Y0207677D01*
X0063000Y0208675D02*
X0066385Y0208675D01*
X0066385Y0209674D02*
X0063000Y0209674D01*
X0063000Y0210672D02*
X0066385Y0210672D01*
X0066385Y0211671D02*
X0063000Y0211671D01*
X0063000Y0212670D02*
X0066654Y0212670D01*
X0067235Y0213668D02*
X0063000Y0213668D01*
X0063000Y0214667D02*
X0068580Y0214667D01*
X0063000Y0215665D02*
X0078196Y0215665D01*
X0078196Y0214667D02*
X0075152Y0214667D01*
X0078488Y0216664D02*
X0063000Y0216664D01*
X0063000Y0217662D02*
X0079103Y0217662D01*
X0080529Y0218661D02*
X0063000Y0218661D01*
X0063000Y0219659D02*
X0092250Y0219659D01*
X0092250Y0218661D02*
X0086825Y0218661D01*
X0088251Y0217662D02*
X0092250Y0217662D01*
X0092250Y0220658D02*
X0063000Y0220658D01*
X0063000Y0221656D02*
X0092250Y0221656D01*
X0092250Y0222655D02*
X0063000Y0222655D01*
X0063000Y0223653D02*
X0092250Y0223653D01*
X0088500Y0229504D02*
X0107299Y0229189D01*
X0107299Y0209819D01*
X0122309Y0209819D01*
X0122309Y0066000D01*
X0152250Y0066000D01*
X0152250Y0061000D01*
X0146769Y0060896D02*
X0044870Y0060896D01*
X0044870Y0061894D02*
X0121246Y0061894D01*
X0121474Y0061800D02*
X0146769Y0061800D01*
X0146769Y0058483D01*
X0147093Y0057700D01*
X0113915Y0057700D01*
X0112371Y0057061D01*
X0111189Y0055879D01*
X0110550Y0054335D01*
X0110550Y0027700D01*
X0089250Y0027700D01*
X0089250Y0032536D01*
X0088687Y0033896D01*
X0087646Y0034937D01*
X0086286Y0035500D01*
X0078214Y0035500D01*
X0076854Y0034937D01*
X0076283Y0034366D01*
X0076215Y0034434D01*
X0073642Y0035500D01*
X0070858Y0035500D01*
X0068285Y0034434D01*
X0067250Y0033399D01*
X0066215Y0034434D01*
X0063642Y0035500D01*
X0060858Y0035500D01*
X0058285Y0034434D01*
X0057250Y0033399D01*
X0056215Y0034434D01*
X0053642Y0035500D01*
X0050858Y0035500D01*
X0048285Y0034434D01*
X0047250Y0033399D01*
X0046215Y0034434D01*
X0043642Y0035500D01*
X0040858Y0035500D01*
X0038285Y0034434D01*
X0036750Y0032899D01*
X0036750Y0040250D01*
X0041265Y0040250D01*
X0042919Y0040935D01*
X0044185Y0042201D01*
X0044870Y0043855D01*
X0044870Y0092654D01*
X0051106Y0092654D01*
X0052466Y0093218D01*
X0053507Y0094258D01*
X0054070Y0095618D01*
X0054070Y0113654D01*
X0059056Y0113654D01*
X0059778Y0113631D01*
X0059840Y0113654D01*
X0059906Y0113654D01*
X0060573Y0113931D01*
X0061248Y0114185D01*
X0061297Y0114230D01*
X0061358Y0114256D01*
X0061868Y0114766D01*
X0064925Y0117632D01*
X0064925Y0090304D01*
X0064172Y0089551D01*
X0064159Y0089545D01*
X0063581Y0088960D01*
X0063000Y0088379D01*
X0062995Y0088366D01*
X0058645Y0083960D01*
X0058064Y0083379D01*
X0058059Y0083366D01*
X0058049Y0083356D01*
X0057740Y0082595D01*
X0057425Y0081835D01*
X0057425Y0081821D01*
X0057420Y0081808D01*
X0057425Y0080986D01*
X0057425Y0078095D01*
X0056707Y0077377D01*
X0056144Y0076017D01*
X0056144Y0070983D01*
X0056707Y0069623D01*
X0057748Y0068582D01*
X0059108Y0068019D01*
X0064142Y0068019D01*
X0065502Y0068582D01*
X0066543Y0069623D01*
X0067106Y0070983D01*
X0067106Y0071769D01*
X0069142Y0071769D01*
X0070502Y0072332D01*
X0071189Y0073019D01*
X0075328Y0073019D01*
X0076688Y0073582D01*
X0077729Y0074623D01*
X0078292Y0075983D01*
X0078292Y0081017D01*
X0077729Y0082377D01*
X0077075Y0083031D01*
X0077075Y0102394D01*
X0079703Y0102394D01*
X0081063Y0102957D01*
X0082104Y0103998D01*
X0082667Y0105358D01*
X0082667Y0110392D01*
X0082615Y0110519D01*
X0084797Y0110519D01*
X0086157Y0111082D01*
X0087197Y0112123D01*
X0087532Y0112932D01*
X0118109Y0112932D01*
X0118109Y0066835D01*
X0118109Y0065165D01*
X0118748Y0063621D01*
X0119930Y0062439D01*
X0121474Y0061800D01*
X0119477Y0062893D02*
X0044870Y0062893D01*
X0044870Y0063891D02*
X0118636Y0063891D01*
X0118223Y0064890D02*
X0044870Y0064890D01*
X0044870Y0065888D02*
X0118109Y0065888D01*
X0118109Y0066887D02*
X0044870Y0066887D01*
X0044870Y0067885D02*
X0118109Y0067885D01*
X0118109Y0068884D02*
X0065804Y0068884D01*
X0066650Y0069882D02*
X0118109Y0069882D01*
X0118109Y0070881D02*
X0067064Y0070881D01*
X0069409Y0071879D02*
X0118109Y0071879D01*
X0118109Y0072878D02*
X0071048Y0072878D01*
X0072811Y0078500D02*
X0072875Y0078564D01*
X0072875Y0115375D01*
X0080375Y0123500D01*
X0096000Y0123500D01*
X0096463Y0123963D01*
X0096561Y0123963D01*
X0096561Y0203598D01*
X0077772Y0203598D01*
X0073644Y0196693D02*
X0063000Y0196693D01*
X0063006Y0195695D02*
X0073644Y0195695D01*
X0073879Y0194696D02*
X0064067Y0194696D01*
X0065128Y0193698D02*
X0074414Y0193698D01*
X0074877Y0192699D02*
X0066189Y0192699D01*
X0067250Y0191701D02*
X0074867Y0191701D01*
X0074858Y0190702D02*
X0068311Y0190702D01*
X0069372Y0189704D02*
X0074849Y0189704D01*
X0074831Y0188705D02*
X0070432Y0188705D01*
X0071493Y0187707D02*
X0074830Y0187707D01*
X0074969Y0186708D02*
X0072554Y0186708D01*
X0073615Y0185710D02*
X0075376Y0185710D01*
X0074676Y0184711D02*
X0076252Y0184711D01*
X0075737Y0183713D02*
X0078087Y0183713D01*
X0076798Y0182714D02*
X0086175Y0182714D01*
X0086175Y0181716D02*
X0077859Y0181716D01*
X0078920Y0180717D02*
X0086175Y0180717D01*
X0086175Y0179719D02*
X0079981Y0179719D01*
X0081042Y0178720D02*
X0086175Y0178720D01*
X0086175Y0177722D02*
X0082103Y0177722D01*
X0082725Y0176723D02*
X0086175Y0176723D01*
X0086175Y0175725D02*
X0083070Y0175725D01*
X0083083Y0174726D02*
X0086175Y0174726D01*
X0086175Y0173728D02*
X0083070Y0173728D01*
X0083070Y0172729D02*
X0086175Y0172729D01*
X0086175Y0171731D02*
X0083070Y0171731D01*
X0083070Y0170732D02*
X0086175Y0170732D01*
X0086175Y0169734D02*
X0083070Y0169734D01*
X0083070Y0168735D02*
X0086175Y0168735D01*
X0086175Y0167737D02*
X0083070Y0167737D01*
X0083070Y0166738D02*
X0086175Y0166738D01*
X0086175Y0165739D02*
X0083070Y0165739D01*
X0083070Y0164741D02*
X0086175Y0164741D01*
X0086175Y0163742D02*
X0083070Y0163742D01*
X0083070Y0162744D02*
X0086175Y0162744D01*
X0086175Y0161745D02*
X0083070Y0161745D01*
X0083070Y0160747D02*
X0086175Y0160747D01*
X0086175Y0159748D02*
X0083070Y0159748D01*
X0083070Y0158750D02*
X0086175Y0158750D01*
X0086175Y0157751D02*
X0083070Y0157751D01*
X0083070Y0156753D02*
X0086175Y0156753D01*
X0086175Y0155754D02*
X0083070Y0155754D01*
X0083070Y0154756D02*
X0086175Y0154756D01*
X0086175Y0153757D02*
X0083070Y0153757D01*
X0083070Y0152759D02*
X0086175Y0152759D01*
X0086175Y0151760D02*
X0083070Y0151760D01*
X0083070Y0150762D02*
X0086175Y0150762D01*
X0086175Y0149763D02*
X0083070Y0149763D01*
X0083070Y0148765D02*
X0086175Y0148765D01*
X0086175Y0147766D02*
X0083070Y0147766D01*
X0083070Y0146768D02*
X0086175Y0146768D01*
X0086175Y0145769D02*
X0083070Y0145769D01*
X0083070Y0144771D02*
X0086175Y0144771D01*
X0086175Y0143772D02*
X0083070Y0143772D01*
X0083070Y0142774D02*
X0086175Y0142774D01*
X0086175Y0141775D02*
X0083070Y0141775D01*
X0083070Y0140777D02*
X0086175Y0140777D01*
X0086175Y0139778D02*
X0083070Y0139778D01*
X0083070Y0138780D02*
X0086175Y0138780D01*
X0086175Y0137781D02*
X0083070Y0137781D01*
X0083086Y0136783D02*
X0086175Y0136783D01*
X0086175Y0135784D02*
X0083070Y0135784D01*
X0082746Y0134786D02*
X0086175Y0134786D01*
X0086175Y0133787D02*
X0082157Y0133787D01*
X0081092Y0132789D02*
X0086175Y0132789D01*
X0089750Y0126000D02*
X0079750Y0126000D01*
X0071000Y0117250D01*
X0071000Y0085439D01*
X0069061Y0083500D01*
X0066625Y0081000D01*
X0066625Y0077250D01*
X0059534Y0084860D02*
X0044870Y0084860D01*
X0044870Y0083862D02*
X0058547Y0083862D01*
X0057849Y0082863D02*
X0044870Y0082863D01*
X0044870Y0081865D02*
X0057437Y0081865D01*
X0057425Y0080866D02*
X0044870Y0080866D01*
X0044870Y0079868D02*
X0057425Y0079868D01*
X0057425Y0078869D02*
X0044870Y0078869D01*
X0044870Y0077870D02*
X0057201Y0077870D01*
X0056498Y0076872D02*
X0044870Y0076872D01*
X0044870Y0075873D02*
X0056144Y0075873D01*
X0056144Y0074875D02*
X0044870Y0074875D01*
X0044870Y0073876D02*
X0056144Y0073876D01*
X0056144Y0072878D02*
X0044870Y0072878D01*
X0044870Y0071879D02*
X0056144Y0071879D01*
X0056186Y0070881D02*
X0044870Y0070881D01*
X0044870Y0069882D02*
X0056600Y0069882D01*
X0057446Y0068884D02*
X0044870Y0068884D01*
X0044870Y0059897D02*
X0146769Y0059897D01*
X0146769Y0058899D02*
X0044870Y0058899D01*
X0044870Y0057900D02*
X0147010Y0057900D01*
X0157250Y0053500D02*
X0114750Y0053500D01*
X0114750Y0023500D01*
X0067250Y0023500D01*
X0062250Y0018500D01*
X0057250Y0023399D02*
X0057149Y0023500D01*
X0057250Y0023601D01*
X0057351Y0023500D01*
X0057250Y0023399D01*
X0056713Y0033936D02*
X0057787Y0033936D01*
X0059492Y0034934D02*
X0055008Y0034934D01*
X0049492Y0034934D02*
X0045008Y0034934D01*
X0046713Y0033936D02*
X0047787Y0033936D01*
X0042896Y0040926D02*
X0110550Y0040926D01*
X0110550Y0041924D02*
X0043908Y0041924D01*
X0044484Y0042923D02*
X0110550Y0042923D01*
X0110550Y0043921D02*
X0044870Y0043921D01*
X0044870Y0044920D02*
X0110550Y0044920D01*
X0110550Y0045918D02*
X0044870Y0045918D01*
X0044870Y0046917D02*
X0110550Y0046917D01*
X0110550Y0047915D02*
X0044870Y0047915D01*
X0044870Y0048914D02*
X0110550Y0048914D01*
X0110550Y0049912D02*
X0044870Y0049912D01*
X0044870Y0050911D02*
X0110550Y0050911D01*
X0110550Y0051909D02*
X0044870Y0051909D01*
X0044870Y0052908D02*
X0110550Y0052908D01*
X0110550Y0053906D02*
X0044870Y0053906D01*
X0044870Y0054905D02*
X0110786Y0054905D01*
X0111214Y0055903D02*
X0044870Y0055903D01*
X0044870Y0056902D02*
X0112212Y0056902D01*
X0118950Y0049300D02*
X0158085Y0049300D01*
X0159629Y0049939D01*
X0160811Y0051121D01*
X0161450Y0052665D01*
X0161450Y0054894D01*
X0164142Y0054894D01*
X0165502Y0055457D01*
X0166543Y0056498D01*
X0167106Y0057858D01*
X0167106Y0062892D01*
X0166543Y0064252D01*
X0165825Y0064970D01*
X0165825Y0113644D01*
X0170392Y0113644D01*
X0171752Y0114207D01*
X0172470Y0114925D01*
X0178084Y0114925D01*
X0178019Y0114767D01*
X0178019Y0109733D01*
X0178582Y0108373D01*
X0179300Y0107655D01*
X0179300Y0089620D01*
X0179252Y0089668D01*
X0177892Y0090231D01*
X0172858Y0090231D01*
X0171498Y0089668D01*
X0170457Y0088627D01*
X0169894Y0087267D01*
X0169894Y0082233D01*
X0170457Y0080873D01*
X0171498Y0079832D01*
X0172858Y0079269D01*
X0177892Y0079269D01*
X0179252Y0079832D01*
X0179970Y0080550D01*
X0184335Y0080550D01*
X0185879Y0081189D01*
X0187061Y0082371D01*
X0187700Y0083915D01*
X0187700Y0087394D01*
X0191017Y0087394D01*
X0192377Y0087957D01*
X0193418Y0088998D01*
X0193981Y0090358D01*
X0193981Y0095392D01*
X0193418Y0096752D01*
X0192700Y0097470D01*
X0192700Y0097655D01*
X0193418Y0098373D01*
X0193981Y0099733D01*
X0193981Y0104767D01*
X0193418Y0106127D01*
X0192377Y0107168D01*
X0191017Y0107731D01*
X0187776Y0107731D01*
X0188418Y0108373D01*
X0188981Y0109733D01*
X0188981Y0114767D01*
X0188916Y0114925D01*
X0203198Y0114925D01*
X0203582Y0113998D01*
X0204623Y0112957D01*
X0205983Y0112394D01*
X0211017Y0112394D01*
X0212377Y0112957D01*
X0213418Y0113998D01*
X0213981Y0115358D01*
X0213981Y0120392D01*
X0213418Y0121752D01*
X0212377Y0122793D01*
X0211017Y0123356D01*
X0205983Y0123356D01*
X0205908Y0123325D01*
X0172470Y0123325D01*
X0171752Y0124043D01*
X0170392Y0124606D01*
X0165825Y0124606D01*
X0165825Y0182574D01*
X0165186Y0184117D01*
X0165152Y0184150D01*
X0223006Y0184150D01*
X0224366Y0184714D01*
X0224589Y0184937D01*
X0245331Y0184937D01*
X0245331Y0004700D01*
X0004700Y0004700D01*
X0004700Y0113654D01*
X0026670Y0113654D01*
X0026670Y0095618D01*
X0027233Y0094258D01*
X0028274Y0093218D01*
X0029634Y0092654D01*
X0035870Y0092654D01*
X0035870Y0049250D01*
X0031355Y0049250D01*
X0029701Y0048565D01*
X0028435Y0047299D01*
X0027750Y0045645D01*
X0027750Y0010105D01*
X0028435Y0008451D01*
X0029701Y0007185D01*
X0031355Y0006500D01*
X0216895Y0006500D01*
X0218549Y0007185D01*
X0219815Y0008451D01*
X0220500Y0010105D01*
X0220500Y0055250D01*
X0221988Y0055250D01*
X0223570Y0053668D01*
X0226143Y0052602D01*
X0228928Y0052602D01*
X0231501Y0053668D01*
X0233470Y0055637D01*
X0234535Y0058210D01*
X0234535Y0060995D01*
X0233470Y0063568D01*
X0231501Y0065537D01*
X0228928Y0066602D01*
X0226143Y0066602D01*
X0223570Y0065537D01*
X0222284Y0064250D01*
X0215105Y0064250D01*
X0213451Y0063565D01*
X0212668Y0062782D01*
X0212668Y0068169D01*
X0211653Y0070620D01*
X0209777Y0072496D01*
X0207326Y0073511D01*
X0204674Y0073511D01*
X0202223Y0072496D01*
X0201000Y0071273D01*
X0199777Y0072496D01*
X0197326Y0073511D01*
X0194674Y0073511D01*
X0192223Y0072496D01*
X0191000Y0071273D01*
X0189777Y0072496D01*
X0187326Y0073511D01*
X0184674Y0073511D01*
X0182223Y0072496D01*
X0181000Y0071273D01*
X0179777Y0072496D01*
X0177326Y0073511D01*
X0174674Y0073511D01*
X0172223Y0072496D01*
X0170347Y0070620D01*
X0169331Y0068169D01*
X0169331Y0059579D01*
X0170347Y0057128D01*
X0172223Y0055252D01*
X0174674Y0054237D01*
X0177326Y0054237D01*
X0179777Y0055252D01*
X0181000Y0056475D01*
X0182223Y0055252D01*
X0184674Y0054237D01*
X0187326Y0054237D01*
X0189777Y0055252D01*
X0191000Y0056475D01*
X0192223Y0055252D01*
X0194674Y0054237D01*
X0197326Y0054237D01*
X0199777Y0055252D01*
X0201000Y0056475D01*
X0202223Y0055252D01*
X0204674Y0054237D01*
X0207326Y0054237D01*
X0209777Y0055252D01*
X0211500Y0056975D01*
X0211500Y0015500D01*
X0088584Y0015500D01*
X0089250Y0017108D01*
X0089250Y0019300D01*
X0115585Y0019300D01*
X0117129Y0019939D01*
X0118311Y0021121D01*
X0118950Y0022665D01*
X0118950Y0049300D01*
X0118950Y0048914D02*
X0211500Y0048914D01*
X0211500Y0049912D02*
X0159563Y0049912D01*
X0160600Y0050911D02*
X0211500Y0050911D01*
X0211500Y0051909D02*
X0161137Y0051909D01*
X0161450Y0052908D02*
X0211500Y0052908D01*
X0211500Y0053906D02*
X0161450Y0053906D01*
X0164168Y0054905D02*
X0173062Y0054905D01*
X0171572Y0055903D02*
X0165948Y0055903D01*
X0166710Y0056902D02*
X0170573Y0056902D01*
X0170027Y0057900D02*
X0167106Y0057900D01*
X0167106Y0058899D02*
X0169613Y0058899D01*
X0169331Y0059897D02*
X0167106Y0059897D01*
X0167106Y0060896D02*
X0169331Y0060896D01*
X0169331Y0061894D02*
X0167106Y0061894D01*
X0167106Y0062893D02*
X0169331Y0062893D01*
X0169331Y0063891D02*
X0166692Y0063891D01*
X0165905Y0064890D02*
X0169331Y0064890D01*
X0169331Y0065888D02*
X0165825Y0065888D01*
X0165825Y0066887D02*
X0169331Y0066887D01*
X0169331Y0067885D02*
X0165825Y0067885D01*
X0165825Y0068884D02*
X0169628Y0068884D01*
X0170041Y0069882D02*
X0165825Y0069882D01*
X0165825Y0070881D02*
X0170608Y0070881D01*
X0171606Y0071879D02*
X0165825Y0071879D01*
X0165825Y0072878D02*
X0173145Y0072878D01*
X0178855Y0072878D02*
X0183145Y0072878D01*
X0181606Y0071879D02*
X0180394Y0071879D01*
X0179287Y0079868D02*
X0222901Y0079868D01*
X0223900Y0080866D02*
X0185098Y0080866D01*
X0186554Y0081865D02*
X0245331Y0081865D01*
X0245331Y0082863D02*
X0187264Y0082863D01*
X0187678Y0083862D02*
X0245331Y0083862D01*
X0245331Y0084860D02*
X0187700Y0084860D01*
X0187700Y0085859D02*
X0245331Y0085859D01*
X0245331Y0086857D02*
X0187700Y0086857D01*
X0192132Y0087856D02*
X0245331Y0087856D01*
X0245331Y0088854D02*
X0193274Y0088854D01*
X0193772Y0089853D02*
X0245331Y0089853D01*
X0245331Y0090851D02*
X0193981Y0090851D01*
X0193981Y0091850D02*
X0245331Y0091850D01*
X0245331Y0092848D02*
X0193981Y0092848D01*
X0193981Y0093847D02*
X0245331Y0093847D01*
X0245331Y0094845D02*
X0193981Y0094845D01*
X0193794Y0095844D02*
X0245331Y0095844D01*
X0245331Y0096842D02*
X0193328Y0096842D01*
X0192885Y0097841D02*
X0245331Y0097841D01*
X0245331Y0098839D02*
X0193611Y0098839D01*
X0193981Y0099838D02*
X0245331Y0099838D01*
X0245331Y0100836D02*
X0193981Y0100836D01*
X0193981Y0101835D02*
X0245331Y0101835D01*
X0245331Y0102833D02*
X0193981Y0102833D01*
X0193981Y0103832D02*
X0245331Y0103832D01*
X0245331Y0104830D02*
X0193955Y0104830D01*
X0193541Y0105829D02*
X0245331Y0105829D01*
X0245331Y0106827D02*
X0192717Y0106827D01*
X0188605Y0108824D02*
X0245331Y0108824D01*
X0245331Y0107826D02*
X0187871Y0107826D01*
X0188981Y0109823D02*
X0245331Y0109823D01*
X0245331Y0110821D02*
X0188981Y0110821D01*
X0188981Y0111820D02*
X0245331Y0111820D01*
X0245331Y0112818D02*
X0212042Y0112818D01*
X0213237Y0113817D02*
X0245331Y0113817D01*
X0245331Y0114815D02*
X0213756Y0114815D01*
X0213981Y0115814D02*
X0245331Y0115814D01*
X0245331Y0116812D02*
X0213981Y0116812D01*
X0213981Y0117811D02*
X0245331Y0117811D01*
X0245331Y0118809D02*
X0213981Y0118809D01*
X0213981Y0119808D02*
X0245331Y0119808D01*
X0245331Y0120806D02*
X0213809Y0120806D01*
X0213365Y0121805D02*
X0245331Y0121805D01*
X0245331Y0122803D02*
X0212351Y0122803D01*
X0208500Y0119125D02*
X0167875Y0119125D01*
X0171993Y0123802D02*
X0245331Y0123802D01*
X0245331Y0124801D02*
X0165825Y0124801D01*
X0165825Y0125799D02*
X0245331Y0125799D01*
X0245331Y0126798D02*
X0165825Y0126798D01*
X0165825Y0127796D02*
X0245331Y0127796D01*
X0245331Y0128795D02*
X0165825Y0128795D01*
X0165825Y0129793D02*
X0245331Y0129793D01*
X0245331Y0130792D02*
X0165825Y0130792D01*
X0165825Y0131790D02*
X0245331Y0131790D01*
X0245331Y0132789D02*
X0165825Y0132789D01*
X0165825Y0133787D02*
X0245331Y0133787D01*
X0245331Y0134786D02*
X0165825Y0134786D01*
X0165825Y0135784D02*
X0245331Y0135784D01*
X0245331Y0136783D02*
X0165825Y0136783D01*
X0165825Y0137781D02*
X0245331Y0137781D01*
X0245331Y0138780D02*
X0165825Y0138780D01*
X0165825Y0139778D02*
X0245331Y0139778D01*
X0245331Y0140777D02*
X0165825Y0140777D01*
X0165825Y0141775D02*
X0245331Y0141775D01*
X0245331Y0142774D02*
X0165825Y0142774D01*
X0165825Y0143772D02*
X0245331Y0143772D01*
X0245331Y0144771D02*
X0165825Y0144771D01*
X0165825Y0145769D02*
X0245331Y0145769D01*
X0245331Y0146768D02*
X0165825Y0146768D01*
X0165825Y0147766D02*
X0245331Y0147766D01*
X0245331Y0148765D02*
X0165825Y0148765D01*
X0165825Y0149763D02*
X0245331Y0149763D01*
X0245331Y0150762D02*
X0165825Y0150762D01*
X0165825Y0151760D02*
X0245331Y0151760D01*
X0245331Y0152759D02*
X0165825Y0152759D01*
X0165825Y0153757D02*
X0245331Y0153757D01*
X0245331Y0154756D02*
X0165825Y0154756D01*
X0165825Y0155754D02*
X0245331Y0155754D01*
X0245331Y0156753D02*
X0165825Y0156753D01*
X0165825Y0157751D02*
X0245331Y0157751D01*
X0245331Y0158750D02*
X0211855Y0158750D01*
X0212465Y0159003D02*
X0214434Y0160972D01*
X0215500Y0163545D01*
X0215500Y0166329D01*
X0214434Y0168902D01*
X0213399Y0169937D01*
X0214434Y0170972D01*
X0215500Y0173545D01*
X0215500Y0176329D01*
X0214434Y0178902D01*
X0212465Y0180871D01*
X0209892Y0181937D01*
X0207108Y0181937D01*
X0204535Y0180871D01*
X0203500Y0179836D01*
X0202465Y0180871D01*
X0199892Y0181937D01*
X0197108Y0181937D01*
X0194535Y0180871D01*
X0193500Y0179836D01*
X0192465Y0180871D01*
X0189892Y0181937D01*
X0187108Y0181937D01*
X0184535Y0180871D01*
X0183500Y0179836D01*
X0182465Y0180871D01*
X0179892Y0181937D01*
X0177108Y0181937D01*
X0174535Y0180871D01*
X0172566Y0178902D01*
X0171500Y0176329D01*
X0171500Y0173545D01*
X0172566Y0170972D01*
X0173601Y0169937D01*
X0172566Y0168902D01*
X0171500Y0166329D01*
X0171500Y0163545D01*
X0172566Y0160972D01*
X0174535Y0159003D01*
X0177108Y0157937D01*
X0179892Y0157937D01*
X0182465Y0159003D01*
X0183500Y0160038D01*
X0184535Y0159003D01*
X0187108Y0157937D01*
X0189892Y0157937D01*
X0192465Y0159003D01*
X0193500Y0160038D01*
X0194535Y0159003D01*
X0197108Y0157937D01*
X0199892Y0157937D01*
X0202465Y0159003D01*
X0203500Y0160038D01*
X0204535Y0159003D01*
X0207108Y0157937D01*
X0209892Y0157937D01*
X0212465Y0159003D01*
X0213211Y0159748D02*
X0245331Y0159748D01*
X0245331Y0160747D02*
X0214209Y0160747D01*
X0214755Y0161745D02*
X0245331Y0161745D01*
X0245331Y0162744D02*
X0215168Y0162744D01*
X0215500Y0163742D02*
X0245331Y0163742D01*
X0245331Y0164741D02*
X0215500Y0164741D01*
X0215500Y0165739D02*
X0245331Y0165739D01*
X0245331Y0166738D02*
X0215331Y0166738D01*
X0214917Y0167737D02*
X0245331Y0167737D01*
X0245331Y0168735D02*
X0214504Y0168735D01*
X0213603Y0169734D02*
X0245331Y0169734D01*
X0245331Y0170732D02*
X0214195Y0170732D01*
X0214749Y0171731D02*
X0245331Y0171731D01*
X0245331Y0172729D02*
X0215162Y0172729D01*
X0215500Y0173728D02*
X0245331Y0173728D01*
X0245331Y0174726D02*
X0215500Y0174726D01*
X0215500Y0175725D02*
X0245331Y0175725D01*
X0245331Y0176723D02*
X0215337Y0176723D01*
X0214923Y0177722D02*
X0245331Y0177722D01*
X0245331Y0178720D02*
X0214510Y0178720D01*
X0213618Y0179719D02*
X0245331Y0179719D01*
X0245331Y0180717D02*
X0212619Y0180717D01*
X0210427Y0181716D02*
X0245331Y0181716D01*
X0245331Y0182714D02*
X0165767Y0182714D01*
X0165825Y0181716D02*
X0176573Y0181716D01*
X0174381Y0180717D02*
X0165825Y0180717D01*
X0165825Y0179719D02*
X0173382Y0179719D01*
X0172490Y0178720D02*
X0165825Y0178720D01*
X0165825Y0177722D02*
X0172077Y0177722D01*
X0171663Y0176723D02*
X0165825Y0176723D01*
X0165825Y0175725D02*
X0171500Y0175725D01*
X0171500Y0174726D02*
X0165825Y0174726D01*
X0165825Y0173728D02*
X0171500Y0173728D01*
X0171838Y0172729D02*
X0165825Y0172729D01*
X0165825Y0171731D02*
X0172251Y0171731D01*
X0172805Y0170732D02*
X0165825Y0170732D01*
X0165825Y0169734D02*
X0173397Y0169734D01*
X0172496Y0168735D02*
X0165825Y0168735D01*
X0165825Y0167737D02*
X0172083Y0167737D01*
X0171669Y0166738D02*
X0165825Y0166738D01*
X0165825Y0165739D02*
X0171500Y0165739D01*
X0171500Y0164741D02*
X0165825Y0164741D01*
X0165825Y0163742D02*
X0171500Y0163742D01*
X0171832Y0162744D02*
X0165825Y0162744D01*
X0165825Y0161745D02*
X0172245Y0161745D01*
X0172791Y0160747D02*
X0165825Y0160747D01*
X0165825Y0159748D02*
X0173789Y0159748D01*
X0175145Y0158750D02*
X0165825Y0158750D01*
X0157425Y0158750D02*
X0132646Y0158750D01*
X0132644Y0159748D02*
X0157425Y0159748D01*
X0157425Y0160747D02*
X0132643Y0160747D01*
X0132641Y0161745D02*
X0157425Y0161745D01*
X0157425Y0162744D02*
X0132639Y0162744D01*
X0132638Y0163742D02*
X0157425Y0163742D01*
X0157425Y0164741D02*
X0132636Y0164741D01*
X0132635Y0165739D02*
X0157425Y0165739D01*
X0157425Y0166738D02*
X0132633Y0166738D01*
X0132632Y0167737D02*
X0157425Y0167737D01*
X0157425Y0168735D02*
X0132630Y0168735D01*
X0132628Y0169734D02*
X0157425Y0169734D01*
X0157425Y0170732D02*
X0132627Y0170732D01*
X0132625Y0171731D02*
X0157425Y0171731D01*
X0157425Y0172729D02*
X0132624Y0172729D01*
X0132622Y0173728D02*
X0157425Y0173728D01*
X0157425Y0174726D02*
X0132621Y0174726D01*
X0132619Y0175725D02*
X0157425Y0175725D01*
X0157425Y0176723D02*
X0132617Y0176723D01*
X0132616Y0177722D02*
X0135140Y0177722D01*
X0135583Y0177538D02*
X0157425Y0177538D01*
X0157425Y0082700D01*
X0132700Y0082700D01*
X0132700Y0119530D01*
X0133418Y0120248D01*
X0133981Y0121608D01*
X0133981Y0126642D01*
X0133418Y0128002D01*
X0132693Y0128727D01*
X0132612Y0179951D01*
X0132858Y0179359D01*
X0134039Y0178178D01*
X0135583Y0177538D01*
X0133497Y0178720D02*
X0132614Y0178720D01*
X0132613Y0179719D02*
X0132709Y0179719D01*
X0136418Y0181738D02*
X0161625Y0181738D01*
X0161625Y0060375D01*
X0157250Y0053500D02*
X0157250Y0078500D01*
X0128500Y0078500D01*
X0128500Y0124125D01*
X0128343Y0224519D01*
X0118500Y0224750D01*
X0125016Y0219346D02*
X0111236Y0219346D01*
X0111236Y0237063D01*
X0111030Y0248431D01*
X0097250Y0248500D01*
X0092250Y0243623D02*
X0078737Y0243623D01*
X0074750Y0248431D02*
X0111030Y0248431D01*
X0092250Y0253608D02*
X0078000Y0253608D01*
X0071500Y0253608D02*
X0004700Y0253608D01*
X0004700Y0252610D02*
X0070134Y0252610D01*
X0069544Y0251611D02*
X0004700Y0251611D01*
X0004700Y0250613D02*
X0069269Y0250613D01*
X0069269Y0249614D02*
X0004700Y0249614D01*
X0004700Y0248616D02*
X0028741Y0248616D01*
X0028275Y0248423D02*
X0026569Y0246717D01*
X0025646Y0244489D01*
X0025646Y0242078D01*
X0026569Y0239849D01*
X0028275Y0238144D01*
X0030503Y0237221D01*
X0032915Y0237221D01*
X0035143Y0238144D01*
X0036848Y0239849D01*
X0037771Y0242078D01*
X0037771Y0244489D01*
X0036848Y0246717D01*
X0035143Y0248423D01*
X0032915Y0249346D01*
X0030503Y0249346D01*
X0028275Y0248423D01*
X0027469Y0247617D02*
X0004700Y0247617D01*
X0004700Y0246619D02*
X0026529Y0246619D01*
X0026115Y0245620D02*
X0004700Y0245620D01*
X0004700Y0244622D02*
X0025701Y0244622D01*
X0025646Y0243623D02*
X0004700Y0243623D01*
X0004700Y0242625D02*
X0017871Y0242625D01*
X0018965Y0243078D02*
X0016514Y0242063D01*
X0014638Y0240187D01*
X0013623Y0237736D01*
X0013623Y0229146D01*
X0014638Y0226695D01*
X0016514Y0224819D01*
X0018965Y0223804D01*
X0021618Y0223804D01*
X0024069Y0224819D01*
X0025945Y0226695D01*
X0026960Y0229146D01*
X0026960Y0237736D01*
X0025945Y0240187D01*
X0024069Y0242063D01*
X0021618Y0243078D01*
X0018965Y0243078D01*
X0016078Y0241626D02*
X0004700Y0241626D01*
X0004700Y0240628D02*
X0015079Y0240628D01*
X0014407Y0239629D02*
X0004700Y0239629D01*
X0004700Y0238631D02*
X0013994Y0238631D01*
X0013623Y0237632D02*
X0004700Y0237632D01*
X0004700Y0236634D02*
X0013623Y0236634D01*
X0013623Y0235635D02*
X0004700Y0235635D01*
X0004700Y0234637D02*
X0013623Y0234637D01*
X0013623Y0233638D02*
X0004700Y0233638D01*
X0004700Y0232640D02*
X0013623Y0232640D01*
X0013623Y0231641D02*
X0004700Y0231641D01*
X0004700Y0230643D02*
X0013623Y0230643D01*
X0013623Y0229644D02*
X0004700Y0229644D01*
X0004700Y0228646D02*
X0013830Y0228646D01*
X0014244Y0227647D02*
X0004700Y0227647D01*
X0004700Y0226649D02*
X0014684Y0226649D01*
X0015683Y0225650D02*
X0004700Y0225650D01*
X0004700Y0224652D02*
X0016918Y0224652D01*
X0023664Y0224652D02*
X0039753Y0224652D01*
X0038518Y0225650D02*
X0024900Y0225650D01*
X0025898Y0226649D02*
X0037519Y0226649D01*
X0037078Y0227647D02*
X0026339Y0227647D01*
X0026753Y0228646D02*
X0036665Y0228646D01*
X0036457Y0229644D02*
X0026960Y0229644D01*
X0026960Y0230643D02*
X0036457Y0230643D01*
X0036457Y0231641D02*
X0026960Y0231641D01*
X0026960Y0232640D02*
X0036457Y0232640D01*
X0036457Y0233638D02*
X0026960Y0233638D01*
X0026960Y0234637D02*
X0036457Y0234637D01*
X0036457Y0235635D02*
X0026960Y0235635D01*
X0026960Y0236634D02*
X0036457Y0236634D01*
X0036457Y0237632D02*
X0033907Y0237632D01*
X0035629Y0238631D02*
X0036828Y0238631D01*
X0036628Y0239629D02*
X0037242Y0239629D01*
X0037170Y0240628D02*
X0037914Y0240628D01*
X0037584Y0241626D02*
X0038912Y0241626D01*
X0037771Y0242625D02*
X0040706Y0242625D01*
X0037771Y0243623D02*
X0070763Y0243623D01*
X0069804Y0244622D02*
X0037716Y0244622D01*
X0037302Y0245620D02*
X0069391Y0245620D01*
X0069269Y0246619D02*
X0036889Y0246619D01*
X0035948Y0247617D02*
X0069269Y0247617D01*
X0069269Y0248616D02*
X0034676Y0248616D01*
X0040423Y0257603D02*
X0022994Y0257603D01*
X0023992Y0258601D02*
X0039425Y0258601D01*
X0038560Y0259600D02*
X0024858Y0259600D01*
X0025271Y0260598D02*
X0038146Y0260598D01*
X0037732Y0261597D02*
X0025685Y0261597D01*
X0025779Y0262595D02*
X0037639Y0262595D01*
X0037639Y0263594D02*
X0025779Y0263594D01*
X0025779Y0264592D02*
X0037639Y0264592D01*
X0037639Y0265591D02*
X0035187Y0265591D01*
X0036186Y0266589D02*
X0037639Y0266589D01*
X0037639Y0267588D02*
X0036987Y0267588D01*
X0037401Y0268586D02*
X0037639Y0268586D01*
X0037771Y0270732D02*
X0037771Y0271891D01*
X0036848Y0274119D01*
X0036265Y0274702D01*
X0040491Y0274702D01*
X0038654Y0272864D01*
X0037771Y0270732D01*
X0037771Y0271582D02*
X0038123Y0271582D01*
X0038536Y0272580D02*
X0037485Y0272580D01*
X0037072Y0273579D02*
X0039369Y0273579D01*
X0040367Y0274577D02*
X0036390Y0274577D01*
X0028230Y0265591D02*
X0025779Y0265591D01*
X0025779Y0266589D02*
X0027231Y0266589D01*
X0026430Y0267588D02*
X0025779Y0267588D01*
X0025779Y0268586D02*
X0026016Y0268586D01*
X0025646Y0270732D02*
X0024764Y0272864D01*
X0022926Y0274702D01*
X0027152Y0274702D01*
X0026569Y0274119D01*
X0025646Y0271891D01*
X0025646Y0270732D01*
X0025646Y0271582D02*
X0025295Y0271582D01*
X0024881Y0272580D02*
X0025932Y0272580D01*
X0026346Y0273579D02*
X0024049Y0273579D01*
X0023050Y0274577D02*
X0027028Y0274577D01*
X0015170Y0274577D02*
X0004700Y0274577D01*
X0004700Y0273579D02*
X0014172Y0273579D01*
X0013339Y0272580D02*
X0004700Y0272580D01*
X0004700Y0271582D02*
X0012926Y0271582D01*
X0012512Y0270583D02*
X0004700Y0270583D01*
X0004700Y0269585D02*
X0012442Y0269585D01*
X0012442Y0268586D02*
X0004700Y0268586D01*
X0004700Y0267588D02*
X0012442Y0267588D01*
X0012442Y0266589D02*
X0004700Y0266589D01*
X0004700Y0265591D02*
X0012442Y0265591D01*
X0012442Y0264592D02*
X0004700Y0264592D01*
X0004700Y0263594D02*
X0012442Y0263594D01*
X0012442Y0262595D02*
X0004700Y0262595D01*
X0004700Y0261597D02*
X0012536Y0261597D01*
X0012949Y0260598D02*
X0004700Y0260598D01*
X0004700Y0259600D02*
X0013363Y0259600D01*
X0014228Y0258601D02*
X0004700Y0258601D01*
X0004700Y0257603D02*
X0015227Y0257603D01*
X0017487Y0256604D02*
X0004700Y0256604D01*
X0004700Y0255605D02*
X0057815Y0255605D01*
X0057170Y0256604D02*
X0045930Y0256604D01*
X0048191Y0257603D02*
X0056857Y0257603D01*
X0056857Y0258601D02*
X0049189Y0258601D01*
X0050055Y0259600D02*
X0056857Y0259600D01*
X0056857Y0260598D02*
X0050468Y0260598D01*
X0050882Y0261597D02*
X0056857Y0261597D01*
X0056857Y0262595D02*
X0050976Y0262595D01*
X0050976Y0263594D02*
X0056857Y0263594D01*
X0056857Y0264592D02*
X0050976Y0264592D01*
X0050976Y0265591D02*
X0056857Y0265591D01*
X0056857Y0266589D02*
X0050976Y0266589D01*
X0050976Y0267588D02*
X0056857Y0267588D01*
X0056857Y0268586D02*
X0050976Y0268586D01*
X0050976Y0269585D02*
X0056857Y0269585D01*
X0056857Y0270583D02*
X0050905Y0270583D01*
X0050492Y0271582D02*
X0056857Y0271582D01*
X0056857Y0272580D02*
X0050078Y0272580D01*
X0049246Y0273579D02*
X0056857Y0273579D01*
X0056857Y0274577D02*
X0048247Y0274577D01*
X0042684Y0256604D02*
X0020733Y0256604D01*
X0022712Y0242625D02*
X0025646Y0242625D01*
X0025833Y0241626D02*
X0024505Y0241626D01*
X0025504Y0240628D02*
X0026247Y0240628D01*
X0026176Y0239629D02*
X0026790Y0239629D01*
X0026589Y0238631D02*
X0027788Y0238631D01*
X0026960Y0237632D02*
X0029510Y0237632D01*
X0045546Y0242625D02*
X0092250Y0242625D01*
X0092250Y0241626D02*
X0047340Y0241626D01*
X0048338Y0240628D02*
X0092250Y0240628D01*
X0092250Y0239629D02*
X0049010Y0239629D01*
X0049424Y0238631D02*
X0092250Y0238631D01*
X0092250Y0237632D02*
X0060140Y0237632D01*
X0061671Y0236634D02*
X0092250Y0236634D01*
X0092250Y0235635D02*
X0062462Y0235635D01*
X0062875Y0234637D02*
X0085142Y0234637D01*
X0083840Y0233638D02*
X0063000Y0233638D01*
X0063000Y0232640D02*
X0083275Y0232640D01*
X0083019Y0231641D02*
X0063000Y0231641D01*
X0063000Y0230643D02*
X0083019Y0230643D01*
X0083019Y0229644D02*
X0063000Y0229644D01*
X0063000Y0228646D02*
X0083019Y0228646D01*
X0083019Y0227647D02*
X0063000Y0227647D01*
X0063000Y0226649D02*
X0083159Y0226649D01*
X0083573Y0225650D02*
X0063000Y0225650D01*
X0063000Y0224652D02*
X0084557Y0224652D01*
X0083677Y0213466D02*
X0103362Y0213441D01*
X0103362Y0203623D01*
X0118559Y0203623D01*
X0118559Y0117132D01*
X0082280Y0117132D01*
X0082280Y0116000D01*
X0080990Y0120921D02*
X0099100Y0120921D01*
X0099686Y0121507D01*
X0099686Y0209504D01*
X0071866Y0209504D01*
X0083677Y0213441D02*
X0083677Y0213466D01*
X0087143Y0199398D02*
X0092250Y0199398D01*
X0092250Y0198325D01*
X0088720Y0198325D01*
X0088002Y0199043D01*
X0087143Y0199398D01*
X0088354Y0198690D02*
X0092250Y0198690D01*
X0093500Y0194125D02*
X0084125Y0194125D01*
X0093500Y0194125D02*
X0093500Y0130375D01*
X0089750Y0126000D01*
X0080990Y0120921D02*
X0077186Y0116492D01*
X0077186Y0107875D01*
X0077075Y0101835D02*
X0118109Y0101835D01*
X0118109Y0102833D02*
X0080764Y0102833D01*
X0081938Y0103832D02*
X0118109Y0103832D01*
X0118109Y0104830D02*
X0082449Y0104830D01*
X0082667Y0105829D02*
X0118109Y0105829D01*
X0118109Y0106827D02*
X0082667Y0106827D01*
X0082667Y0107826D02*
X0118109Y0107826D01*
X0118109Y0108824D02*
X0082667Y0108824D01*
X0082667Y0109823D02*
X0118109Y0109823D01*
X0118109Y0110821D02*
X0085527Y0110821D01*
X0086894Y0111820D02*
X0118109Y0111820D01*
X0118109Y0112818D02*
X0087485Y0112818D01*
X0077075Y0100836D02*
X0118109Y0100836D01*
X0118109Y0099838D02*
X0077075Y0099838D01*
X0077075Y0098839D02*
X0118109Y0098839D01*
X0118109Y0097841D02*
X0077075Y0097841D01*
X0077075Y0096842D02*
X0118109Y0096842D01*
X0118109Y0095844D02*
X0077075Y0095844D01*
X0077075Y0094845D02*
X0118109Y0094845D01*
X0118109Y0093847D02*
X0077075Y0093847D01*
X0077075Y0092848D02*
X0118109Y0092848D01*
X0118109Y0091850D02*
X0077075Y0091850D01*
X0077075Y0090851D02*
X0118109Y0090851D01*
X0118109Y0089853D02*
X0077075Y0089853D01*
X0077075Y0088854D02*
X0118109Y0088854D01*
X0118109Y0087856D02*
X0077075Y0087856D01*
X0077075Y0086857D02*
X0118109Y0086857D01*
X0118109Y0085859D02*
X0077075Y0085859D01*
X0077075Y0084860D02*
X0118109Y0084860D01*
X0118109Y0083862D02*
X0077075Y0083862D01*
X0077243Y0082863D02*
X0118109Y0082863D01*
X0118109Y0081865D02*
X0077941Y0081865D01*
X0078292Y0080866D02*
X0118109Y0080866D01*
X0118109Y0079868D02*
X0078292Y0079868D01*
X0078292Y0078869D02*
X0118109Y0078869D01*
X0118109Y0077870D02*
X0078292Y0077870D01*
X0078292Y0076872D02*
X0118109Y0076872D01*
X0118109Y0075873D02*
X0078247Y0075873D01*
X0077833Y0074875D02*
X0118109Y0074875D01*
X0118109Y0073876D02*
X0076982Y0073876D01*
X0063475Y0088854D02*
X0044870Y0088854D01*
X0044870Y0087856D02*
X0062491Y0087856D01*
X0061505Y0086857D02*
X0044870Y0086857D01*
X0044870Y0085859D02*
X0060520Y0085859D01*
X0064474Y0089853D02*
X0044870Y0089853D01*
X0044870Y0090851D02*
X0064925Y0090851D01*
X0064925Y0091850D02*
X0044870Y0091850D01*
X0051574Y0092848D02*
X0064925Y0092848D01*
X0064925Y0093847D02*
X0053095Y0093847D01*
X0053750Y0094845D02*
X0064925Y0094845D01*
X0064925Y0095844D02*
X0054070Y0095844D01*
X0054070Y0096842D02*
X0064925Y0096842D01*
X0064925Y0097841D02*
X0054070Y0097841D01*
X0054070Y0098839D02*
X0064925Y0098839D01*
X0064925Y0099838D02*
X0054070Y0099838D01*
X0054070Y0100836D02*
X0064925Y0100836D01*
X0064925Y0101835D02*
X0054070Y0101835D01*
X0054070Y0102833D02*
X0064925Y0102833D01*
X0064925Y0103832D02*
X0054070Y0103832D01*
X0054070Y0104830D02*
X0064925Y0104830D01*
X0064925Y0105829D02*
X0054070Y0105829D01*
X0054070Y0106827D02*
X0064925Y0106827D01*
X0064925Y0107826D02*
X0054070Y0107826D01*
X0054070Y0108824D02*
X0064925Y0108824D01*
X0064925Y0109823D02*
X0054070Y0109823D01*
X0054070Y0110821D02*
X0064925Y0110821D01*
X0064925Y0111820D02*
X0054070Y0111820D01*
X0054070Y0112818D02*
X0064925Y0112818D01*
X0064925Y0113817D02*
X0060298Y0113817D01*
X0061921Y0114815D02*
X0064925Y0114815D01*
X0064925Y0115814D02*
X0062986Y0115814D01*
X0064051Y0116812D02*
X0064925Y0116812D01*
X0035870Y0091850D02*
X0004700Y0091850D01*
X0004700Y0092848D02*
X0029166Y0092848D01*
X0027645Y0093847D02*
X0004700Y0093847D01*
X0004700Y0094845D02*
X0026990Y0094845D01*
X0026670Y0095844D02*
X0004700Y0095844D01*
X0004700Y0096842D02*
X0026670Y0096842D01*
X0026670Y0097841D02*
X0004700Y0097841D01*
X0004700Y0098839D02*
X0026670Y0098839D01*
X0026670Y0099838D02*
X0004700Y0099838D01*
X0004700Y0100836D02*
X0026670Y0100836D01*
X0026670Y0101835D02*
X0004700Y0101835D01*
X0004700Y0102833D02*
X0026670Y0102833D01*
X0026670Y0103832D02*
X0004700Y0103832D01*
X0004700Y0104830D02*
X0026670Y0104830D01*
X0026670Y0105829D02*
X0004700Y0105829D01*
X0004700Y0106827D02*
X0026670Y0106827D01*
X0026670Y0107826D02*
X0004700Y0107826D01*
X0004700Y0108824D02*
X0026670Y0108824D01*
X0026670Y0109823D02*
X0004700Y0109823D01*
X0004700Y0110821D02*
X0026670Y0110821D01*
X0026670Y0111820D02*
X0004700Y0111820D01*
X0004700Y0112818D02*
X0026670Y0112818D01*
X0035870Y0090851D02*
X0004700Y0090851D01*
X0004700Y0089853D02*
X0035870Y0089853D01*
X0035870Y0088854D02*
X0004700Y0088854D01*
X0004700Y0087856D02*
X0035870Y0087856D01*
X0035870Y0086857D02*
X0004700Y0086857D01*
X0004700Y0085859D02*
X0035870Y0085859D01*
X0035870Y0084860D02*
X0004700Y0084860D01*
X0004700Y0083862D02*
X0035870Y0083862D01*
X0035870Y0082863D02*
X0004700Y0082863D01*
X0004700Y0081865D02*
X0035870Y0081865D01*
X0035870Y0080866D02*
X0004700Y0080866D01*
X0004700Y0079868D02*
X0035870Y0079868D01*
X0035870Y0078869D02*
X0004700Y0078869D01*
X0004700Y0077870D02*
X0035870Y0077870D01*
X0035870Y0076872D02*
X0004700Y0076872D01*
X0004700Y0075873D02*
X0035870Y0075873D01*
X0035870Y0074875D02*
X0004700Y0074875D01*
X0004700Y0073876D02*
X0035870Y0073876D01*
X0035870Y0072878D02*
X0004700Y0072878D01*
X0004700Y0071879D02*
X0035870Y0071879D01*
X0035870Y0070881D02*
X0004700Y0070881D01*
X0004700Y0069882D02*
X0035870Y0069882D01*
X0035870Y0068884D02*
X0004700Y0068884D01*
X0004700Y0067885D02*
X0035870Y0067885D01*
X0035870Y0066887D02*
X0004700Y0066887D01*
X0004700Y0065888D02*
X0035870Y0065888D01*
X0035870Y0064890D02*
X0004700Y0064890D01*
X0004700Y0063891D02*
X0035870Y0063891D01*
X0035870Y0062893D02*
X0004700Y0062893D01*
X0004700Y0061894D02*
X0035870Y0061894D01*
X0035870Y0060896D02*
X0004700Y0060896D01*
X0004700Y0059897D02*
X0035870Y0059897D01*
X0035870Y0058899D02*
X0004700Y0058899D01*
X0004700Y0057900D02*
X0035870Y0057900D01*
X0035870Y0056902D02*
X0004700Y0056902D01*
X0004700Y0055903D02*
X0035870Y0055903D01*
X0035870Y0054905D02*
X0004700Y0054905D01*
X0004700Y0053906D02*
X0035870Y0053906D01*
X0035870Y0052908D02*
X0004700Y0052908D01*
X0004700Y0051909D02*
X0035870Y0051909D01*
X0035870Y0050911D02*
X0004700Y0050911D01*
X0004700Y0049912D02*
X0035870Y0049912D01*
X0030543Y0048914D02*
X0004700Y0048914D01*
X0004700Y0047915D02*
X0029051Y0047915D01*
X0028277Y0046917D02*
X0004700Y0046917D01*
X0004700Y0045918D02*
X0027863Y0045918D01*
X0027750Y0044920D02*
X0004700Y0044920D01*
X0004700Y0043921D02*
X0027750Y0043921D01*
X0027750Y0042923D02*
X0004700Y0042923D01*
X0004700Y0041924D02*
X0027750Y0041924D01*
X0027750Y0040926D02*
X0004700Y0040926D01*
X0004700Y0039927D02*
X0027750Y0039927D01*
X0027750Y0038929D02*
X0004700Y0038929D01*
X0004700Y0037930D02*
X0027750Y0037930D01*
X0027750Y0036932D02*
X0004700Y0036932D01*
X0004700Y0035933D02*
X0027750Y0035933D01*
X0027750Y0034934D02*
X0004700Y0034934D01*
X0004700Y0033936D02*
X0027750Y0033936D01*
X0027750Y0032937D02*
X0004700Y0032937D01*
X0004700Y0031939D02*
X0027750Y0031939D01*
X0027750Y0030940D02*
X0004700Y0030940D01*
X0004700Y0029942D02*
X0027750Y0029942D01*
X0027750Y0028943D02*
X0004700Y0028943D01*
X0004700Y0027945D02*
X0013905Y0027945D01*
X0012868Y0027515D02*
X0010941Y0025589D01*
X0009898Y0023071D01*
X0009898Y0020346D01*
X0010941Y0017829D01*
X0012868Y0015902D01*
X0015386Y0014859D01*
X0018110Y0014859D01*
X0020628Y0015902D01*
X0022555Y0017829D01*
X0023598Y0020346D01*
X0023598Y0023071D01*
X0022555Y0025589D01*
X0020628Y0027515D01*
X0018110Y0028558D01*
X0015386Y0028558D01*
X0012868Y0027515D01*
X0012299Y0026946D02*
X0004700Y0026946D01*
X0004700Y0025948D02*
X0011300Y0025948D01*
X0010676Y0024949D02*
X0004700Y0024949D01*
X0004700Y0023951D02*
X0010263Y0023951D01*
X0009898Y0022952D02*
X0004700Y0022952D01*
X0004700Y0021954D02*
X0009898Y0021954D01*
X0009898Y0020955D02*
X0004700Y0020955D01*
X0004700Y0019957D02*
X0010060Y0019957D01*
X0010473Y0018958D02*
X0004700Y0018958D01*
X0004700Y0017960D02*
X0010887Y0017960D01*
X0011809Y0016961D02*
X0004700Y0016961D01*
X0004700Y0015963D02*
X0012807Y0015963D01*
X0015132Y0014964D02*
X0004700Y0014964D01*
X0004700Y0013966D02*
X0027750Y0013966D01*
X0027750Y0014964D02*
X0018365Y0014964D01*
X0020689Y0015963D02*
X0027750Y0015963D01*
X0027750Y0016961D02*
X0021687Y0016961D01*
X0022609Y0017960D02*
X0027750Y0017960D01*
X0027750Y0018958D02*
X0023023Y0018958D01*
X0023436Y0019957D02*
X0027750Y0019957D01*
X0027750Y0020955D02*
X0023598Y0020955D01*
X0023598Y0021954D02*
X0027750Y0021954D01*
X0027750Y0022952D02*
X0023598Y0022952D01*
X0023233Y0023951D02*
X0027750Y0023951D01*
X0027750Y0024949D02*
X0022820Y0024949D01*
X0022196Y0025948D02*
X0027750Y0025948D01*
X0027750Y0026946D02*
X0021197Y0026946D01*
X0019591Y0027945D02*
X0027750Y0027945D01*
X0036750Y0024101D02*
X0036750Y0022899D01*
X0037351Y0023500D01*
X0036750Y0024101D01*
X0036750Y0023951D02*
X0036900Y0023951D01*
X0036803Y0022952D02*
X0036750Y0022952D01*
X0027750Y0012967D02*
X0004700Y0012967D01*
X0004700Y0011969D02*
X0027750Y0011969D01*
X0027750Y0010970D02*
X0004700Y0010970D01*
X0004700Y0009972D02*
X0027805Y0009972D01*
X0028219Y0008973D02*
X0004700Y0008973D01*
X0004700Y0007975D02*
X0028911Y0007975D01*
X0030205Y0006976D02*
X0004700Y0006976D01*
X0004700Y0005978D02*
X0245331Y0005978D01*
X0245331Y0006976D02*
X0218045Y0006976D01*
X0219339Y0007975D02*
X0245331Y0007975D01*
X0245331Y0008973D02*
X0220031Y0008973D01*
X0220445Y0009972D02*
X0245331Y0009972D01*
X0245331Y0010970D02*
X0220500Y0010970D01*
X0220500Y0011969D02*
X0245331Y0011969D01*
X0245331Y0012967D02*
X0220500Y0012967D01*
X0220500Y0013966D02*
X0245331Y0013966D01*
X0245331Y0014964D02*
X0234900Y0014964D01*
X0234646Y0014859D02*
X0237163Y0015902D01*
X0239090Y0017829D01*
X0240133Y0020346D01*
X0240133Y0023071D01*
X0239090Y0025589D01*
X0237163Y0027515D01*
X0234646Y0028558D01*
X0231921Y0028558D01*
X0229403Y0027515D01*
X0227477Y0025589D01*
X0226434Y0023071D01*
X0226434Y0020346D01*
X0227477Y0017829D01*
X0229403Y0015902D01*
X0231921Y0014859D01*
X0234646Y0014859D01*
X0237224Y0015963D02*
X0245331Y0015963D01*
X0245331Y0016961D02*
X0238223Y0016961D01*
X0239145Y0017960D02*
X0245331Y0017960D01*
X0245331Y0018958D02*
X0239558Y0018958D01*
X0239972Y0019957D02*
X0245331Y0019957D01*
X0245331Y0020955D02*
X0240133Y0020955D01*
X0240133Y0021954D02*
X0245331Y0021954D01*
X0245331Y0022952D02*
X0240133Y0022952D01*
X0239769Y0023951D02*
X0245331Y0023951D01*
X0245331Y0024949D02*
X0239355Y0024949D01*
X0238731Y0025948D02*
X0245331Y0025948D01*
X0245331Y0026946D02*
X0237733Y0026946D01*
X0236127Y0027945D02*
X0245331Y0027945D01*
X0245331Y0028943D02*
X0220500Y0028943D01*
X0220500Y0027945D02*
X0230440Y0027945D01*
X0228834Y0026946D02*
X0220500Y0026946D01*
X0220500Y0025948D02*
X0227836Y0025948D01*
X0227212Y0024949D02*
X0220500Y0024949D01*
X0220500Y0023951D02*
X0226798Y0023951D01*
X0226434Y0022952D02*
X0220500Y0022952D01*
X0220500Y0021954D02*
X0226434Y0021954D01*
X0226434Y0020955D02*
X0220500Y0020955D01*
X0220500Y0019957D02*
X0226595Y0019957D01*
X0227009Y0018958D02*
X0220500Y0018958D01*
X0220500Y0017960D02*
X0227422Y0017960D01*
X0228344Y0016961D02*
X0220500Y0016961D01*
X0220500Y0015963D02*
X0229343Y0015963D01*
X0231667Y0014964D02*
X0220500Y0014964D01*
X0211500Y0015963D02*
X0088776Y0015963D01*
X0089189Y0016961D02*
X0211500Y0016961D01*
X0211500Y0017960D02*
X0089250Y0017960D01*
X0089250Y0018958D02*
X0211500Y0018958D01*
X0211500Y0019957D02*
X0117147Y0019957D01*
X0118145Y0020955D02*
X0211500Y0020955D01*
X0211500Y0021954D02*
X0118656Y0021954D01*
X0118950Y0022952D02*
X0211500Y0022952D01*
X0211500Y0023951D02*
X0118950Y0023951D01*
X0118950Y0024949D02*
X0211500Y0024949D01*
X0211500Y0025948D02*
X0118950Y0025948D01*
X0118950Y0026946D02*
X0211500Y0026946D01*
X0211500Y0027945D02*
X0118950Y0027945D01*
X0118950Y0028943D02*
X0211500Y0028943D01*
X0211500Y0029942D02*
X0118950Y0029942D01*
X0118950Y0030940D02*
X0211500Y0030940D01*
X0211500Y0031939D02*
X0118950Y0031939D01*
X0118950Y0032937D02*
X0211500Y0032937D01*
X0211500Y0033936D02*
X0118950Y0033936D01*
X0118950Y0034934D02*
X0211500Y0034934D01*
X0211500Y0035933D02*
X0118950Y0035933D01*
X0118950Y0036932D02*
X0211500Y0036932D01*
X0211500Y0037930D02*
X0118950Y0037930D01*
X0118950Y0038929D02*
X0211500Y0038929D01*
X0211500Y0039927D02*
X0118950Y0039927D01*
X0118950Y0040926D02*
X0211500Y0040926D01*
X0211500Y0041924D02*
X0118950Y0041924D01*
X0118950Y0042923D02*
X0211500Y0042923D01*
X0211500Y0043921D02*
X0118950Y0043921D01*
X0118950Y0044920D02*
X0211500Y0044920D01*
X0211500Y0045918D02*
X0118950Y0045918D01*
X0118950Y0046917D02*
X0211500Y0046917D01*
X0211500Y0047915D02*
X0118950Y0047915D01*
X0110550Y0039927D02*
X0036750Y0039927D01*
X0036750Y0038929D02*
X0110550Y0038929D01*
X0110550Y0037930D02*
X0036750Y0037930D01*
X0036750Y0036932D02*
X0110550Y0036932D01*
X0110550Y0035933D02*
X0036750Y0035933D01*
X0036750Y0034934D02*
X0039492Y0034934D01*
X0037787Y0033936D02*
X0036750Y0033936D01*
X0036750Y0032937D02*
X0036788Y0032937D01*
X0047149Y0023500D02*
X0047250Y0023399D01*
X0047351Y0023500D01*
X0047250Y0023601D01*
X0047149Y0023500D01*
X0065008Y0034934D02*
X0069492Y0034934D01*
X0067787Y0033936D02*
X0066713Y0033936D01*
X0075008Y0034934D02*
X0076852Y0034934D01*
X0087648Y0034934D02*
X0110550Y0034934D01*
X0110550Y0033936D02*
X0088647Y0033936D01*
X0089084Y0032937D02*
X0110550Y0032937D01*
X0110550Y0031939D02*
X0089250Y0031939D01*
X0089250Y0030940D02*
X0110550Y0030940D01*
X0110550Y0029942D02*
X0089250Y0029942D01*
X0089250Y0028943D02*
X0110550Y0028943D01*
X0110550Y0027945D02*
X0089250Y0027945D01*
X0124809Y0068500D02*
X0125016Y0068500D01*
X0152250Y0068500D01*
X0152250Y0073500D01*
X0146769Y0073876D02*
X0129216Y0073876D01*
X0129216Y0074300D02*
X0146769Y0074300D01*
X0146769Y0072700D01*
X0129216Y0072700D01*
X0129216Y0074300D01*
X0129216Y0072878D02*
X0146769Y0072878D01*
X0157425Y0082863D02*
X0132700Y0082863D01*
X0132700Y0083862D02*
X0157425Y0083862D01*
X0157425Y0084860D02*
X0132700Y0084860D01*
X0132700Y0085859D02*
X0157425Y0085859D01*
X0157425Y0086857D02*
X0132700Y0086857D01*
X0132700Y0087856D02*
X0157425Y0087856D01*
X0157425Y0088854D02*
X0132700Y0088854D01*
X0132700Y0089853D02*
X0157425Y0089853D01*
X0157425Y0090851D02*
X0132700Y0090851D01*
X0132700Y0091850D02*
X0157425Y0091850D01*
X0157425Y0092848D02*
X0132700Y0092848D01*
X0132700Y0093847D02*
X0157425Y0093847D01*
X0157425Y0094845D02*
X0132700Y0094845D01*
X0132700Y0095844D02*
X0157425Y0095844D01*
X0157425Y0096842D02*
X0132700Y0096842D01*
X0132700Y0097841D02*
X0157425Y0097841D01*
X0157425Y0098839D02*
X0132700Y0098839D01*
X0132700Y0099838D02*
X0157425Y0099838D01*
X0157425Y0100836D02*
X0132700Y0100836D01*
X0132700Y0101835D02*
X0157425Y0101835D01*
X0157425Y0102833D02*
X0132700Y0102833D01*
X0132700Y0103832D02*
X0157425Y0103832D01*
X0157425Y0104830D02*
X0132700Y0104830D01*
X0132700Y0105829D02*
X0157425Y0105829D01*
X0157425Y0106827D02*
X0132700Y0106827D01*
X0132700Y0107826D02*
X0157425Y0107826D01*
X0157425Y0108824D02*
X0132700Y0108824D01*
X0132700Y0109823D02*
X0157425Y0109823D01*
X0157425Y0110821D02*
X0132700Y0110821D01*
X0132700Y0111820D02*
X0157425Y0111820D01*
X0157425Y0112818D02*
X0132700Y0112818D01*
X0132700Y0113817D02*
X0157425Y0113817D01*
X0157425Y0114815D02*
X0132700Y0114815D01*
X0132700Y0115814D02*
X0157425Y0115814D01*
X0157425Y0116812D02*
X0132700Y0116812D01*
X0132700Y0117811D02*
X0157425Y0117811D01*
X0157425Y0118809D02*
X0132700Y0118809D01*
X0132978Y0119808D02*
X0157425Y0119808D01*
X0157425Y0120806D02*
X0133649Y0120806D01*
X0133981Y0121805D02*
X0157425Y0121805D01*
X0157425Y0122803D02*
X0133981Y0122803D01*
X0133981Y0123802D02*
X0157425Y0123802D01*
X0157425Y0124801D02*
X0133981Y0124801D01*
X0133981Y0125799D02*
X0157425Y0125799D01*
X0157425Y0126798D02*
X0133917Y0126798D01*
X0133503Y0127796D02*
X0157425Y0127796D01*
X0157425Y0128795D02*
X0132693Y0128795D01*
X0132691Y0129793D02*
X0157425Y0129793D01*
X0157425Y0130792D02*
X0132690Y0130792D01*
X0132688Y0131790D02*
X0157425Y0131790D01*
X0157425Y0132789D02*
X0132686Y0132789D01*
X0132685Y0133787D02*
X0157425Y0133787D01*
X0157425Y0134786D02*
X0132683Y0134786D01*
X0132682Y0135784D02*
X0157425Y0135784D01*
X0157425Y0136783D02*
X0132680Y0136783D01*
X0132679Y0137781D02*
X0157425Y0137781D01*
X0157425Y0138780D02*
X0132677Y0138780D01*
X0132675Y0139778D02*
X0157425Y0139778D01*
X0157425Y0140777D02*
X0132674Y0140777D01*
X0132672Y0141775D02*
X0157425Y0141775D01*
X0157425Y0142774D02*
X0132671Y0142774D01*
X0132669Y0143772D02*
X0157425Y0143772D01*
X0157425Y0144771D02*
X0132668Y0144771D01*
X0132666Y0145769D02*
X0157425Y0145769D01*
X0157425Y0146768D02*
X0132664Y0146768D01*
X0132663Y0147766D02*
X0157425Y0147766D01*
X0157425Y0148765D02*
X0132661Y0148765D01*
X0132660Y0149763D02*
X0157425Y0149763D01*
X0157425Y0150762D02*
X0132658Y0150762D01*
X0132657Y0151760D02*
X0157425Y0151760D01*
X0157425Y0152759D02*
X0132655Y0152759D01*
X0132654Y0153757D02*
X0157425Y0153757D01*
X0157425Y0154756D02*
X0132652Y0154756D01*
X0132650Y0155754D02*
X0157425Y0155754D01*
X0157425Y0156753D02*
X0132649Y0156753D01*
X0132647Y0157751D02*
X0157425Y0157751D01*
X0136418Y0181738D02*
X0136418Y0213500D01*
X0146000Y0213500D01*
X0146000Y0248500D01*
X0138500Y0248500D01*
X0125016Y0219346D02*
X0125016Y0068500D01*
X0165825Y0073876D02*
X0220535Y0073876D01*
X0220535Y0072878D02*
X0208855Y0072878D01*
X0210394Y0071879D02*
X0220535Y0071879D01*
X0220535Y0071703D02*
X0224636Y0067602D01*
X0230435Y0067602D01*
X0234535Y0071703D01*
X0234535Y0077502D01*
X0230435Y0081602D01*
X0224636Y0081602D01*
X0220535Y0077502D01*
X0220535Y0071703D01*
X0221357Y0070881D02*
X0211392Y0070881D01*
X0211959Y0069882D02*
X0222356Y0069882D01*
X0223354Y0068884D02*
X0212372Y0068884D01*
X0212668Y0067885D02*
X0224353Y0067885D01*
X0224419Y0065888D02*
X0212668Y0065888D01*
X0212668Y0064890D02*
X0222923Y0064890D01*
X0230652Y0065888D02*
X0245331Y0065888D01*
X0245331Y0064890D02*
X0232147Y0064890D01*
X0233146Y0063891D02*
X0245331Y0063891D01*
X0245331Y0062893D02*
X0233749Y0062893D01*
X0234163Y0061894D02*
X0245331Y0061894D01*
X0245331Y0060896D02*
X0234535Y0060896D01*
X0234535Y0059897D02*
X0245331Y0059897D01*
X0245331Y0058899D02*
X0234535Y0058899D01*
X0234407Y0057900D02*
X0245331Y0057900D01*
X0245331Y0056902D02*
X0233994Y0056902D01*
X0233580Y0055903D02*
X0245331Y0055903D01*
X0245331Y0054905D02*
X0232737Y0054905D01*
X0231739Y0053906D02*
X0245331Y0053906D01*
X0245331Y0052908D02*
X0229665Y0052908D01*
X0225406Y0052908D02*
X0220500Y0052908D01*
X0220500Y0053906D02*
X0223332Y0053906D01*
X0222334Y0054905D02*
X0220500Y0054905D01*
X0220500Y0051909D02*
X0245331Y0051909D01*
X0245331Y0050911D02*
X0220500Y0050911D01*
X0220500Y0049912D02*
X0245331Y0049912D01*
X0245331Y0048914D02*
X0220500Y0048914D01*
X0220500Y0047915D02*
X0245331Y0047915D01*
X0245331Y0046917D02*
X0220500Y0046917D01*
X0220500Y0045918D02*
X0245331Y0045918D01*
X0245331Y0044920D02*
X0220500Y0044920D01*
X0220500Y0043921D02*
X0245331Y0043921D01*
X0245331Y0042923D02*
X0220500Y0042923D01*
X0220500Y0041924D02*
X0245331Y0041924D01*
X0245331Y0040926D02*
X0220500Y0040926D01*
X0220500Y0039927D02*
X0245331Y0039927D01*
X0245331Y0038929D02*
X0220500Y0038929D01*
X0220500Y0037930D02*
X0245331Y0037930D01*
X0245331Y0036932D02*
X0220500Y0036932D01*
X0220500Y0035933D02*
X0245331Y0035933D01*
X0245331Y0034934D02*
X0220500Y0034934D01*
X0220500Y0033936D02*
X0245331Y0033936D01*
X0245331Y0032937D02*
X0220500Y0032937D01*
X0220500Y0031939D02*
X0245331Y0031939D01*
X0245331Y0030940D02*
X0220500Y0030940D01*
X0220500Y0029942D02*
X0245331Y0029942D01*
X0245331Y0004979D02*
X0004700Y0004979D01*
X0103886Y0121332D02*
X0103886Y0184937D01*
X0114359Y0184937D01*
X0114359Y0121332D01*
X0103886Y0121332D01*
X0103886Y0121805D02*
X0114359Y0121805D01*
X0114359Y0122803D02*
X0103886Y0122803D01*
X0103886Y0123802D02*
X0114359Y0123802D01*
X0114359Y0124801D02*
X0103886Y0124801D01*
X0103886Y0125799D02*
X0114359Y0125799D01*
X0114359Y0126798D02*
X0103886Y0126798D01*
X0103886Y0127796D02*
X0114359Y0127796D01*
X0114359Y0128795D02*
X0103886Y0128795D01*
X0103886Y0129793D02*
X0114359Y0129793D01*
X0114359Y0130792D02*
X0103886Y0130792D01*
X0103886Y0131790D02*
X0114359Y0131790D01*
X0114359Y0132789D02*
X0103886Y0132789D01*
X0103886Y0133787D02*
X0114359Y0133787D01*
X0114359Y0134786D02*
X0103886Y0134786D01*
X0103886Y0135784D02*
X0114359Y0135784D01*
X0114359Y0136783D02*
X0103886Y0136783D01*
X0103886Y0137781D02*
X0114359Y0137781D01*
X0114359Y0138780D02*
X0103886Y0138780D01*
X0103886Y0139778D02*
X0114359Y0139778D01*
X0114359Y0140777D02*
X0103886Y0140777D01*
X0103886Y0141775D02*
X0114359Y0141775D01*
X0114359Y0142774D02*
X0103886Y0142774D01*
X0103886Y0143772D02*
X0114359Y0143772D01*
X0114359Y0144771D02*
X0103886Y0144771D01*
X0103886Y0145769D02*
X0114359Y0145769D01*
X0114359Y0146768D02*
X0103886Y0146768D01*
X0103886Y0147766D02*
X0114359Y0147766D01*
X0114359Y0148765D02*
X0103886Y0148765D01*
X0103886Y0149763D02*
X0114359Y0149763D01*
X0114359Y0150762D02*
X0103886Y0150762D01*
X0103886Y0151760D02*
X0114359Y0151760D01*
X0114359Y0152759D02*
X0103886Y0152759D01*
X0103886Y0153757D02*
X0114359Y0153757D01*
X0114359Y0154756D02*
X0103886Y0154756D01*
X0103886Y0155754D02*
X0114359Y0155754D01*
X0114359Y0156753D02*
X0103886Y0156753D01*
X0103886Y0157751D02*
X0114359Y0157751D01*
X0114359Y0158750D02*
X0103886Y0158750D01*
X0103886Y0159748D02*
X0114359Y0159748D01*
X0114359Y0160747D02*
X0103886Y0160747D01*
X0103886Y0161745D02*
X0114359Y0161745D01*
X0114359Y0162744D02*
X0103886Y0162744D01*
X0103886Y0163742D02*
X0114359Y0163742D01*
X0114359Y0164741D02*
X0103886Y0164741D01*
X0103886Y0165739D02*
X0114359Y0165739D01*
X0114359Y0166738D02*
X0103886Y0166738D01*
X0103886Y0167737D02*
X0114359Y0167737D01*
X0114359Y0168735D02*
X0103886Y0168735D01*
X0103886Y0169734D02*
X0114359Y0169734D01*
X0114359Y0170732D02*
X0103886Y0170732D01*
X0103886Y0171731D02*
X0114359Y0171731D01*
X0114359Y0172729D02*
X0103886Y0172729D01*
X0103886Y0173728D02*
X0114359Y0173728D01*
X0114359Y0174726D02*
X0103886Y0174726D01*
X0103886Y0175725D02*
X0114359Y0175725D01*
X0114359Y0176723D02*
X0103886Y0176723D01*
X0103886Y0177722D02*
X0114359Y0177722D01*
X0114359Y0178720D02*
X0103886Y0178720D01*
X0103886Y0179719D02*
X0114359Y0179719D01*
X0114359Y0180717D02*
X0103886Y0180717D01*
X0103886Y0181716D02*
X0114359Y0181716D01*
X0114359Y0182714D02*
X0103886Y0182714D01*
X0103886Y0183713D02*
X0114359Y0183713D01*
X0114359Y0184711D02*
X0103886Y0184711D01*
X0092250Y0234637D02*
X0091858Y0234637D01*
X0059313Y0254607D02*
X0004700Y0254607D01*
X0004700Y0223653D02*
X0054000Y0223653D01*
X0054000Y0222655D02*
X0004700Y0222655D01*
X0004700Y0221656D02*
X0054000Y0221656D01*
X0054000Y0220658D02*
X0004700Y0220658D01*
X0004700Y0219659D02*
X0028680Y0219659D01*
X0027444Y0218661D02*
X0004700Y0218661D01*
X0004700Y0217662D02*
X0026907Y0217662D01*
X0026670Y0216664D02*
X0018782Y0216664D01*
X0021193Y0215665D02*
X0026670Y0215665D01*
X0026670Y0214667D02*
X0022644Y0214667D01*
X0023643Y0213668D02*
X0026670Y0213668D01*
X0026670Y0212670D02*
X0024592Y0212670D01*
X0025006Y0211671D02*
X0026670Y0211671D01*
X0026670Y0210672D02*
X0025419Y0210672D01*
X0025833Y0209674D02*
X0026670Y0209674D01*
X0026670Y0208675D02*
X0025960Y0208675D01*
X0025960Y0207677D02*
X0026670Y0207677D01*
X0026670Y0206678D02*
X0025960Y0206678D01*
X0025950Y0205680D02*
X0026670Y0205680D01*
X0026670Y0204681D02*
X0025537Y0204681D01*
X0025123Y0203683D02*
X0026670Y0203683D01*
X0026670Y0202684D02*
X0024709Y0202684D01*
X0023926Y0201686D02*
X0026670Y0201686D01*
X0026670Y0200687D02*
X0022927Y0200687D01*
X0021876Y0199689D02*
X0026670Y0199689D01*
X0011620Y0199689D02*
X0004700Y0199689D01*
X0004700Y0200687D02*
X0010569Y0200687D01*
X0009570Y0201686D02*
X0004700Y0201686D01*
X0004700Y0202684D02*
X0008787Y0202684D01*
X0008373Y0203683D02*
X0004700Y0203683D01*
X0004700Y0204681D02*
X0007959Y0204681D01*
X0007546Y0205680D02*
X0004700Y0205680D01*
X0004700Y0206678D02*
X0007536Y0206678D01*
X0007536Y0207677D02*
X0004700Y0207677D01*
X0004700Y0208675D02*
X0007536Y0208675D01*
X0007663Y0209674D02*
X0004700Y0209674D01*
X0004700Y0210672D02*
X0008077Y0210672D01*
X0008490Y0211671D02*
X0004700Y0211671D01*
X0004700Y0212670D02*
X0008904Y0212670D01*
X0009853Y0213668D02*
X0004700Y0213668D01*
X0004700Y0214667D02*
X0010852Y0214667D01*
X0012303Y0215665D02*
X0004700Y0215665D01*
X0004700Y0216664D02*
X0014714Y0216664D01*
X0046499Y0224652D02*
X0054000Y0224652D01*
X0054000Y0225650D02*
X0047734Y0225650D01*
X0048733Y0226649D02*
X0054000Y0226649D01*
X0054000Y0227647D02*
X0049174Y0227647D01*
X0049587Y0228646D02*
X0054000Y0228646D01*
X0054000Y0219659D02*
X0052060Y0219659D01*
X0053296Y0218661D02*
X0054000Y0218661D01*
X0054000Y0217662D02*
X0053833Y0217662D01*
X0165353Y0183713D02*
X0245331Y0183713D01*
X0245331Y0184711D02*
X0224360Y0184711D01*
X0206573Y0181716D02*
X0200427Y0181716D01*
X0202619Y0180717D02*
X0204381Y0180717D01*
X0196573Y0181716D02*
X0190427Y0181716D01*
X0192619Y0180717D02*
X0194381Y0180717D01*
X0186573Y0181716D02*
X0180427Y0181716D01*
X0182619Y0180717D02*
X0184381Y0180717D01*
X0183500Y0170038D02*
X0183399Y0169937D01*
X0183500Y0169836D01*
X0183601Y0169937D01*
X0183500Y0170038D01*
X0183211Y0159748D02*
X0183789Y0159748D01*
X0185145Y0158750D02*
X0181855Y0158750D01*
X0191855Y0158750D02*
X0195145Y0158750D01*
X0193789Y0159748D02*
X0193211Y0159748D01*
X0201855Y0158750D02*
X0205145Y0158750D01*
X0203789Y0159748D02*
X0203211Y0159748D01*
X0203500Y0169836D02*
X0203399Y0169937D01*
X0203500Y0170038D01*
X0203601Y0169937D01*
X0203500Y0169836D01*
X0193601Y0169937D02*
X0193500Y0170038D01*
X0193399Y0169937D01*
X0193500Y0169836D01*
X0193601Y0169937D01*
X0208500Y0119125D02*
X0208500Y0117875D01*
X0203244Y0114815D02*
X0188961Y0114815D01*
X0188981Y0113817D02*
X0203763Y0113817D01*
X0204958Y0112818D02*
X0188981Y0112818D01*
X0183500Y0112250D02*
X0183500Y0084750D01*
X0175375Y0084750D01*
X0170046Y0081865D02*
X0165825Y0081865D01*
X0165825Y0082863D02*
X0169894Y0082863D01*
X0169894Y0083862D02*
X0165825Y0083862D01*
X0165825Y0084860D02*
X0169894Y0084860D01*
X0169894Y0085859D02*
X0165825Y0085859D01*
X0165825Y0086857D02*
X0169894Y0086857D01*
X0170138Y0087856D02*
X0165825Y0087856D01*
X0165825Y0088854D02*
X0170684Y0088854D01*
X0171944Y0089853D02*
X0165825Y0089853D01*
X0165825Y0090851D02*
X0179300Y0090851D01*
X0179300Y0089853D02*
X0178806Y0089853D01*
X0179300Y0091850D02*
X0165825Y0091850D01*
X0165825Y0092848D02*
X0179300Y0092848D01*
X0179300Y0093847D02*
X0165825Y0093847D01*
X0165825Y0094845D02*
X0179300Y0094845D01*
X0179300Y0095844D02*
X0165825Y0095844D01*
X0165825Y0096842D02*
X0179300Y0096842D01*
X0179300Y0097841D02*
X0165825Y0097841D01*
X0165825Y0098839D02*
X0179300Y0098839D01*
X0179300Y0099838D02*
X0165825Y0099838D01*
X0165825Y0100836D02*
X0179300Y0100836D01*
X0179300Y0101835D02*
X0165825Y0101835D01*
X0165825Y0102833D02*
X0179300Y0102833D01*
X0179300Y0103832D02*
X0165825Y0103832D01*
X0165825Y0104830D02*
X0179300Y0104830D01*
X0179300Y0105829D02*
X0165825Y0105829D01*
X0165825Y0106827D02*
X0179300Y0106827D01*
X0179129Y0107826D02*
X0165825Y0107826D01*
X0165825Y0108824D02*
X0178395Y0108824D01*
X0178019Y0109823D02*
X0165825Y0109823D01*
X0165825Y0110821D02*
X0178019Y0110821D01*
X0178019Y0111820D02*
X0165825Y0111820D01*
X0165825Y0112818D02*
X0178019Y0112818D01*
X0178019Y0113817D02*
X0170810Y0113817D01*
X0172360Y0114815D02*
X0178039Y0114815D01*
X0188500Y0102250D02*
X0188500Y0092875D01*
X0188855Y0072878D02*
X0193145Y0072878D01*
X0191606Y0071879D02*
X0190394Y0071879D01*
X0198855Y0072878D02*
X0203145Y0072878D01*
X0201606Y0071879D02*
X0200394Y0071879D01*
X0212668Y0066887D02*
X0245331Y0066887D01*
X0245331Y0067885D02*
X0230718Y0067885D01*
X0231716Y0068884D02*
X0245331Y0068884D01*
X0245331Y0069882D02*
X0232715Y0069882D01*
X0233713Y0070881D02*
X0245331Y0070881D01*
X0245331Y0071879D02*
X0234535Y0071879D01*
X0234535Y0072878D02*
X0245331Y0072878D01*
X0245331Y0073876D02*
X0234535Y0073876D01*
X0234535Y0074875D02*
X0245331Y0074875D01*
X0245331Y0075873D02*
X0234535Y0075873D01*
X0234535Y0076872D02*
X0245331Y0076872D01*
X0245331Y0077870D02*
X0234167Y0077870D01*
X0233168Y0078869D02*
X0245331Y0078869D01*
X0245331Y0079868D02*
X0232170Y0079868D01*
X0231171Y0080866D02*
X0245331Y0080866D01*
X0221903Y0078869D02*
X0165825Y0078869D01*
X0165825Y0079868D02*
X0171463Y0079868D01*
X0170464Y0080866D02*
X0165825Y0080866D01*
X0165825Y0077870D02*
X0220904Y0077870D01*
X0220535Y0076872D02*
X0165825Y0076872D01*
X0165825Y0075873D02*
X0220535Y0075873D01*
X0220535Y0074875D02*
X0165825Y0074875D01*
X0180428Y0055903D02*
X0181572Y0055903D01*
X0183062Y0054905D02*
X0178938Y0054905D01*
X0188938Y0054905D02*
X0193062Y0054905D01*
X0191572Y0055903D02*
X0190428Y0055903D01*
X0198938Y0054905D02*
X0203062Y0054905D01*
X0201572Y0055903D02*
X0200428Y0055903D01*
X0208938Y0054905D02*
X0211500Y0054905D01*
X0211500Y0055903D02*
X0210428Y0055903D01*
X0211427Y0056902D02*
X0211500Y0056902D01*
X0212668Y0062893D02*
X0212779Y0062893D01*
X0212668Y0063891D02*
X0214239Y0063891D01*
D19*
X0216000Y0059750D02*
X0227535Y0059750D01*
X0227535Y0059602D01*
X0216000Y0059750D02*
X0216000Y0011000D01*
X0032250Y0011000D01*
X0032250Y0044750D01*
X0040370Y0044750D01*
X0040370Y0106354D01*
X0040370Y0156354D02*
X0058500Y0156354D01*
X0058500Y0233441D01*
X0043126Y0233441D01*
M02*
