%
M48
M72
T01C0.02362
T02C0.03150
T03C0.03937
T04C0.04724
T05C0.06299
T06C0.11024
%
T01
X61625Y73500
X66625Y77250
X72811Y78500
X77186Y107875
X82280Y116000
X128500Y124125
X167875Y119125
X183500Y112250
X188500Y102250
X188500Y92875
X175375Y84750
X161625Y60375
X152250Y61000
X152250Y73500
X208500Y117875
X136418Y213500
X118500Y224750
X88500Y229504
X83677Y213441
X77772Y203598
X79125Y197781
X84125Y194125
X71866Y209504
X74750Y248431
T02
X227535Y74602
X227535Y59602
T03
X206000Y63874
X196000Y63874
X186000Y63874
X176000Y63874
X178500Y164937
X188500Y164937
X198500Y164937
X208500Y164937
X208500Y174937
X198500Y174937
X188500Y174937
X178500Y174937
X138500Y238500
X138500Y248500
X128500Y248500
X128500Y238500
X118500Y238500
X118500Y248500
X44307Y266118
X19110Y266118
X20291Y233441
X43126Y233441
X42250Y28500
X42250Y18500
X52250Y18500
X52250Y28500
X62250Y28500
X62250Y18500
X72250Y18500
X72250Y28500
X82250Y28500
X82250Y18500
T04
X31709Y243283
X31709Y270685
T05
X16748Y21709
X233283Y21709
T06
X232102Y207535
X16748Y207535
M30
