G75*
%MOIN*%
%OFA0B0*%
%FSLAX25Y25*%
%IPPOS*%
%LPD*%
%AMOC8*
5,1,8,0,0,1.08239X$1,22.5*
%
%ADD10C,0.00000*%
%ADD11C,0.00500*%
%ADD12C,0.00200*%
%ADD13C,0.00800*%
%ADD14C,0.00400*%
D10*
X0001000Y0001000D02*
X0001000Y0278402D01*
X0060557Y0278402D01*
X0060557Y0258096D01*
X0153559Y0258096D01*
X0153559Y0187850D01*
X0222270Y0187850D01*
X0222270Y0217250D01*
X0249031Y0217250D01*
X0249031Y0001000D01*
X0001000Y0001000D01*
X0013598Y0021709D02*
X0013600Y0021821D01*
X0013606Y0021932D01*
X0013616Y0022044D01*
X0013630Y0022155D01*
X0013647Y0022265D01*
X0013669Y0022375D01*
X0013695Y0022484D01*
X0013724Y0022592D01*
X0013757Y0022698D01*
X0013794Y0022804D01*
X0013835Y0022908D01*
X0013880Y0023011D01*
X0013928Y0023112D01*
X0013979Y0023211D01*
X0014034Y0023308D01*
X0014093Y0023403D01*
X0014154Y0023497D01*
X0014219Y0023588D01*
X0014288Y0023676D01*
X0014359Y0023762D01*
X0014433Y0023846D01*
X0014511Y0023926D01*
X0014591Y0024004D01*
X0014674Y0024080D01*
X0014759Y0024152D01*
X0014847Y0024221D01*
X0014937Y0024287D01*
X0015030Y0024349D01*
X0015125Y0024409D01*
X0015222Y0024465D01*
X0015320Y0024517D01*
X0015421Y0024566D01*
X0015523Y0024611D01*
X0015627Y0024653D01*
X0015732Y0024691D01*
X0015839Y0024725D01*
X0015946Y0024755D01*
X0016055Y0024782D01*
X0016164Y0024804D01*
X0016275Y0024823D01*
X0016385Y0024838D01*
X0016497Y0024849D01*
X0016608Y0024856D01*
X0016720Y0024859D01*
X0016832Y0024858D01*
X0016944Y0024853D01*
X0017055Y0024844D01*
X0017166Y0024831D01*
X0017277Y0024814D01*
X0017387Y0024794D01*
X0017496Y0024769D01*
X0017604Y0024741D01*
X0017711Y0024708D01*
X0017817Y0024672D01*
X0017921Y0024632D01*
X0018024Y0024589D01*
X0018126Y0024542D01*
X0018225Y0024491D01*
X0018323Y0024437D01*
X0018419Y0024379D01*
X0018513Y0024318D01*
X0018604Y0024254D01*
X0018693Y0024187D01*
X0018780Y0024116D01*
X0018864Y0024042D01*
X0018946Y0023966D01*
X0019024Y0023886D01*
X0019100Y0023804D01*
X0019173Y0023719D01*
X0019243Y0023632D01*
X0019309Y0023542D01*
X0019373Y0023450D01*
X0019433Y0023356D01*
X0019490Y0023260D01*
X0019543Y0023161D01*
X0019593Y0023061D01*
X0019639Y0022960D01*
X0019682Y0022856D01*
X0019721Y0022751D01*
X0019756Y0022645D01*
X0019787Y0022538D01*
X0019815Y0022429D01*
X0019838Y0022320D01*
X0019858Y0022210D01*
X0019874Y0022099D01*
X0019886Y0021988D01*
X0019894Y0021877D01*
X0019898Y0021765D01*
X0019898Y0021653D01*
X0019894Y0021541D01*
X0019886Y0021430D01*
X0019874Y0021319D01*
X0019858Y0021208D01*
X0019838Y0021098D01*
X0019815Y0020989D01*
X0019787Y0020880D01*
X0019756Y0020773D01*
X0019721Y0020667D01*
X0019682Y0020562D01*
X0019639Y0020458D01*
X0019593Y0020357D01*
X0019543Y0020257D01*
X0019490Y0020158D01*
X0019433Y0020062D01*
X0019373Y0019968D01*
X0019309Y0019876D01*
X0019243Y0019786D01*
X0019173Y0019699D01*
X0019100Y0019614D01*
X0019024Y0019532D01*
X0018946Y0019452D01*
X0018864Y0019376D01*
X0018780Y0019302D01*
X0018693Y0019231D01*
X0018604Y0019164D01*
X0018513Y0019100D01*
X0018419Y0019039D01*
X0018323Y0018981D01*
X0018225Y0018927D01*
X0018126Y0018876D01*
X0018024Y0018829D01*
X0017921Y0018786D01*
X0017817Y0018746D01*
X0017711Y0018710D01*
X0017604Y0018677D01*
X0017496Y0018649D01*
X0017387Y0018624D01*
X0017277Y0018604D01*
X0017166Y0018587D01*
X0017055Y0018574D01*
X0016944Y0018565D01*
X0016832Y0018560D01*
X0016720Y0018559D01*
X0016608Y0018562D01*
X0016497Y0018569D01*
X0016385Y0018580D01*
X0016275Y0018595D01*
X0016164Y0018614D01*
X0016055Y0018636D01*
X0015946Y0018663D01*
X0015839Y0018693D01*
X0015732Y0018727D01*
X0015627Y0018765D01*
X0015523Y0018807D01*
X0015421Y0018852D01*
X0015320Y0018901D01*
X0015222Y0018953D01*
X0015125Y0019009D01*
X0015030Y0019069D01*
X0014937Y0019131D01*
X0014847Y0019197D01*
X0014759Y0019266D01*
X0014674Y0019338D01*
X0014591Y0019414D01*
X0014511Y0019492D01*
X0014433Y0019572D01*
X0014359Y0019656D01*
X0014288Y0019742D01*
X0014219Y0019830D01*
X0014154Y0019921D01*
X0014093Y0020015D01*
X0014034Y0020110D01*
X0013979Y0020207D01*
X0013928Y0020306D01*
X0013880Y0020407D01*
X0013835Y0020510D01*
X0013794Y0020614D01*
X0013757Y0020720D01*
X0013724Y0020826D01*
X0013695Y0020934D01*
X0013669Y0021043D01*
X0013647Y0021153D01*
X0013630Y0021263D01*
X0013616Y0021374D01*
X0013606Y0021486D01*
X0013600Y0021597D01*
X0013598Y0021709D01*
X0011236Y0207535D02*
X0011238Y0207683D01*
X0011244Y0207831D01*
X0011254Y0207979D01*
X0011268Y0208126D01*
X0011286Y0208273D01*
X0011307Y0208419D01*
X0011333Y0208565D01*
X0011363Y0208710D01*
X0011396Y0208854D01*
X0011434Y0208997D01*
X0011475Y0209139D01*
X0011520Y0209280D01*
X0011568Y0209420D01*
X0011621Y0209559D01*
X0011677Y0209696D01*
X0011737Y0209831D01*
X0011800Y0209965D01*
X0011867Y0210097D01*
X0011938Y0210227D01*
X0012012Y0210355D01*
X0012089Y0210481D01*
X0012170Y0210605D01*
X0012254Y0210727D01*
X0012341Y0210846D01*
X0012432Y0210963D01*
X0012526Y0211078D01*
X0012622Y0211190D01*
X0012722Y0211300D01*
X0012824Y0211406D01*
X0012930Y0211510D01*
X0013038Y0211611D01*
X0013149Y0211709D01*
X0013262Y0211805D01*
X0013378Y0211897D01*
X0013496Y0211986D01*
X0013617Y0212071D01*
X0013740Y0212154D01*
X0013865Y0212233D01*
X0013992Y0212309D01*
X0014121Y0212381D01*
X0014252Y0212450D01*
X0014385Y0212515D01*
X0014520Y0212576D01*
X0014656Y0212634D01*
X0014793Y0212689D01*
X0014932Y0212739D01*
X0015073Y0212786D01*
X0015214Y0212829D01*
X0015357Y0212869D01*
X0015501Y0212904D01*
X0015645Y0212936D01*
X0015791Y0212963D01*
X0015937Y0212987D01*
X0016084Y0213007D01*
X0016231Y0213023D01*
X0016378Y0213035D01*
X0016526Y0213043D01*
X0016674Y0213047D01*
X0016822Y0213047D01*
X0016970Y0213043D01*
X0017118Y0213035D01*
X0017265Y0213023D01*
X0017412Y0213007D01*
X0017559Y0212987D01*
X0017705Y0212963D01*
X0017851Y0212936D01*
X0017995Y0212904D01*
X0018139Y0212869D01*
X0018282Y0212829D01*
X0018423Y0212786D01*
X0018564Y0212739D01*
X0018703Y0212689D01*
X0018840Y0212634D01*
X0018976Y0212576D01*
X0019111Y0212515D01*
X0019244Y0212450D01*
X0019375Y0212381D01*
X0019504Y0212309D01*
X0019631Y0212233D01*
X0019756Y0212154D01*
X0019879Y0212071D01*
X0020000Y0211986D01*
X0020118Y0211897D01*
X0020234Y0211805D01*
X0020347Y0211709D01*
X0020458Y0211611D01*
X0020566Y0211510D01*
X0020672Y0211406D01*
X0020774Y0211300D01*
X0020874Y0211190D01*
X0020970Y0211078D01*
X0021064Y0210963D01*
X0021155Y0210846D01*
X0021242Y0210727D01*
X0021326Y0210605D01*
X0021407Y0210481D01*
X0021484Y0210355D01*
X0021558Y0210227D01*
X0021629Y0210097D01*
X0021696Y0209965D01*
X0021759Y0209831D01*
X0021819Y0209696D01*
X0021875Y0209559D01*
X0021928Y0209420D01*
X0021976Y0209280D01*
X0022021Y0209139D01*
X0022062Y0208997D01*
X0022100Y0208854D01*
X0022133Y0208710D01*
X0022163Y0208565D01*
X0022189Y0208419D01*
X0022210Y0208273D01*
X0022228Y0208126D01*
X0022242Y0207979D01*
X0022252Y0207831D01*
X0022258Y0207683D01*
X0022260Y0207535D01*
X0022258Y0207387D01*
X0022252Y0207239D01*
X0022242Y0207091D01*
X0022228Y0206944D01*
X0022210Y0206797D01*
X0022189Y0206651D01*
X0022163Y0206505D01*
X0022133Y0206360D01*
X0022100Y0206216D01*
X0022062Y0206073D01*
X0022021Y0205931D01*
X0021976Y0205790D01*
X0021928Y0205650D01*
X0021875Y0205511D01*
X0021819Y0205374D01*
X0021759Y0205239D01*
X0021696Y0205105D01*
X0021629Y0204973D01*
X0021558Y0204843D01*
X0021484Y0204715D01*
X0021407Y0204589D01*
X0021326Y0204465D01*
X0021242Y0204343D01*
X0021155Y0204224D01*
X0021064Y0204107D01*
X0020970Y0203992D01*
X0020874Y0203880D01*
X0020774Y0203770D01*
X0020672Y0203664D01*
X0020566Y0203560D01*
X0020458Y0203459D01*
X0020347Y0203361D01*
X0020234Y0203265D01*
X0020118Y0203173D01*
X0020000Y0203084D01*
X0019879Y0202999D01*
X0019756Y0202916D01*
X0019631Y0202837D01*
X0019504Y0202761D01*
X0019375Y0202689D01*
X0019244Y0202620D01*
X0019111Y0202555D01*
X0018976Y0202494D01*
X0018840Y0202436D01*
X0018703Y0202381D01*
X0018564Y0202331D01*
X0018423Y0202284D01*
X0018282Y0202241D01*
X0018139Y0202201D01*
X0017995Y0202166D01*
X0017851Y0202134D01*
X0017705Y0202107D01*
X0017559Y0202083D01*
X0017412Y0202063D01*
X0017265Y0202047D01*
X0017118Y0202035D01*
X0016970Y0202027D01*
X0016822Y0202023D01*
X0016674Y0202023D01*
X0016526Y0202027D01*
X0016378Y0202035D01*
X0016231Y0202047D01*
X0016084Y0202063D01*
X0015937Y0202083D01*
X0015791Y0202107D01*
X0015645Y0202134D01*
X0015501Y0202166D01*
X0015357Y0202201D01*
X0015214Y0202241D01*
X0015073Y0202284D01*
X0014932Y0202331D01*
X0014793Y0202381D01*
X0014656Y0202436D01*
X0014520Y0202494D01*
X0014385Y0202555D01*
X0014252Y0202620D01*
X0014121Y0202689D01*
X0013992Y0202761D01*
X0013865Y0202837D01*
X0013740Y0202916D01*
X0013617Y0202999D01*
X0013496Y0203084D01*
X0013378Y0203173D01*
X0013262Y0203265D01*
X0013149Y0203361D01*
X0013038Y0203459D01*
X0012930Y0203560D01*
X0012824Y0203664D01*
X0012722Y0203770D01*
X0012622Y0203880D01*
X0012526Y0203992D01*
X0012432Y0204107D01*
X0012341Y0204224D01*
X0012254Y0204343D01*
X0012170Y0204465D01*
X0012089Y0204589D01*
X0012012Y0204715D01*
X0011938Y0204843D01*
X0011867Y0204973D01*
X0011800Y0205105D01*
X0011737Y0205239D01*
X0011677Y0205374D01*
X0011621Y0205511D01*
X0011568Y0205650D01*
X0011520Y0205790D01*
X0011475Y0205931D01*
X0011434Y0206073D01*
X0011396Y0206216D01*
X0011363Y0206360D01*
X0011333Y0206505D01*
X0011307Y0206651D01*
X0011286Y0206797D01*
X0011268Y0206944D01*
X0011254Y0207091D01*
X0011244Y0207239D01*
X0011238Y0207387D01*
X0011236Y0207535D01*
X0029347Y0243283D02*
X0029349Y0243380D01*
X0029355Y0243477D01*
X0029365Y0243573D01*
X0029379Y0243669D01*
X0029397Y0243765D01*
X0029418Y0243859D01*
X0029444Y0243953D01*
X0029473Y0244045D01*
X0029507Y0244136D01*
X0029543Y0244226D01*
X0029584Y0244314D01*
X0029628Y0244400D01*
X0029676Y0244485D01*
X0029727Y0244567D01*
X0029781Y0244648D01*
X0029839Y0244726D01*
X0029900Y0244801D01*
X0029963Y0244874D01*
X0030030Y0244945D01*
X0030100Y0245012D01*
X0030172Y0245077D01*
X0030247Y0245138D01*
X0030325Y0245197D01*
X0030404Y0245252D01*
X0030486Y0245304D01*
X0030570Y0245352D01*
X0030656Y0245397D01*
X0030744Y0245439D01*
X0030833Y0245477D01*
X0030924Y0245511D01*
X0031016Y0245541D01*
X0031109Y0245568D01*
X0031204Y0245590D01*
X0031299Y0245609D01*
X0031395Y0245624D01*
X0031491Y0245635D01*
X0031588Y0245642D01*
X0031685Y0245645D01*
X0031782Y0245644D01*
X0031879Y0245639D01*
X0031975Y0245630D01*
X0032071Y0245617D01*
X0032167Y0245600D01*
X0032262Y0245579D01*
X0032355Y0245555D01*
X0032448Y0245526D01*
X0032540Y0245494D01*
X0032630Y0245458D01*
X0032718Y0245419D01*
X0032805Y0245375D01*
X0032890Y0245329D01*
X0032973Y0245278D01*
X0033054Y0245225D01*
X0033132Y0245168D01*
X0033209Y0245108D01*
X0033282Y0245045D01*
X0033353Y0244979D01*
X0033421Y0244910D01*
X0033487Y0244838D01*
X0033549Y0244764D01*
X0033608Y0244687D01*
X0033664Y0244608D01*
X0033717Y0244526D01*
X0033767Y0244443D01*
X0033812Y0244357D01*
X0033855Y0244270D01*
X0033894Y0244181D01*
X0033929Y0244091D01*
X0033960Y0243999D01*
X0033987Y0243906D01*
X0034011Y0243812D01*
X0034031Y0243717D01*
X0034047Y0243621D01*
X0034059Y0243525D01*
X0034067Y0243428D01*
X0034071Y0243331D01*
X0034071Y0243235D01*
X0034067Y0243138D01*
X0034059Y0243041D01*
X0034047Y0242945D01*
X0034031Y0242849D01*
X0034011Y0242754D01*
X0033987Y0242660D01*
X0033960Y0242567D01*
X0033929Y0242475D01*
X0033894Y0242385D01*
X0033855Y0242296D01*
X0033812Y0242209D01*
X0033767Y0242123D01*
X0033717Y0242040D01*
X0033664Y0241958D01*
X0033608Y0241879D01*
X0033549Y0241802D01*
X0033487Y0241728D01*
X0033421Y0241656D01*
X0033353Y0241587D01*
X0033282Y0241521D01*
X0033209Y0241458D01*
X0033132Y0241398D01*
X0033054Y0241341D01*
X0032973Y0241288D01*
X0032890Y0241237D01*
X0032805Y0241191D01*
X0032718Y0241147D01*
X0032630Y0241108D01*
X0032540Y0241072D01*
X0032448Y0241040D01*
X0032355Y0241011D01*
X0032262Y0240987D01*
X0032167Y0240966D01*
X0032071Y0240949D01*
X0031975Y0240936D01*
X0031879Y0240927D01*
X0031782Y0240922D01*
X0031685Y0240921D01*
X0031588Y0240924D01*
X0031491Y0240931D01*
X0031395Y0240942D01*
X0031299Y0240957D01*
X0031204Y0240976D01*
X0031109Y0240998D01*
X0031016Y0241025D01*
X0030924Y0241055D01*
X0030833Y0241089D01*
X0030744Y0241127D01*
X0030656Y0241169D01*
X0030570Y0241214D01*
X0030486Y0241262D01*
X0030404Y0241314D01*
X0030325Y0241369D01*
X0030247Y0241428D01*
X0030172Y0241489D01*
X0030100Y0241554D01*
X0030030Y0241621D01*
X0029963Y0241692D01*
X0029900Y0241765D01*
X0029839Y0241840D01*
X0029781Y0241918D01*
X0029727Y0241999D01*
X0029676Y0242081D01*
X0029628Y0242166D01*
X0029584Y0242252D01*
X0029543Y0242340D01*
X0029507Y0242430D01*
X0029473Y0242521D01*
X0029444Y0242613D01*
X0029418Y0242707D01*
X0029397Y0242801D01*
X0029379Y0242897D01*
X0029365Y0242993D01*
X0029355Y0243089D01*
X0029349Y0243186D01*
X0029347Y0243283D01*
X0029347Y0270685D02*
X0029349Y0270782D01*
X0029355Y0270879D01*
X0029365Y0270975D01*
X0029379Y0271071D01*
X0029397Y0271167D01*
X0029418Y0271261D01*
X0029444Y0271355D01*
X0029473Y0271447D01*
X0029507Y0271538D01*
X0029543Y0271628D01*
X0029584Y0271716D01*
X0029628Y0271802D01*
X0029676Y0271887D01*
X0029727Y0271969D01*
X0029781Y0272050D01*
X0029839Y0272128D01*
X0029900Y0272203D01*
X0029963Y0272276D01*
X0030030Y0272347D01*
X0030100Y0272414D01*
X0030172Y0272479D01*
X0030247Y0272540D01*
X0030325Y0272599D01*
X0030404Y0272654D01*
X0030486Y0272706D01*
X0030570Y0272754D01*
X0030656Y0272799D01*
X0030744Y0272841D01*
X0030833Y0272879D01*
X0030924Y0272913D01*
X0031016Y0272943D01*
X0031109Y0272970D01*
X0031204Y0272992D01*
X0031299Y0273011D01*
X0031395Y0273026D01*
X0031491Y0273037D01*
X0031588Y0273044D01*
X0031685Y0273047D01*
X0031782Y0273046D01*
X0031879Y0273041D01*
X0031975Y0273032D01*
X0032071Y0273019D01*
X0032167Y0273002D01*
X0032262Y0272981D01*
X0032355Y0272957D01*
X0032448Y0272928D01*
X0032540Y0272896D01*
X0032630Y0272860D01*
X0032718Y0272821D01*
X0032805Y0272777D01*
X0032890Y0272731D01*
X0032973Y0272680D01*
X0033054Y0272627D01*
X0033132Y0272570D01*
X0033209Y0272510D01*
X0033282Y0272447D01*
X0033353Y0272381D01*
X0033421Y0272312D01*
X0033487Y0272240D01*
X0033549Y0272166D01*
X0033608Y0272089D01*
X0033664Y0272010D01*
X0033717Y0271928D01*
X0033767Y0271845D01*
X0033812Y0271759D01*
X0033855Y0271672D01*
X0033894Y0271583D01*
X0033929Y0271493D01*
X0033960Y0271401D01*
X0033987Y0271308D01*
X0034011Y0271214D01*
X0034031Y0271119D01*
X0034047Y0271023D01*
X0034059Y0270927D01*
X0034067Y0270830D01*
X0034071Y0270733D01*
X0034071Y0270637D01*
X0034067Y0270540D01*
X0034059Y0270443D01*
X0034047Y0270347D01*
X0034031Y0270251D01*
X0034011Y0270156D01*
X0033987Y0270062D01*
X0033960Y0269969D01*
X0033929Y0269877D01*
X0033894Y0269787D01*
X0033855Y0269698D01*
X0033812Y0269611D01*
X0033767Y0269525D01*
X0033717Y0269442D01*
X0033664Y0269360D01*
X0033608Y0269281D01*
X0033549Y0269204D01*
X0033487Y0269130D01*
X0033421Y0269058D01*
X0033353Y0268989D01*
X0033282Y0268923D01*
X0033209Y0268860D01*
X0033132Y0268800D01*
X0033054Y0268743D01*
X0032973Y0268690D01*
X0032890Y0268639D01*
X0032805Y0268593D01*
X0032718Y0268549D01*
X0032630Y0268510D01*
X0032540Y0268474D01*
X0032448Y0268442D01*
X0032355Y0268413D01*
X0032262Y0268389D01*
X0032167Y0268368D01*
X0032071Y0268351D01*
X0031975Y0268338D01*
X0031879Y0268329D01*
X0031782Y0268324D01*
X0031685Y0268323D01*
X0031588Y0268326D01*
X0031491Y0268333D01*
X0031395Y0268344D01*
X0031299Y0268359D01*
X0031204Y0268378D01*
X0031109Y0268400D01*
X0031016Y0268427D01*
X0030924Y0268457D01*
X0030833Y0268491D01*
X0030744Y0268529D01*
X0030656Y0268571D01*
X0030570Y0268616D01*
X0030486Y0268664D01*
X0030404Y0268716D01*
X0030325Y0268771D01*
X0030247Y0268830D01*
X0030172Y0268891D01*
X0030100Y0268956D01*
X0030030Y0269023D01*
X0029963Y0269094D01*
X0029900Y0269167D01*
X0029839Y0269242D01*
X0029781Y0269320D01*
X0029727Y0269401D01*
X0029676Y0269483D01*
X0029628Y0269568D01*
X0029584Y0269654D01*
X0029543Y0269742D01*
X0029507Y0269832D01*
X0029473Y0269923D01*
X0029444Y0270015D01*
X0029418Y0270109D01*
X0029397Y0270203D01*
X0029379Y0270299D01*
X0029365Y0270395D01*
X0029355Y0270491D01*
X0029349Y0270588D01*
X0029347Y0270685D01*
X0226590Y0207535D02*
X0226592Y0207683D01*
X0226598Y0207831D01*
X0226608Y0207979D01*
X0226622Y0208126D01*
X0226640Y0208273D01*
X0226661Y0208419D01*
X0226687Y0208565D01*
X0226717Y0208710D01*
X0226750Y0208854D01*
X0226788Y0208997D01*
X0226829Y0209139D01*
X0226874Y0209280D01*
X0226922Y0209420D01*
X0226975Y0209559D01*
X0227031Y0209696D01*
X0227091Y0209831D01*
X0227154Y0209965D01*
X0227221Y0210097D01*
X0227292Y0210227D01*
X0227366Y0210355D01*
X0227443Y0210481D01*
X0227524Y0210605D01*
X0227608Y0210727D01*
X0227695Y0210846D01*
X0227786Y0210963D01*
X0227880Y0211078D01*
X0227976Y0211190D01*
X0228076Y0211300D01*
X0228178Y0211406D01*
X0228284Y0211510D01*
X0228392Y0211611D01*
X0228503Y0211709D01*
X0228616Y0211805D01*
X0228732Y0211897D01*
X0228850Y0211986D01*
X0228971Y0212071D01*
X0229094Y0212154D01*
X0229219Y0212233D01*
X0229346Y0212309D01*
X0229475Y0212381D01*
X0229606Y0212450D01*
X0229739Y0212515D01*
X0229874Y0212576D01*
X0230010Y0212634D01*
X0230147Y0212689D01*
X0230286Y0212739D01*
X0230427Y0212786D01*
X0230568Y0212829D01*
X0230711Y0212869D01*
X0230855Y0212904D01*
X0230999Y0212936D01*
X0231145Y0212963D01*
X0231291Y0212987D01*
X0231438Y0213007D01*
X0231585Y0213023D01*
X0231732Y0213035D01*
X0231880Y0213043D01*
X0232028Y0213047D01*
X0232176Y0213047D01*
X0232324Y0213043D01*
X0232472Y0213035D01*
X0232619Y0213023D01*
X0232766Y0213007D01*
X0232913Y0212987D01*
X0233059Y0212963D01*
X0233205Y0212936D01*
X0233349Y0212904D01*
X0233493Y0212869D01*
X0233636Y0212829D01*
X0233777Y0212786D01*
X0233918Y0212739D01*
X0234057Y0212689D01*
X0234194Y0212634D01*
X0234330Y0212576D01*
X0234465Y0212515D01*
X0234598Y0212450D01*
X0234729Y0212381D01*
X0234858Y0212309D01*
X0234985Y0212233D01*
X0235110Y0212154D01*
X0235233Y0212071D01*
X0235354Y0211986D01*
X0235472Y0211897D01*
X0235588Y0211805D01*
X0235701Y0211709D01*
X0235812Y0211611D01*
X0235920Y0211510D01*
X0236026Y0211406D01*
X0236128Y0211300D01*
X0236228Y0211190D01*
X0236324Y0211078D01*
X0236418Y0210963D01*
X0236509Y0210846D01*
X0236596Y0210727D01*
X0236680Y0210605D01*
X0236761Y0210481D01*
X0236838Y0210355D01*
X0236912Y0210227D01*
X0236983Y0210097D01*
X0237050Y0209965D01*
X0237113Y0209831D01*
X0237173Y0209696D01*
X0237229Y0209559D01*
X0237282Y0209420D01*
X0237330Y0209280D01*
X0237375Y0209139D01*
X0237416Y0208997D01*
X0237454Y0208854D01*
X0237487Y0208710D01*
X0237517Y0208565D01*
X0237543Y0208419D01*
X0237564Y0208273D01*
X0237582Y0208126D01*
X0237596Y0207979D01*
X0237606Y0207831D01*
X0237612Y0207683D01*
X0237614Y0207535D01*
X0237612Y0207387D01*
X0237606Y0207239D01*
X0237596Y0207091D01*
X0237582Y0206944D01*
X0237564Y0206797D01*
X0237543Y0206651D01*
X0237517Y0206505D01*
X0237487Y0206360D01*
X0237454Y0206216D01*
X0237416Y0206073D01*
X0237375Y0205931D01*
X0237330Y0205790D01*
X0237282Y0205650D01*
X0237229Y0205511D01*
X0237173Y0205374D01*
X0237113Y0205239D01*
X0237050Y0205105D01*
X0236983Y0204973D01*
X0236912Y0204843D01*
X0236838Y0204715D01*
X0236761Y0204589D01*
X0236680Y0204465D01*
X0236596Y0204343D01*
X0236509Y0204224D01*
X0236418Y0204107D01*
X0236324Y0203992D01*
X0236228Y0203880D01*
X0236128Y0203770D01*
X0236026Y0203664D01*
X0235920Y0203560D01*
X0235812Y0203459D01*
X0235701Y0203361D01*
X0235588Y0203265D01*
X0235472Y0203173D01*
X0235354Y0203084D01*
X0235233Y0202999D01*
X0235110Y0202916D01*
X0234985Y0202837D01*
X0234858Y0202761D01*
X0234729Y0202689D01*
X0234598Y0202620D01*
X0234465Y0202555D01*
X0234330Y0202494D01*
X0234194Y0202436D01*
X0234057Y0202381D01*
X0233918Y0202331D01*
X0233777Y0202284D01*
X0233636Y0202241D01*
X0233493Y0202201D01*
X0233349Y0202166D01*
X0233205Y0202134D01*
X0233059Y0202107D01*
X0232913Y0202083D01*
X0232766Y0202063D01*
X0232619Y0202047D01*
X0232472Y0202035D01*
X0232324Y0202027D01*
X0232176Y0202023D01*
X0232028Y0202023D01*
X0231880Y0202027D01*
X0231732Y0202035D01*
X0231585Y0202047D01*
X0231438Y0202063D01*
X0231291Y0202083D01*
X0231145Y0202107D01*
X0230999Y0202134D01*
X0230855Y0202166D01*
X0230711Y0202201D01*
X0230568Y0202241D01*
X0230427Y0202284D01*
X0230286Y0202331D01*
X0230147Y0202381D01*
X0230010Y0202436D01*
X0229874Y0202494D01*
X0229739Y0202555D01*
X0229606Y0202620D01*
X0229475Y0202689D01*
X0229346Y0202761D01*
X0229219Y0202837D01*
X0229094Y0202916D01*
X0228971Y0202999D01*
X0228850Y0203084D01*
X0228732Y0203173D01*
X0228616Y0203265D01*
X0228503Y0203361D01*
X0228392Y0203459D01*
X0228284Y0203560D01*
X0228178Y0203664D01*
X0228076Y0203770D01*
X0227976Y0203880D01*
X0227880Y0203992D01*
X0227786Y0204107D01*
X0227695Y0204224D01*
X0227608Y0204343D01*
X0227524Y0204465D01*
X0227443Y0204589D01*
X0227366Y0204715D01*
X0227292Y0204843D01*
X0227221Y0204973D01*
X0227154Y0205105D01*
X0227091Y0205239D01*
X0227031Y0205374D01*
X0226975Y0205511D01*
X0226922Y0205650D01*
X0226874Y0205790D01*
X0226829Y0205931D01*
X0226788Y0206073D01*
X0226750Y0206216D01*
X0226717Y0206360D01*
X0226687Y0206505D01*
X0226661Y0206651D01*
X0226640Y0206797D01*
X0226622Y0206944D01*
X0226608Y0207091D01*
X0226598Y0207239D01*
X0226592Y0207387D01*
X0226590Y0207535D01*
X0230133Y0021709D02*
X0230135Y0021821D01*
X0230141Y0021932D01*
X0230151Y0022044D01*
X0230165Y0022155D01*
X0230182Y0022265D01*
X0230204Y0022375D01*
X0230230Y0022484D01*
X0230259Y0022592D01*
X0230292Y0022698D01*
X0230329Y0022804D01*
X0230370Y0022908D01*
X0230415Y0023011D01*
X0230463Y0023112D01*
X0230514Y0023211D01*
X0230569Y0023308D01*
X0230628Y0023403D01*
X0230689Y0023497D01*
X0230754Y0023588D01*
X0230823Y0023676D01*
X0230894Y0023762D01*
X0230968Y0023846D01*
X0231046Y0023926D01*
X0231126Y0024004D01*
X0231209Y0024080D01*
X0231294Y0024152D01*
X0231382Y0024221D01*
X0231472Y0024287D01*
X0231565Y0024349D01*
X0231660Y0024409D01*
X0231757Y0024465D01*
X0231855Y0024517D01*
X0231956Y0024566D01*
X0232058Y0024611D01*
X0232162Y0024653D01*
X0232267Y0024691D01*
X0232374Y0024725D01*
X0232481Y0024755D01*
X0232590Y0024782D01*
X0232699Y0024804D01*
X0232810Y0024823D01*
X0232920Y0024838D01*
X0233032Y0024849D01*
X0233143Y0024856D01*
X0233255Y0024859D01*
X0233367Y0024858D01*
X0233479Y0024853D01*
X0233590Y0024844D01*
X0233701Y0024831D01*
X0233812Y0024814D01*
X0233922Y0024794D01*
X0234031Y0024769D01*
X0234139Y0024741D01*
X0234246Y0024708D01*
X0234352Y0024672D01*
X0234456Y0024632D01*
X0234559Y0024589D01*
X0234661Y0024542D01*
X0234760Y0024491D01*
X0234858Y0024437D01*
X0234954Y0024379D01*
X0235048Y0024318D01*
X0235139Y0024254D01*
X0235228Y0024187D01*
X0235315Y0024116D01*
X0235399Y0024042D01*
X0235481Y0023966D01*
X0235559Y0023886D01*
X0235635Y0023804D01*
X0235708Y0023719D01*
X0235778Y0023632D01*
X0235844Y0023542D01*
X0235908Y0023450D01*
X0235968Y0023356D01*
X0236025Y0023260D01*
X0236078Y0023161D01*
X0236128Y0023061D01*
X0236174Y0022960D01*
X0236217Y0022856D01*
X0236256Y0022751D01*
X0236291Y0022645D01*
X0236322Y0022538D01*
X0236350Y0022429D01*
X0236373Y0022320D01*
X0236393Y0022210D01*
X0236409Y0022099D01*
X0236421Y0021988D01*
X0236429Y0021877D01*
X0236433Y0021765D01*
X0236433Y0021653D01*
X0236429Y0021541D01*
X0236421Y0021430D01*
X0236409Y0021319D01*
X0236393Y0021208D01*
X0236373Y0021098D01*
X0236350Y0020989D01*
X0236322Y0020880D01*
X0236291Y0020773D01*
X0236256Y0020667D01*
X0236217Y0020562D01*
X0236174Y0020458D01*
X0236128Y0020357D01*
X0236078Y0020257D01*
X0236025Y0020158D01*
X0235968Y0020062D01*
X0235908Y0019968D01*
X0235844Y0019876D01*
X0235778Y0019786D01*
X0235708Y0019699D01*
X0235635Y0019614D01*
X0235559Y0019532D01*
X0235481Y0019452D01*
X0235399Y0019376D01*
X0235315Y0019302D01*
X0235228Y0019231D01*
X0235139Y0019164D01*
X0235048Y0019100D01*
X0234954Y0019039D01*
X0234858Y0018981D01*
X0234760Y0018927D01*
X0234661Y0018876D01*
X0234559Y0018829D01*
X0234456Y0018786D01*
X0234352Y0018746D01*
X0234246Y0018710D01*
X0234139Y0018677D01*
X0234031Y0018649D01*
X0233922Y0018624D01*
X0233812Y0018604D01*
X0233701Y0018587D01*
X0233590Y0018574D01*
X0233479Y0018565D01*
X0233367Y0018560D01*
X0233255Y0018559D01*
X0233143Y0018562D01*
X0233032Y0018569D01*
X0232920Y0018580D01*
X0232810Y0018595D01*
X0232699Y0018614D01*
X0232590Y0018636D01*
X0232481Y0018663D01*
X0232374Y0018693D01*
X0232267Y0018727D01*
X0232162Y0018765D01*
X0232058Y0018807D01*
X0231956Y0018852D01*
X0231855Y0018901D01*
X0231757Y0018953D01*
X0231660Y0019009D01*
X0231565Y0019069D01*
X0231472Y0019131D01*
X0231382Y0019197D01*
X0231294Y0019266D01*
X0231209Y0019338D01*
X0231126Y0019414D01*
X0231046Y0019492D01*
X0230968Y0019572D01*
X0230894Y0019656D01*
X0230823Y0019742D01*
X0230754Y0019830D01*
X0230689Y0019921D01*
X0230628Y0020015D01*
X0230569Y0020110D01*
X0230514Y0020207D01*
X0230463Y0020306D01*
X0230415Y0020407D01*
X0230370Y0020510D01*
X0230329Y0020614D01*
X0230292Y0020720D01*
X0230259Y0020826D01*
X0230230Y0020934D01*
X0230204Y0021043D01*
X0230182Y0021153D01*
X0230165Y0021263D01*
X0230151Y0021374D01*
X0230141Y0021486D01*
X0230135Y0021597D01*
X0230133Y0021709D01*
D11*
X0216000Y0158126D02*
X0156000Y0158126D01*
X0156000Y0183687D01*
X0173500Y0179937D02*
X0213500Y0179937D01*
X0213500Y0169937D01*
X0203500Y0169937D01*
X0203500Y0159937D01*
X0173500Y0159937D01*
X0173500Y0179937D01*
X0203500Y0159937D02*
X0213500Y0159937D01*
X0213500Y0169937D01*
X0216000Y0158126D02*
X0216000Y0184937D01*
X0151443Y0223750D02*
X0151443Y0226753D01*
X0149942Y0228254D01*
X0148440Y0226753D01*
X0148440Y0223750D01*
X0146839Y0225251D02*
X0146839Y0228254D01*
X0148440Y0226002D02*
X0151443Y0226002D01*
X0146839Y0225251D02*
X0145338Y0223750D01*
X0143836Y0225251D01*
X0143836Y0228254D01*
X0142235Y0228254D02*
X0142235Y0223750D01*
X0142235Y0225251D02*
X0139983Y0225251D01*
X0139232Y0226002D01*
X0139232Y0227503D01*
X0139983Y0228254D01*
X0142235Y0228254D01*
X0140734Y0225251D02*
X0139232Y0223750D01*
X0137631Y0222999D02*
X0134629Y0222999D01*
X0133027Y0223750D02*
X0131526Y0223750D01*
X0132277Y0223750D02*
X0132277Y0228254D01*
X0133027Y0228254D02*
X0131526Y0228254D01*
X0129958Y0227503D02*
X0129958Y0226753D01*
X0129207Y0226002D01*
X0127706Y0226002D01*
X0126955Y0225251D01*
X0126955Y0224501D01*
X0127706Y0223750D01*
X0129207Y0223750D01*
X0129958Y0224501D01*
X0129958Y0227503D02*
X0129207Y0228254D01*
X0127706Y0228254D01*
X0126955Y0227503D01*
X0125354Y0228254D02*
X0123102Y0228254D01*
X0122351Y0227503D01*
X0122351Y0226002D01*
X0123102Y0225251D01*
X0125354Y0225251D01*
X0125354Y0223750D02*
X0125354Y0228254D01*
X0123500Y0229750D02*
X0133500Y0229750D01*
X0133500Y0233500D01*
X0133500Y0243500D01*
X0143500Y0243500D01*
X0143500Y0253500D01*
X0113500Y0253500D01*
X0113500Y0233500D01*
X0123500Y0233500D01*
X0123500Y0229750D01*
X0133500Y0233500D02*
X0143500Y0233500D01*
X0143500Y0243500D01*
X0147603Y0240754D02*
X0149104Y0239253D01*
X0147603Y0240754D02*
X0147603Y0236250D01*
X0149104Y0236250D02*
X0146102Y0236250D01*
X0080370Y0175354D02*
X0080370Y0136354D01*
X0059370Y0116354D01*
X0050370Y0116354D01*
X0050370Y0096354D01*
X0030370Y0096354D01*
X0030370Y0116354D01*
X0002370Y0116354D01*
X0002370Y0133354D01*
X0014370Y0143354D01*
X0014370Y0168354D01*
X0002370Y0177354D01*
X0002370Y0196354D01*
X0030370Y0196354D01*
X0030370Y0216354D01*
X0050370Y0216354D01*
X0050370Y0196354D01*
X0058370Y0196354D01*
X0080370Y0175354D01*
X0036764Y0207354D02*
X0036766Y0207474D01*
X0036772Y0207594D01*
X0036782Y0207713D01*
X0036796Y0207832D01*
X0036814Y0207951D01*
X0036835Y0208069D01*
X0036861Y0208186D01*
X0036891Y0208302D01*
X0036924Y0208417D01*
X0036961Y0208531D01*
X0037002Y0208643D01*
X0037047Y0208755D01*
X0037096Y0208864D01*
X0037148Y0208972D01*
X0037203Y0209079D01*
X0037262Y0209183D01*
X0037325Y0209285D01*
X0037391Y0209385D01*
X0037460Y0209483D01*
X0037532Y0209579D01*
X0037608Y0209672D01*
X0037686Y0209762D01*
X0037768Y0209850D01*
X0037852Y0209935D01*
X0037939Y0210018D01*
X0038029Y0210097D01*
X0038122Y0210173D01*
X0038217Y0210246D01*
X0038314Y0210316D01*
X0038414Y0210383D01*
X0038515Y0210446D01*
X0038619Y0210506D01*
X0038725Y0210563D01*
X0038832Y0210616D01*
X0038942Y0210665D01*
X0039053Y0210711D01*
X0039165Y0210753D01*
X0039279Y0210791D01*
X0039393Y0210825D01*
X0039509Y0210856D01*
X0039626Y0210882D01*
X0039744Y0210905D01*
X0039862Y0210924D01*
X0039981Y0210939D01*
X0040101Y0210950D01*
X0040220Y0210957D01*
X0040340Y0210960D01*
X0040460Y0210959D01*
X0040580Y0210954D01*
X0040699Y0210945D01*
X0040818Y0210932D01*
X0040937Y0210915D01*
X0041055Y0210894D01*
X0041172Y0210870D01*
X0041289Y0210841D01*
X0041404Y0210809D01*
X0041518Y0210772D01*
X0041631Y0210732D01*
X0041743Y0210688D01*
X0041853Y0210641D01*
X0041962Y0210590D01*
X0042068Y0210535D01*
X0042173Y0210477D01*
X0042276Y0210415D01*
X0042377Y0210350D01*
X0042475Y0210282D01*
X0042571Y0210210D01*
X0042665Y0210136D01*
X0042756Y0210058D01*
X0042845Y0209977D01*
X0042930Y0209893D01*
X0043013Y0209807D01*
X0043093Y0209717D01*
X0043171Y0209626D01*
X0043244Y0209531D01*
X0043315Y0209435D01*
X0043383Y0209336D01*
X0043447Y0209234D01*
X0043508Y0209131D01*
X0043565Y0209026D01*
X0043619Y0208919D01*
X0043669Y0208810D01*
X0043716Y0208699D01*
X0043759Y0208587D01*
X0043798Y0208474D01*
X0043833Y0208359D01*
X0043864Y0208244D01*
X0043892Y0208127D01*
X0043916Y0208010D01*
X0043936Y0207891D01*
X0043952Y0207773D01*
X0043964Y0207653D01*
X0043972Y0207534D01*
X0043976Y0207414D01*
X0043976Y0207294D01*
X0043972Y0207174D01*
X0043964Y0207055D01*
X0043952Y0206935D01*
X0043936Y0206817D01*
X0043916Y0206698D01*
X0043892Y0206581D01*
X0043864Y0206464D01*
X0043833Y0206349D01*
X0043798Y0206234D01*
X0043759Y0206121D01*
X0043716Y0206009D01*
X0043669Y0205898D01*
X0043619Y0205789D01*
X0043565Y0205682D01*
X0043508Y0205577D01*
X0043447Y0205474D01*
X0043383Y0205372D01*
X0043315Y0205273D01*
X0043244Y0205177D01*
X0043171Y0205082D01*
X0043093Y0204991D01*
X0043013Y0204901D01*
X0042930Y0204815D01*
X0042845Y0204731D01*
X0042756Y0204650D01*
X0042665Y0204572D01*
X0042571Y0204498D01*
X0042475Y0204426D01*
X0042377Y0204358D01*
X0042276Y0204293D01*
X0042173Y0204231D01*
X0042068Y0204173D01*
X0041962Y0204118D01*
X0041853Y0204067D01*
X0041743Y0204020D01*
X0041631Y0203976D01*
X0041518Y0203936D01*
X0041404Y0203899D01*
X0041289Y0203867D01*
X0041172Y0203838D01*
X0041055Y0203814D01*
X0040937Y0203793D01*
X0040818Y0203776D01*
X0040699Y0203763D01*
X0040580Y0203754D01*
X0040460Y0203749D01*
X0040340Y0203748D01*
X0040220Y0203751D01*
X0040101Y0203758D01*
X0039981Y0203769D01*
X0039862Y0203784D01*
X0039744Y0203803D01*
X0039626Y0203826D01*
X0039509Y0203852D01*
X0039393Y0203883D01*
X0039279Y0203917D01*
X0039165Y0203955D01*
X0039053Y0203997D01*
X0038942Y0204043D01*
X0038832Y0204092D01*
X0038725Y0204145D01*
X0038619Y0204202D01*
X0038515Y0204262D01*
X0038414Y0204325D01*
X0038314Y0204392D01*
X0038217Y0204462D01*
X0038122Y0204535D01*
X0038029Y0204611D01*
X0037939Y0204690D01*
X0037852Y0204773D01*
X0037768Y0204858D01*
X0037686Y0204946D01*
X0037608Y0205036D01*
X0037532Y0205129D01*
X0037460Y0205225D01*
X0037391Y0205323D01*
X0037325Y0205423D01*
X0037262Y0205525D01*
X0037203Y0205629D01*
X0037148Y0205736D01*
X0037096Y0205844D01*
X0037047Y0205953D01*
X0037002Y0206065D01*
X0036961Y0206177D01*
X0036924Y0206291D01*
X0036891Y0206406D01*
X0036861Y0206522D01*
X0036835Y0206639D01*
X0036814Y0206757D01*
X0036796Y0206876D01*
X0036782Y0206995D01*
X0036772Y0207114D01*
X0036766Y0207234D01*
X0036764Y0207354D01*
X0023549Y0188272D02*
X0024566Y0187254D01*
X0024566Y0185219D01*
X0023549Y0184202D01*
X0023549Y0182195D02*
X0022531Y0182195D01*
X0021514Y0181177D01*
X0020496Y0182195D01*
X0019479Y0182195D01*
X0018461Y0181177D01*
X0018461Y0179142D01*
X0019479Y0178124D01*
X0019479Y0176117D02*
X0018461Y0175100D01*
X0018461Y0173065D01*
X0019479Y0172047D01*
X0023549Y0176117D01*
X0019479Y0176117D01*
X0019479Y0172047D02*
X0023549Y0172047D01*
X0024566Y0173065D01*
X0024566Y0175100D01*
X0023549Y0176117D01*
X0023549Y0178124D02*
X0024566Y0179142D01*
X0024566Y0181177D01*
X0023549Y0182195D01*
X0021514Y0181177D02*
X0021514Y0180160D01*
X0018461Y0184202D02*
X0022531Y0188272D01*
X0023549Y0188272D01*
X0018461Y0188272D02*
X0018461Y0184202D01*
X0018461Y0170040D02*
X0018461Y0165970D01*
X0022531Y0170040D01*
X0023549Y0170040D01*
X0024566Y0169023D01*
X0024566Y0166988D01*
X0023549Y0165970D01*
X0023549Y0163963D02*
X0021514Y0163963D01*
X0020496Y0162946D01*
X0020496Y0159893D01*
X0020496Y0161928D02*
X0018461Y0163963D01*
X0018461Y0159893D02*
X0024566Y0159893D01*
X0024566Y0162946D01*
X0023549Y0163963D01*
X0023549Y0157886D02*
X0024566Y0156868D01*
X0024566Y0154833D01*
X0023549Y0153816D01*
X0019479Y0153816D01*
X0018461Y0154833D01*
X0018461Y0156868D01*
X0019479Y0157886D01*
X0017443Y0151809D02*
X0017443Y0147739D01*
X0018461Y0143696D02*
X0024566Y0143696D01*
X0024566Y0141661D02*
X0024566Y0145731D01*
X0024566Y0139654D02*
X0024566Y0135584D01*
X0024566Y0137619D02*
X0018461Y0137619D01*
X0018461Y0133577D02*
X0022531Y0133577D01*
X0024566Y0131542D01*
X0022531Y0129507D01*
X0018461Y0129507D01*
X0019479Y0127500D02*
X0018461Y0126482D01*
X0018461Y0123430D01*
X0024566Y0123430D01*
X0024566Y0126482D01*
X0023549Y0127500D01*
X0022531Y0127500D01*
X0021514Y0126482D01*
X0021514Y0123430D01*
X0021514Y0126482D02*
X0020496Y0127500D01*
X0019479Y0127500D01*
X0021514Y0129507D02*
X0021514Y0133577D01*
X0035764Y0106354D02*
X0035766Y0106474D01*
X0035772Y0106594D01*
X0035782Y0106713D01*
X0035796Y0106832D01*
X0035814Y0106951D01*
X0035835Y0107069D01*
X0035861Y0107186D01*
X0035891Y0107302D01*
X0035924Y0107417D01*
X0035961Y0107531D01*
X0036002Y0107643D01*
X0036047Y0107755D01*
X0036096Y0107864D01*
X0036148Y0107972D01*
X0036203Y0108079D01*
X0036262Y0108183D01*
X0036325Y0108285D01*
X0036391Y0108385D01*
X0036460Y0108483D01*
X0036532Y0108579D01*
X0036608Y0108672D01*
X0036686Y0108762D01*
X0036768Y0108850D01*
X0036852Y0108935D01*
X0036939Y0109018D01*
X0037029Y0109097D01*
X0037122Y0109173D01*
X0037217Y0109246D01*
X0037314Y0109316D01*
X0037414Y0109383D01*
X0037515Y0109446D01*
X0037619Y0109506D01*
X0037725Y0109563D01*
X0037832Y0109616D01*
X0037942Y0109665D01*
X0038053Y0109711D01*
X0038165Y0109753D01*
X0038279Y0109791D01*
X0038393Y0109825D01*
X0038509Y0109856D01*
X0038626Y0109882D01*
X0038744Y0109905D01*
X0038862Y0109924D01*
X0038981Y0109939D01*
X0039101Y0109950D01*
X0039220Y0109957D01*
X0039340Y0109960D01*
X0039460Y0109959D01*
X0039580Y0109954D01*
X0039699Y0109945D01*
X0039818Y0109932D01*
X0039937Y0109915D01*
X0040055Y0109894D01*
X0040172Y0109870D01*
X0040289Y0109841D01*
X0040404Y0109809D01*
X0040518Y0109772D01*
X0040631Y0109732D01*
X0040743Y0109688D01*
X0040853Y0109641D01*
X0040962Y0109590D01*
X0041068Y0109535D01*
X0041173Y0109477D01*
X0041276Y0109415D01*
X0041377Y0109350D01*
X0041475Y0109282D01*
X0041571Y0109210D01*
X0041665Y0109136D01*
X0041756Y0109058D01*
X0041845Y0108977D01*
X0041930Y0108893D01*
X0042013Y0108807D01*
X0042093Y0108717D01*
X0042171Y0108626D01*
X0042244Y0108531D01*
X0042315Y0108435D01*
X0042383Y0108336D01*
X0042447Y0108234D01*
X0042508Y0108131D01*
X0042565Y0108026D01*
X0042619Y0107919D01*
X0042669Y0107810D01*
X0042716Y0107699D01*
X0042759Y0107587D01*
X0042798Y0107474D01*
X0042833Y0107359D01*
X0042864Y0107244D01*
X0042892Y0107127D01*
X0042916Y0107010D01*
X0042936Y0106891D01*
X0042952Y0106773D01*
X0042964Y0106653D01*
X0042972Y0106534D01*
X0042976Y0106414D01*
X0042976Y0106294D01*
X0042972Y0106174D01*
X0042964Y0106055D01*
X0042952Y0105935D01*
X0042936Y0105817D01*
X0042916Y0105698D01*
X0042892Y0105581D01*
X0042864Y0105464D01*
X0042833Y0105349D01*
X0042798Y0105234D01*
X0042759Y0105121D01*
X0042716Y0105009D01*
X0042669Y0104898D01*
X0042619Y0104789D01*
X0042565Y0104682D01*
X0042508Y0104577D01*
X0042447Y0104474D01*
X0042383Y0104372D01*
X0042315Y0104273D01*
X0042244Y0104177D01*
X0042171Y0104082D01*
X0042093Y0103991D01*
X0042013Y0103901D01*
X0041930Y0103815D01*
X0041845Y0103731D01*
X0041756Y0103650D01*
X0041665Y0103572D01*
X0041571Y0103498D01*
X0041475Y0103426D01*
X0041377Y0103358D01*
X0041276Y0103293D01*
X0041173Y0103231D01*
X0041068Y0103173D01*
X0040962Y0103118D01*
X0040853Y0103067D01*
X0040743Y0103020D01*
X0040631Y0102976D01*
X0040518Y0102936D01*
X0040404Y0102899D01*
X0040289Y0102867D01*
X0040172Y0102838D01*
X0040055Y0102814D01*
X0039937Y0102793D01*
X0039818Y0102776D01*
X0039699Y0102763D01*
X0039580Y0102754D01*
X0039460Y0102749D01*
X0039340Y0102748D01*
X0039220Y0102751D01*
X0039101Y0102758D01*
X0038981Y0102769D01*
X0038862Y0102784D01*
X0038744Y0102803D01*
X0038626Y0102826D01*
X0038509Y0102852D01*
X0038393Y0102883D01*
X0038279Y0102917D01*
X0038165Y0102955D01*
X0038053Y0102997D01*
X0037942Y0103043D01*
X0037832Y0103092D01*
X0037725Y0103145D01*
X0037619Y0103202D01*
X0037515Y0103262D01*
X0037414Y0103325D01*
X0037314Y0103392D01*
X0037217Y0103462D01*
X0037122Y0103535D01*
X0037029Y0103611D01*
X0036939Y0103690D01*
X0036852Y0103773D01*
X0036768Y0103858D01*
X0036686Y0103946D01*
X0036608Y0104036D01*
X0036532Y0104129D01*
X0036460Y0104225D01*
X0036391Y0104323D01*
X0036325Y0104423D01*
X0036262Y0104525D01*
X0036203Y0104629D01*
X0036148Y0104736D01*
X0036096Y0104844D01*
X0036047Y0104953D01*
X0036002Y0105065D01*
X0035961Y0105177D01*
X0035924Y0105291D01*
X0035891Y0105406D01*
X0035861Y0105522D01*
X0035835Y0105639D01*
X0035814Y0105757D01*
X0035796Y0105876D01*
X0035782Y0105995D01*
X0035772Y0106114D01*
X0035766Y0106234D01*
X0035764Y0106354D01*
D12*
X0174165Y0155504D02*
X0174165Y0157372D01*
X0174633Y0157839D01*
X0175567Y0157839D01*
X0176034Y0157372D01*
X0176034Y0155504D01*
X0175567Y0155037D01*
X0174633Y0155037D01*
X0174165Y0155504D01*
X0176928Y0155504D02*
X0177395Y0155037D01*
X0178329Y0155037D01*
X0178796Y0155504D01*
X0179704Y0155037D02*
X0180638Y0155037D01*
X0180171Y0155037D02*
X0180171Y0157839D01*
X0180638Y0157839D02*
X0179704Y0157839D01*
X0178796Y0157372D02*
X0178796Y0156905D01*
X0178329Y0156438D01*
X0177395Y0156438D01*
X0176928Y0155971D01*
X0176928Y0155504D01*
X0176928Y0157372D02*
X0177395Y0157839D01*
X0178329Y0157839D01*
X0178796Y0157372D01*
X0181532Y0157839D02*
X0181532Y0155037D01*
X0183400Y0155037D02*
X0183400Y0157839D01*
X0182466Y0156905D01*
X0181532Y0157839D01*
X0186007Y0157839D02*
X0187875Y0155971D01*
X0187408Y0156438D02*
X0186007Y0155037D01*
X0187875Y0155037D02*
X0187875Y0157839D01*
X0188769Y0157372D02*
X0189236Y0157839D01*
X0190171Y0157839D01*
X0190638Y0157372D01*
X0190638Y0155504D01*
X0190171Y0155037D01*
X0189236Y0155037D01*
X0188769Y0155504D01*
X0191532Y0155504D02*
X0191999Y0155037D01*
X0192933Y0155037D01*
X0193400Y0155504D01*
X0192933Y0156438D02*
X0191999Y0156438D01*
X0191532Y0155971D01*
X0191532Y0155504D01*
X0192933Y0156438D02*
X0193400Y0156905D01*
X0193400Y0157372D01*
X0192933Y0157839D01*
X0191999Y0157839D01*
X0191532Y0157372D01*
X0196269Y0157839D02*
X0198138Y0157839D01*
X0198138Y0155037D01*
X0196269Y0155037D01*
X0197204Y0156438D02*
X0198138Y0156438D01*
X0199032Y0155504D02*
X0199499Y0155037D01*
X0200433Y0155037D01*
X0200900Y0155504D01*
X0200900Y0157372D01*
X0200433Y0157839D01*
X0199499Y0157839D01*
X0199032Y0157372D01*
X0206007Y0157372D02*
X0206007Y0155504D01*
X0206474Y0155037D01*
X0207875Y0155037D01*
X0207875Y0157839D01*
X0206474Y0157839D01*
X0206007Y0157372D01*
X0208769Y0157839D02*
X0208769Y0155037D01*
X0210638Y0157839D01*
X0210638Y0155037D01*
X0211532Y0155504D02*
X0211532Y0156438D01*
X0212466Y0156438D01*
X0213400Y0155504D02*
X0212933Y0155037D01*
X0211999Y0155037D01*
X0211532Y0155504D01*
X0213400Y0155504D02*
X0213400Y0157372D01*
X0212933Y0157839D01*
X0211999Y0157839D01*
X0211532Y0157372D01*
X0211421Y0181287D02*
X0211888Y0181287D01*
X0211888Y0181754D01*
X0211421Y0181754D01*
X0211421Y0181287D01*
X0210506Y0181754D02*
X0210039Y0181287D01*
X0209105Y0181287D01*
X0208638Y0181754D01*
X0208638Y0182221D01*
X0209105Y0182688D01*
X0209572Y0182688D01*
X0209105Y0182688D02*
X0208638Y0183155D01*
X0208638Y0183622D01*
X0209105Y0184089D01*
X0210039Y0184089D01*
X0210506Y0183622D01*
X0212782Y0183622D02*
X0212782Y0183155D01*
X0213249Y0182688D01*
X0212782Y0182221D01*
X0212782Y0181754D01*
X0213249Y0181287D01*
X0214183Y0181287D01*
X0214650Y0181754D01*
X0213716Y0182688D02*
X0213249Y0182688D01*
X0212782Y0183622D02*
X0213249Y0184089D01*
X0214183Y0184089D01*
X0214650Y0183622D01*
X0207744Y0184089D02*
X0207744Y0182221D01*
X0206810Y0181287D01*
X0205876Y0182221D01*
X0205876Y0184089D01*
X0203400Y0183622D02*
X0203400Y0181754D01*
X0202933Y0181287D01*
X0201999Y0181287D01*
X0201532Y0181754D01*
X0200638Y0181754D02*
X0200171Y0181287D01*
X0199236Y0181287D01*
X0198769Y0181754D01*
X0198769Y0182221D01*
X0199236Y0182688D01*
X0200171Y0182688D01*
X0200638Y0183155D01*
X0200638Y0183622D01*
X0200171Y0184089D01*
X0199236Y0184089D01*
X0198769Y0183622D01*
X0197875Y0184089D02*
X0196007Y0181287D01*
X0196007Y0184089D01*
X0197875Y0184089D02*
X0197875Y0181287D01*
X0201532Y0183622D02*
X0201999Y0184089D01*
X0202933Y0184089D01*
X0203400Y0183622D01*
X0192775Y0184089D02*
X0192775Y0181287D01*
X0190907Y0181287D02*
X0190907Y0184089D01*
X0191841Y0183155D01*
X0192775Y0184089D01*
X0190013Y0183622D02*
X0190013Y0181754D01*
X0189546Y0181287D01*
X0188612Y0181287D01*
X0188145Y0181754D01*
X0188145Y0183622D01*
X0188612Y0184089D01*
X0189546Y0184089D01*
X0190013Y0183622D01*
X0187250Y0183622D02*
X0187250Y0183155D01*
X0186783Y0182688D01*
X0185849Y0182688D01*
X0185382Y0182221D01*
X0185382Y0181754D01*
X0185849Y0181287D01*
X0186783Y0181287D01*
X0187250Y0181754D01*
X0187250Y0183622D02*
X0186783Y0184089D01*
X0185849Y0184089D01*
X0185382Y0183622D01*
X0184488Y0184089D02*
X0183554Y0184089D01*
X0184021Y0184089D02*
X0184021Y0181287D01*
X0184488Y0181287D02*
X0183554Y0181287D01*
X0180900Y0181287D02*
X0179966Y0181287D01*
X0180433Y0181287D02*
X0180433Y0184089D01*
X0180900Y0184089D02*
X0179966Y0184089D01*
X0179058Y0184089D02*
X0177657Y0184089D01*
X0177190Y0183622D01*
X0177190Y0182688D01*
X0177657Y0182221D01*
X0179058Y0182221D01*
X0178124Y0182221D02*
X0177190Y0181287D01*
X0176296Y0181754D02*
X0175829Y0181287D01*
X0174895Y0181287D01*
X0174428Y0181754D01*
X0174428Y0183622D01*
X0174895Y0184089D01*
X0175829Y0184089D01*
X0176296Y0183622D01*
X0176296Y0181754D01*
X0175362Y0182221D02*
X0174428Y0181287D01*
X0179058Y0181287D02*
X0179058Y0184089D01*
D13*
X0045094Y0239150D02*
X0045094Y0259425D01*
X0039976Y0233835D02*
X0023441Y0233835D01*
X0018323Y0239346D02*
X0018323Y0259425D01*
D14*
X0049436Y0258835D02*
X0049436Y0260370D01*
X0050204Y0261137D01*
X0050971Y0262672D02*
X0054040Y0265741D01*
X0054040Y0262672D02*
X0049436Y0262672D01*
X0051738Y0263439D02*
X0049436Y0265741D01*
X0053273Y0261137D02*
X0054040Y0260370D01*
X0054040Y0258835D01*
X0053273Y0258068D01*
X0050204Y0258068D01*
X0049436Y0258835D01*
X0049436Y0256533D02*
X0052505Y0256533D01*
X0054040Y0254998D01*
X0052505Y0253464D01*
X0049436Y0253464D01*
X0051738Y0253464D02*
X0051738Y0256533D01*
X0054040Y0251929D02*
X0054040Y0250394D01*
X0054040Y0251162D02*
X0050204Y0251162D01*
X0049436Y0250394D01*
X0049436Y0249627D01*
X0050204Y0248860D01*
X0048669Y0247325D02*
X0048669Y0244256D01*
X0050204Y0242721D02*
X0049436Y0241954D01*
X0049436Y0240419D01*
X0050204Y0239652D01*
X0053273Y0239652D01*
X0054040Y0240419D01*
X0054040Y0241954D01*
X0053273Y0242721D01*
X0051738Y0242721D02*
X0051738Y0241187D01*
X0051738Y0242721D02*
X0050204Y0242721D01*
X0050204Y0238117D02*
X0049436Y0237350D01*
X0049436Y0235048D01*
X0054040Y0235048D01*
X0054040Y0237350D01*
X0053273Y0238117D01*
X0052505Y0238117D01*
X0051738Y0237350D01*
X0051738Y0235048D01*
X0050204Y0233513D02*
X0049436Y0232746D01*
X0049436Y0230444D01*
X0054040Y0230444D01*
X0054040Y0232746D01*
X0053273Y0233513D01*
X0050204Y0233513D01*
X0051738Y0237350D02*
X0050971Y0238117D01*
X0050204Y0238117D01*
M02*
