G75*
%MOIN*%
%OFA0B0*%
%FSLAX25Y25*%
%IPPOS*%
%LPD*%
%AMOC8*
5,1,8,0,0,1.08239X$1,22.5*
%
%ADD10C,0.00000*%
%ADD11C,0.06699*%
%ADD12C,0.11424*%
%ADD13C,0.07000*%
%ADD14OC8,0.07000*%
%ADD15R,0.07000X0.07000*%
%ADD16C,0.06337*%
%ADD17C,0.05124*%
%ADD18R,0.16400X0.16400*%
%ADD19R,0.20400X0.20400*%
%ADD20C,0.00500*%
D10*
X0001000Y0001000D02*
X0001000Y0278402D01*
X0060557Y0278402D01*
X0060557Y0258096D01*
X0153559Y0258096D01*
X0153559Y0187850D01*
X0222270Y0187850D01*
X0222270Y0217250D01*
X0249031Y0217250D01*
X0249031Y0001000D01*
X0001000Y0001000D01*
X0013598Y0021709D02*
X0013600Y0021821D01*
X0013606Y0021932D01*
X0013616Y0022044D01*
X0013630Y0022155D01*
X0013647Y0022265D01*
X0013669Y0022375D01*
X0013695Y0022484D01*
X0013724Y0022592D01*
X0013757Y0022698D01*
X0013794Y0022804D01*
X0013835Y0022908D01*
X0013880Y0023011D01*
X0013928Y0023112D01*
X0013979Y0023211D01*
X0014034Y0023308D01*
X0014093Y0023403D01*
X0014154Y0023497D01*
X0014219Y0023588D01*
X0014288Y0023676D01*
X0014359Y0023762D01*
X0014433Y0023846D01*
X0014511Y0023926D01*
X0014591Y0024004D01*
X0014674Y0024080D01*
X0014759Y0024152D01*
X0014847Y0024221D01*
X0014937Y0024287D01*
X0015030Y0024349D01*
X0015125Y0024409D01*
X0015222Y0024465D01*
X0015320Y0024517D01*
X0015421Y0024566D01*
X0015523Y0024611D01*
X0015627Y0024653D01*
X0015732Y0024691D01*
X0015839Y0024725D01*
X0015946Y0024755D01*
X0016055Y0024782D01*
X0016164Y0024804D01*
X0016275Y0024823D01*
X0016385Y0024838D01*
X0016497Y0024849D01*
X0016608Y0024856D01*
X0016720Y0024859D01*
X0016832Y0024858D01*
X0016944Y0024853D01*
X0017055Y0024844D01*
X0017166Y0024831D01*
X0017277Y0024814D01*
X0017387Y0024794D01*
X0017496Y0024769D01*
X0017604Y0024741D01*
X0017711Y0024708D01*
X0017817Y0024672D01*
X0017921Y0024632D01*
X0018024Y0024589D01*
X0018126Y0024542D01*
X0018225Y0024491D01*
X0018323Y0024437D01*
X0018419Y0024379D01*
X0018513Y0024318D01*
X0018604Y0024254D01*
X0018693Y0024187D01*
X0018780Y0024116D01*
X0018864Y0024042D01*
X0018946Y0023966D01*
X0019024Y0023886D01*
X0019100Y0023804D01*
X0019173Y0023719D01*
X0019243Y0023632D01*
X0019309Y0023542D01*
X0019373Y0023450D01*
X0019433Y0023356D01*
X0019490Y0023260D01*
X0019543Y0023161D01*
X0019593Y0023061D01*
X0019639Y0022960D01*
X0019682Y0022856D01*
X0019721Y0022751D01*
X0019756Y0022645D01*
X0019787Y0022538D01*
X0019815Y0022429D01*
X0019838Y0022320D01*
X0019858Y0022210D01*
X0019874Y0022099D01*
X0019886Y0021988D01*
X0019894Y0021877D01*
X0019898Y0021765D01*
X0019898Y0021653D01*
X0019894Y0021541D01*
X0019886Y0021430D01*
X0019874Y0021319D01*
X0019858Y0021208D01*
X0019838Y0021098D01*
X0019815Y0020989D01*
X0019787Y0020880D01*
X0019756Y0020773D01*
X0019721Y0020667D01*
X0019682Y0020562D01*
X0019639Y0020458D01*
X0019593Y0020357D01*
X0019543Y0020257D01*
X0019490Y0020158D01*
X0019433Y0020062D01*
X0019373Y0019968D01*
X0019309Y0019876D01*
X0019243Y0019786D01*
X0019173Y0019699D01*
X0019100Y0019614D01*
X0019024Y0019532D01*
X0018946Y0019452D01*
X0018864Y0019376D01*
X0018780Y0019302D01*
X0018693Y0019231D01*
X0018604Y0019164D01*
X0018513Y0019100D01*
X0018419Y0019039D01*
X0018323Y0018981D01*
X0018225Y0018927D01*
X0018126Y0018876D01*
X0018024Y0018829D01*
X0017921Y0018786D01*
X0017817Y0018746D01*
X0017711Y0018710D01*
X0017604Y0018677D01*
X0017496Y0018649D01*
X0017387Y0018624D01*
X0017277Y0018604D01*
X0017166Y0018587D01*
X0017055Y0018574D01*
X0016944Y0018565D01*
X0016832Y0018560D01*
X0016720Y0018559D01*
X0016608Y0018562D01*
X0016497Y0018569D01*
X0016385Y0018580D01*
X0016275Y0018595D01*
X0016164Y0018614D01*
X0016055Y0018636D01*
X0015946Y0018663D01*
X0015839Y0018693D01*
X0015732Y0018727D01*
X0015627Y0018765D01*
X0015523Y0018807D01*
X0015421Y0018852D01*
X0015320Y0018901D01*
X0015222Y0018953D01*
X0015125Y0019009D01*
X0015030Y0019069D01*
X0014937Y0019131D01*
X0014847Y0019197D01*
X0014759Y0019266D01*
X0014674Y0019338D01*
X0014591Y0019414D01*
X0014511Y0019492D01*
X0014433Y0019572D01*
X0014359Y0019656D01*
X0014288Y0019742D01*
X0014219Y0019830D01*
X0014154Y0019921D01*
X0014093Y0020015D01*
X0014034Y0020110D01*
X0013979Y0020207D01*
X0013928Y0020306D01*
X0013880Y0020407D01*
X0013835Y0020510D01*
X0013794Y0020614D01*
X0013757Y0020720D01*
X0013724Y0020826D01*
X0013695Y0020934D01*
X0013669Y0021043D01*
X0013647Y0021153D01*
X0013630Y0021263D01*
X0013616Y0021374D01*
X0013606Y0021486D01*
X0013600Y0021597D01*
X0013598Y0021709D01*
X0011236Y0207535D02*
X0011238Y0207683D01*
X0011244Y0207831D01*
X0011254Y0207979D01*
X0011268Y0208126D01*
X0011286Y0208273D01*
X0011307Y0208419D01*
X0011333Y0208565D01*
X0011363Y0208710D01*
X0011396Y0208854D01*
X0011434Y0208997D01*
X0011475Y0209139D01*
X0011520Y0209280D01*
X0011568Y0209420D01*
X0011621Y0209559D01*
X0011677Y0209696D01*
X0011737Y0209831D01*
X0011800Y0209965D01*
X0011867Y0210097D01*
X0011938Y0210227D01*
X0012012Y0210355D01*
X0012089Y0210481D01*
X0012170Y0210605D01*
X0012254Y0210727D01*
X0012341Y0210846D01*
X0012432Y0210963D01*
X0012526Y0211078D01*
X0012622Y0211190D01*
X0012722Y0211300D01*
X0012824Y0211406D01*
X0012930Y0211510D01*
X0013038Y0211611D01*
X0013149Y0211709D01*
X0013262Y0211805D01*
X0013378Y0211897D01*
X0013496Y0211986D01*
X0013617Y0212071D01*
X0013740Y0212154D01*
X0013865Y0212233D01*
X0013992Y0212309D01*
X0014121Y0212381D01*
X0014252Y0212450D01*
X0014385Y0212515D01*
X0014520Y0212576D01*
X0014656Y0212634D01*
X0014793Y0212689D01*
X0014932Y0212739D01*
X0015073Y0212786D01*
X0015214Y0212829D01*
X0015357Y0212869D01*
X0015501Y0212904D01*
X0015645Y0212936D01*
X0015791Y0212963D01*
X0015937Y0212987D01*
X0016084Y0213007D01*
X0016231Y0213023D01*
X0016378Y0213035D01*
X0016526Y0213043D01*
X0016674Y0213047D01*
X0016822Y0213047D01*
X0016970Y0213043D01*
X0017118Y0213035D01*
X0017265Y0213023D01*
X0017412Y0213007D01*
X0017559Y0212987D01*
X0017705Y0212963D01*
X0017851Y0212936D01*
X0017995Y0212904D01*
X0018139Y0212869D01*
X0018282Y0212829D01*
X0018423Y0212786D01*
X0018564Y0212739D01*
X0018703Y0212689D01*
X0018840Y0212634D01*
X0018976Y0212576D01*
X0019111Y0212515D01*
X0019244Y0212450D01*
X0019375Y0212381D01*
X0019504Y0212309D01*
X0019631Y0212233D01*
X0019756Y0212154D01*
X0019879Y0212071D01*
X0020000Y0211986D01*
X0020118Y0211897D01*
X0020234Y0211805D01*
X0020347Y0211709D01*
X0020458Y0211611D01*
X0020566Y0211510D01*
X0020672Y0211406D01*
X0020774Y0211300D01*
X0020874Y0211190D01*
X0020970Y0211078D01*
X0021064Y0210963D01*
X0021155Y0210846D01*
X0021242Y0210727D01*
X0021326Y0210605D01*
X0021407Y0210481D01*
X0021484Y0210355D01*
X0021558Y0210227D01*
X0021629Y0210097D01*
X0021696Y0209965D01*
X0021759Y0209831D01*
X0021819Y0209696D01*
X0021875Y0209559D01*
X0021928Y0209420D01*
X0021976Y0209280D01*
X0022021Y0209139D01*
X0022062Y0208997D01*
X0022100Y0208854D01*
X0022133Y0208710D01*
X0022163Y0208565D01*
X0022189Y0208419D01*
X0022210Y0208273D01*
X0022228Y0208126D01*
X0022242Y0207979D01*
X0022252Y0207831D01*
X0022258Y0207683D01*
X0022260Y0207535D01*
X0022258Y0207387D01*
X0022252Y0207239D01*
X0022242Y0207091D01*
X0022228Y0206944D01*
X0022210Y0206797D01*
X0022189Y0206651D01*
X0022163Y0206505D01*
X0022133Y0206360D01*
X0022100Y0206216D01*
X0022062Y0206073D01*
X0022021Y0205931D01*
X0021976Y0205790D01*
X0021928Y0205650D01*
X0021875Y0205511D01*
X0021819Y0205374D01*
X0021759Y0205239D01*
X0021696Y0205105D01*
X0021629Y0204973D01*
X0021558Y0204843D01*
X0021484Y0204715D01*
X0021407Y0204589D01*
X0021326Y0204465D01*
X0021242Y0204343D01*
X0021155Y0204224D01*
X0021064Y0204107D01*
X0020970Y0203992D01*
X0020874Y0203880D01*
X0020774Y0203770D01*
X0020672Y0203664D01*
X0020566Y0203560D01*
X0020458Y0203459D01*
X0020347Y0203361D01*
X0020234Y0203265D01*
X0020118Y0203173D01*
X0020000Y0203084D01*
X0019879Y0202999D01*
X0019756Y0202916D01*
X0019631Y0202837D01*
X0019504Y0202761D01*
X0019375Y0202689D01*
X0019244Y0202620D01*
X0019111Y0202555D01*
X0018976Y0202494D01*
X0018840Y0202436D01*
X0018703Y0202381D01*
X0018564Y0202331D01*
X0018423Y0202284D01*
X0018282Y0202241D01*
X0018139Y0202201D01*
X0017995Y0202166D01*
X0017851Y0202134D01*
X0017705Y0202107D01*
X0017559Y0202083D01*
X0017412Y0202063D01*
X0017265Y0202047D01*
X0017118Y0202035D01*
X0016970Y0202027D01*
X0016822Y0202023D01*
X0016674Y0202023D01*
X0016526Y0202027D01*
X0016378Y0202035D01*
X0016231Y0202047D01*
X0016084Y0202063D01*
X0015937Y0202083D01*
X0015791Y0202107D01*
X0015645Y0202134D01*
X0015501Y0202166D01*
X0015357Y0202201D01*
X0015214Y0202241D01*
X0015073Y0202284D01*
X0014932Y0202331D01*
X0014793Y0202381D01*
X0014656Y0202436D01*
X0014520Y0202494D01*
X0014385Y0202555D01*
X0014252Y0202620D01*
X0014121Y0202689D01*
X0013992Y0202761D01*
X0013865Y0202837D01*
X0013740Y0202916D01*
X0013617Y0202999D01*
X0013496Y0203084D01*
X0013378Y0203173D01*
X0013262Y0203265D01*
X0013149Y0203361D01*
X0013038Y0203459D01*
X0012930Y0203560D01*
X0012824Y0203664D01*
X0012722Y0203770D01*
X0012622Y0203880D01*
X0012526Y0203992D01*
X0012432Y0204107D01*
X0012341Y0204224D01*
X0012254Y0204343D01*
X0012170Y0204465D01*
X0012089Y0204589D01*
X0012012Y0204715D01*
X0011938Y0204843D01*
X0011867Y0204973D01*
X0011800Y0205105D01*
X0011737Y0205239D01*
X0011677Y0205374D01*
X0011621Y0205511D01*
X0011568Y0205650D01*
X0011520Y0205790D01*
X0011475Y0205931D01*
X0011434Y0206073D01*
X0011396Y0206216D01*
X0011363Y0206360D01*
X0011333Y0206505D01*
X0011307Y0206651D01*
X0011286Y0206797D01*
X0011268Y0206944D01*
X0011254Y0207091D01*
X0011244Y0207239D01*
X0011238Y0207387D01*
X0011236Y0207535D01*
X0029347Y0243283D02*
X0029349Y0243380D01*
X0029355Y0243477D01*
X0029365Y0243573D01*
X0029379Y0243669D01*
X0029397Y0243765D01*
X0029418Y0243859D01*
X0029444Y0243953D01*
X0029473Y0244045D01*
X0029507Y0244136D01*
X0029543Y0244226D01*
X0029584Y0244314D01*
X0029628Y0244400D01*
X0029676Y0244485D01*
X0029727Y0244567D01*
X0029781Y0244648D01*
X0029839Y0244726D01*
X0029900Y0244801D01*
X0029963Y0244874D01*
X0030030Y0244945D01*
X0030100Y0245012D01*
X0030172Y0245077D01*
X0030247Y0245138D01*
X0030325Y0245197D01*
X0030404Y0245252D01*
X0030486Y0245304D01*
X0030570Y0245352D01*
X0030656Y0245397D01*
X0030744Y0245439D01*
X0030833Y0245477D01*
X0030924Y0245511D01*
X0031016Y0245541D01*
X0031109Y0245568D01*
X0031204Y0245590D01*
X0031299Y0245609D01*
X0031395Y0245624D01*
X0031491Y0245635D01*
X0031588Y0245642D01*
X0031685Y0245645D01*
X0031782Y0245644D01*
X0031879Y0245639D01*
X0031975Y0245630D01*
X0032071Y0245617D01*
X0032167Y0245600D01*
X0032262Y0245579D01*
X0032355Y0245555D01*
X0032448Y0245526D01*
X0032540Y0245494D01*
X0032630Y0245458D01*
X0032718Y0245419D01*
X0032805Y0245375D01*
X0032890Y0245329D01*
X0032973Y0245278D01*
X0033054Y0245225D01*
X0033132Y0245168D01*
X0033209Y0245108D01*
X0033282Y0245045D01*
X0033353Y0244979D01*
X0033421Y0244910D01*
X0033487Y0244838D01*
X0033549Y0244764D01*
X0033608Y0244687D01*
X0033664Y0244608D01*
X0033717Y0244526D01*
X0033767Y0244443D01*
X0033812Y0244357D01*
X0033855Y0244270D01*
X0033894Y0244181D01*
X0033929Y0244091D01*
X0033960Y0243999D01*
X0033987Y0243906D01*
X0034011Y0243812D01*
X0034031Y0243717D01*
X0034047Y0243621D01*
X0034059Y0243525D01*
X0034067Y0243428D01*
X0034071Y0243331D01*
X0034071Y0243235D01*
X0034067Y0243138D01*
X0034059Y0243041D01*
X0034047Y0242945D01*
X0034031Y0242849D01*
X0034011Y0242754D01*
X0033987Y0242660D01*
X0033960Y0242567D01*
X0033929Y0242475D01*
X0033894Y0242385D01*
X0033855Y0242296D01*
X0033812Y0242209D01*
X0033767Y0242123D01*
X0033717Y0242040D01*
X0033664Y0241958D01*
X0033608Y0241879D01*
X0033549Y0241802D01*
X0033487Y0241728D01*
X0033421Y0241656D01*
X0033353Y0241587D01*
X0033282Y0241521D01*
X0033209Y0241458D01*
X0033132Y0241398D01*
X0033054Y0241341D01*
X0032973Y0241288D01*
X0032890Y0241237D01*
X0032805Y0241191D01*
X0032718Y0241147D01*
X0032630Y0241108D01*
X0032540Y0241072D01*
X0032448Y0241040D01*
X0032355Y0241011D01*
X0032262Y0240987D01*
X0032167Y0240966D01*
X0032071Y0240949D01*
X0031975Y0240936D01*
X0031879Y0240927D01*
X0031782Y0240922D01*
X0031685Y0240921D01*
X0031588Y0240924D01*
X0031491Y0240931D01*
X0031395Y0240942D01*
X0031299Y0240957D01*
X0031204Y0240976D01*
X0031109Y0240998D01*
X0031016Y0241025D01*
X0030924Y0241055D01*
X0030833Y0241089D01*
X0030744Y0241127D01*
X0030656Y0241169D01*
X0030570Y0241214D01*
X0030486Y0241262D01*
X0030404Y0241314D01*
X0030325Y0241369D01*
X0030247Y0241428D01*
X0030172Y0241489D01*
X0030100Y0241554D01*
X0030030Y0241621D01*
X0029963Y0241692D01*
X0029900Y0241765D01*
X0029839Y0241840D01*
X0029781Y0241918D01*
X0029727Y0241999D01*
X0029676Y0242081D01*
X0029628Y0242166D01*
X0029584Y0242252D01*
X0029543Y0242340D01*
X0029507Y0242430D01*
X0029473Y0242521D01*
X0029444Y0242613D01*
X0029418Y0242707D01*
X0029397Y0242801D01*
X0029379Y0242897D01*
X0029365Y0242993D01*
X0029355Y0243089D01*
X0029349Y0243186D01*
X0029347Y0243283D01*
X0029347Y0270685D02*
X0029349Y0270782D01*
X0029355Y0270879D01*
X0029365Y0270975D01*
X0029379Y0271071D01*
X0029397Y0271167D01*
X0029418Y0271261D01*
X0029444Y0271355D01*
X0029473Y0271447D01*
X0029507Y0271538D01*
X0029543Y0271628D01*
X0029584Y0271716D01*
X0029628Y0271802D01*
X0029676Y0271887D01*
X0029727Y0271969D01*
X0029781Y0272050D01*
X0029839Y0272128D01*
X0029900Y0272203D01*
X0029963Y0272276D01*
X0030030Y0272347D01*
X0030100Y0272414D01*
X0030172Y0272479D01*
X0030247Y0272540D01*
X0030325Y0272599D01*
X0030404Y0272654D01*
X0030486Y0272706D01*
X0030570Y0272754D01*
X0030656Y0272799D01*
X0030744Y0272841D01*
X0030833Y0272879D01*
X0030924Y0272913D01*
X0031016Y0272943D01*
X0031109Y0272970D01*
X0031204Y0272992D01*
X0031299Y0273011D01*
X0031395Y0273026D01*
X0031491Y0273037D01*
X0031588Y0273044D01*
X0031685Y0273047D01*
X0031782Y0273046D01*
X0031879Y0273041D01*
X0031975Y0273032D01*
X0032071Y0273019D01*
X0032167Y0273002D01*
X0032262Y0272981D01*
X0032355Y0272957D01*
X0032448Y0272928D01*
X0032540Y0272896D01*
X0032630Y0272860D01*
X0032718Y0272821D01*
X0032805Y0272777D01*
X0032890Y0272731D01*
X0032973Y0272680D01*
X0033054Y0272627D01*
X0033132Y0272570D01*
X0033209Y0272510D01*
X0033282Y0272447D01*
X0033353Y0272381D01*
X0033421Y0272312D01*
X0033487Y0272240D01*
X0033549Y0272166D01*
X0033608Y0272089D01*
X0033664Y0272010D01*
X0033717Y0271928D01*
X0033767Y0271845D01*
X0033812Y0271759D01*
X0033855Y0271672D01*
X0033894Y0271583D01*
X0033929Y0271493D01*
X0033960Y0271401D01*
X0033987Y0271308D01*
X0034011Y0271214D01*
X0034031Y0271119D01*
X0034047Y0271023D01*
X0034059Y0270927D01*
X0034067Y0270830D01*
X0034071Y0270733D01*
X0034071Y0270637D01*
X0034067Y0270540D01*
X0034059Y0270443D01*
X0034047Y0270347D01*
X0034031Y0270251D01*
X0034011Y0270156D01*
X0033987Y0270062D01*
X0033960Y0269969D01*
X0033929Y0269877D01*
X0033894Y0269787D01*
X0033855Y0269698D01*
X0033812Y0269611D01*
X0033767Y0269525D01*
X0033717Y0269442D01*
X0033664Y0269360D01*
X0033608Y0269281D01*
X0033549Y0269204D01*
X0033487Y0269130D01*
X0033421Y0269058D01*
X0033353Y0268989D01*
X0033282Y0268923D01*
X0033209Y0268860D01*
X0033132Y0268800D01*
X0033054Y0268743D01*
X0032973Y0268690D01*
X0032890Y0268639D01*
X0032805Y0268593D01*
X0032718Y0268549D01*
X0032630Y0268510D01*
X0032540Y0268474D01*
X0032448Y0268442D01*
X0032355Y0268413D01*
X0032262Y0268389D01*
X0032167Y0268368D01*
X0032071Y0268351D01*
X0031975Y0268338D01*
X0031879Y0268329D01*
X0031782Y0268324D01*
X0031685Y0268323D01*
X0031588Y0268326D01*
X0031491Y0268333D01*
X0031395Y0268344D01*
X0031299Y0268359D01*
X0031204Y0268378D01*
X0031109Y0268400D01*
X0031016Y0268427D01*
X0030924Y0268457D01*
X0030833Y0268491D01*
X0030744Y0268529D01*
X0030656Y0268571D01*
X0030570Y0268616D01*
X0030486Y0268664D01*
X0030404Y0268716D01*
X0030325Y0268771D01*
X0030247Y0268830D01*
X0030172Y0268891D01*
X0030100Y0268956D01*
X0030030Y0269023D01*
X0029963Y0269094D01*
X0029900Y0269167D01*
X0029839Y0269242D01*
X0029781Y0269320D01*
X0029727Y0269401D01*
X0029676Y0269483D01*
X0029628Y0269568D01*
X0029584Y0269654D01*
X0029543Y0269742D01*
X0029507Y0269832D01*
X0029473Y0269923D01*
X0029444Y0270015D01*
X0029418Y0270109D01*
X0029397Y0270203D01*
X0029379Y0270299D01*
X0029365Y0270395D01*
X0029355Y0270491D01*
X0029349Y0270588D01*
X0029347Y0270685D01*
X0226590Y0207535D02*
X0226592Y0207683D01*
X0226598Y0207831D01*
X0226608Y0207979D01*
X0226622Y0208126D01*
X0226640Y0208273D01*
X0226661Y0208419D01*
X0226687Y0208565D01*
X0226717Y0208710D01*
X0226750Y0208854D01*
X0226788Y0208997D01*
X0226829Y0209139D01*
X0226874Y0209280D01*
X0226922Y0209420D01*
X0226975Y0209559D01*
X0227031Y0209696D01*
X0227091Y0209831D01*
X0227154Y0209965D01*
X0227221Y0210097D01*
X0227292Y0210227D01*
X0227366Y0210355D01*
X0227443Y0210481D01*
X0227524Y0210605D01*
X0227608Y0210727D01*
X0227695Y0210846D01*
X0227786Y0210963D01*
X0227880Y0211078D01*
X0227976Y0211190D01*
X0228076Y0211300D01*
X0228178Y0211406D01*
X0228284Y0211510D01*
X0228392Y0211611D01*
X0228503Y0211709D01*
X0228616Y0211805D01*
X0228732Y0211897D01*
X0228850Y0211986D01*
X0228971Y0212071D01*
X0229094Y0212154D01*
X0229219Y0212233D01*
X0229346Y0212309D01*
X0229475Y0212381D01*
X0229606Y0212450D01*
X0229739Y0212515D01*
X0229874Y0212576D01*
X0230010Y0212634D01*
X0230147Y0212689D01*
X0230286Y0212739D01*
X0230427Y0212786D01*
X0230568Y0212829D01*
X0230711Y0212869D01*
X0230855Y0212904D01*
X0230999Y0212936D01*
X0231145Y0212963D01*
X0231291Y0212987D01*
X0231438Y0213007D01*
X0231585Y0213023D01*
X0231732Y0213035D01*
X0231880Y0213043D01*
X0232028Y0213047D01*
X0232176Y0213047D01*
X0232324Y0213043D01*
X0232472Y0213035D01*
X0232619Y0213023D01*
X0232766Y0213007D01*
X0232913Y0212987D01*
X0233059Y0212963D01*
X0233205Y0212936D01*
X0233349Y0212904D01*
X0233493Y0212869D01*
X0233636Y0212829D01*
X0233777Y0212786D01*
X0233918Y0212739D01*
X0234057Y0212689D01*
X0234194Y0212634D01*
X0234330Y0212576D01*
X0234465Y0212515D01*
X0234598Y0212450D01*
X0234729Y0212381D01*
X0234858Y0212309D01*
X0234985Y0212233D01*
X0235110Y0212154D01*
X0235233Y0212071D01*
X0235354Y0211986D01*
X0235472Y0211897D01*
X0235588Y0211805D01*
X0235701Y0211709D01*
X0235812Y0211611D01*
X0235920Y0211510D01*
X0236026Y0211406D01*
X0236128Y0211300D01*
X0236228Y0211190D01*
X0236324Y0211078D01*
X0236418Y0210963D01*
X0236509Y0210846D01*
X0236596Y0210727D01*
X0236680Y0210605D01*
X0236761Y0210481D01*
X0236838Y0210355D01*
X0236912Y0210227D01*
X0236983Y0210097D01*
X0237050Y0209965D01*
X0237113Y0209831D01*
X0237173Y0209696D01*
X0237229Y0209559D01*
X0237282Y0209420D01*
X0237330Y0209280D01*
X0237375Y0209139D01*
X0237416Y0208997D01*
X0237454Y0208854D01*
X0237487Y0208710D01*
X0237517Y0208565D01*
X0237543Y0208419D01*
X0237564Y0208273D01*
X0237582Y0208126D01*
X0237596Y0207979D01*
X0237606Y0207831D01*
X0237612Y0207683D01*
X0237614Y0207535D01*
X0237612Y0207387D01*
X0237606Y0207239D01*
X0237596Y0207091D01*
X0237582Y0206944D01*
X0237564Y0206797D01*
X0237543Y0206651D01*
X0237517Y0206505D01*
X0237487Y0206360D01*
X0237454Y0206216D01*
X0237416Y0206073D01*
X0237375Y0205931D01*
X0237330Y0205790D01*
X0237282Y0205650D01*
X0237229Y0205511D01*
X0237173Y0205374D01*
X0237113Y0205239D01*
X0237050Y0205105D01*
X0236983Y0204973D01*
X0236912Y0204843D01*
X0236838Y0204715D01*
X0236761Y0204589D01*
X0236680Y0204465D01*
X0236596Y0204343D01*
X0236509Y0204224D01*
X0236418Y0204107D01*
X0236324Y0203992D01*
X0236228Y0203880D01*
X0236128Y0203770D01*
X0236026Y0203664D01*
X0235920Y0203560D01*
X0235812Y0203459D01*
X0235701Y0203361D01*
X0235588Y0203265D01*
X0235472Y0203173D01*
X0235354Y0203084D01*
X0235233Y0202999D01*
X0235110Y0202916D01*
X0234985Y0202837D01*
X0234858Y0202761D01*
X0234729Y0202689D01*
X0234598Y0202620D01*
X0234465Y0202555D01*
X0234330Y0202494D01*
X0234194Y0202436D01*
X0234057Y0202381D01*
X0233918Y0202331D01*
X0233777Y0202284D01*
X0233636Y0202241D01*
X0233493Y0202201D01*
X0233349Y0202166D01*
X0233205Y0202134D01*
X0233059Y0202107D01*
X0232913Y0202083D01*
X0232766Y0202063D01*
X0232619Y0202047D01*
X0232472Y0202035D01*
X0232324Y0202027D01*
X0232176Y0202023D01*
X0232028Y0202023D01*
X0231880Y0202027D01*
X0231732Y0202035D01*
X0231585Y0202047D01*
X0231438Y0202063D01*
X0231291Y0202083D01*
X0231145Y0202107D01*
X0230999Y0202134D01*
X0230855Y0202166D01*
X0230711Y0202201D01*
X0230568Y0202241D01*
X0230427Y0202284D01*
X0230286Y0202331D01*
X0230147Y0202381D01*
X0230010Y0202436D01*
X0229874Y0202494D01*
X0229739Y0202555D01*
X0229606Y0202620D01*
X0229475Y0202689D01*
X0229346Y0202761D01*
X0229219Y0202837D01*
X0229094Y0202916D01*
X0228971Y0202999D01*
X0228850Y0203084D01*
X0228732Y0203173D01*
X0228616Y0203265D01*
X0228503Y0203361D01*
X0228392Y0203459D01*
X0228284Y0203560D01*
X0228178Y0203664D01*
X0228076Y0203770D01*
X0227976Y0203880D01*
X0227880Y0203992D01*
X0227786Y0204107D01*
X0227695Y0204224D01*
X0227608Y0204343D01*
X0227524Y0204465D01*
X0227443Y0204589D01*
X0227366Y0204715D01*
X0227292Y0204843D01*
X0227221Y0204973D01*
X0227154Y0205105D01*
X0227091Y0205239D01*
X0227031Y0205374D01*
X0226975Y0205511D01*
X0226922Y0205650D01*
X0226874Y0205790D01*
X0226829Y0205931D01*
X0226788Y0206073D01*
X0226750Y0206216D01*
X0226717Y0206360D01*
X0226687Y0206505D01*
X0226661Y0206651D01*
X0226640Y0206797D01*
X0226622Y0206944D01*
X0226608Y0207091D01*
X0226598Y0207239D01*
X0226592Y0207387D01*
X0226590Y0207535D01*
X0230133Y0021709D02*
X0230135Y0021821D01*
X0230141Y0021932D01*
X0230151Y0022044D01*
X0230165Y0022155D01*
X0230182Y0022265D01*
X0230204Y0022375D01*
X0230230Y0022484D01*
X0230259Y0022592D01*
X0230292Y0022698D01*
X0230329Y0022804D01*
X0230370Y0022908D01*
X0230415Y0023011D01*
X0230463Y0023112D01*
X0230514Y0023211D01*
X0230569Y0023308D01*
X0230628Y0023403D01*
X0230689Y0023497D01*
X0230754Y0023588D01*
X0230823Y0023676D01*
X0230894Y0023762D01*
X0230968Y0023846D01*
X0231046Y0023926D01*
X0231126Y0024004D01*
X0231209Y0024080D01*
X0231294Y0024152D01*
X0231382Y0024221D01*
X0231472Y0024287D01*
X0231565Y0024349D01*
X0231660Y0024409D01*
X0231757Y0024465D01*
X0231855Y0024517D01*
X0231956Y0024566D01*
X0232058Y0024611D01*
X0232162Y0024653D01*
X0232267Y0024691D01*
X0232374Y0024725D01*
X0232481Y0024755D01*
X0232590Y0024782D01*
X0232699Y0024804D01*
X0232810Y0024823D01*
X0232920Y0024838D01*
X0233032Y0024849D01*
X0233143Y0024856D01*
X0233255Y0024859D01*
X0233367Y0024858D01*
X0233479Y0024853D01*
X0233590Y0024844D01*
X0233701Y0024831D01*
X0233812Y0024814D01*
X0233922Y0024794D01*
X0234031Y0024769D01*
X0234139Y0024741D01*
X0234246Y0024708D01*
X0234352Y0024672D01*
X0234456Y0024632D01*
X0234559Y0024589D01*
X0234661Y0024542D01*
X0234760Y0024491D01*
X0234858Y0024437D01*
X0234954Y0024379D01*
X0235048Y0024318D01*
X0235139Y0024254D01*
X0235228Y0024187D01*
X0235315Y0024116D01*
X0235399Y0024042D01*
X0235481Y0023966D01*
X0235559Y0023886D01*
X0235635Y0023804D01*
X0235708Y0023719D01*
X0235778Y0023632D01*
X0235844Y0023542D01*
X0235908Y0023450D01*
X0235968Y0023356D01*
X0236025Y0023260D01*
X0236078Y0023161D01*
X0236128Y0023061D01*
X0236174Y0022960D01*
X0236217Y0022856D01*
X0236256Y0022751D01*
X0236291Y0022645D01*
X0236322Y0022538D01*
X0236350Y0022429D01*
X0236373Y0022320D01*
X0236393Y0022210D01*
X0236409Y0022099D01*
X0236421Y0021988D01*
X0236429Y0021877D01*
X0236433Y0021765D01*
X0236433Y0021653D01*
X0236429Y0021541D01*
X0236421Y0021430D01*
X0236409Y0021319D01*
X0236393Y0021208D01*
X0236373Y0021098D01*
X0236350Y0020989D01*
X0236322Y0020880D01*
X0236291Y0020773D01*
X0236256Y0020667D01*
X0236217Y0020562D01*
X0236174Y0020458D01*
X0236128Y0020357D01*
X0236078Y0020257D01*
X0236025Y0020158D01*
X0235968Y0020062D01*
X0235908Y0019968D01*
X0235844Y0019876D01*
X0235778Y0019786D01*
X0235708Y0019699D01*
X0235635Y0019614D01*
X0235559Y0019532D01*
X0235481Y0019452D01*
X0235399Y0019376D01*
X0235315Y0019302D01*
X0235228Y0019231D01*
X0235139Y0019164D01*
X0235048Y0019100D01*
X0234954Y0019039D01*
X0234858Y0018981D01*
X0234760Y0018927D01*
X0234661Y0018876D01*
X0234559Y0018829D01*
X0234456Y0018786D01*
X0234352Y0018746D01*
X0234246Y0018710D01*
X0234139Y0018677D01*
X0234031Y0018649D01*
X0233922Y0018624D01*
X0233812Y0018604D01*
X0233701Y0018587D01*
X0233590Y0018574D01*
X0233479Y0018565D01*
X0233367Y0018560D01*
X0233255Y0018559D01*
X0233143Y0018562D01*
X0233032Y0018569D01*
X0232920Y0018580D01*
X0232810Y0018595D01*
X0232699Y0018614D01*
X0232590Y0018636D01*
X0232481Y0018663D01*
X0232374Y0018693D01*
X0232267Y0018727D01*
X0232162Y0018765D01*
X0232058Y0018807D01*
X0231956Y0018852D01*
X0231855Y0018901D01*
X0231757Y0018953D01*
X0231660Y0019009D01*
X0231565Y0019069D01*
X0231472Y0019131D01*
X0231382Y0019197D01*
X0231294Y0019266D01*
X0231209Y0019338D01*
X0231126Y0019414D01*
X0231046Y0019492D01*
X0230968Y0019572D01*
X0230894Y0019656D01*
X0230823Y0019742D01*
X0230754Y0019830D01*
X0230689Y0019921D01*
X0230628Y0020015D01*
X0230569Y0020110D01*
X0230514Y0020207D01*
X0230463Y0020306D01*
X0230415Y0020407D01*
X0230370Y0020510D01*
X0230329Y0020614D01*
X0230292Y0020720D01*
X0230259Y0020826D01*
X0230230Y0020934D01*
X0230204Y0021043D01*
X0230182Y0021153D01*
X0230165Y0021263D01*
X0230151Y0021374D01*
X0230141Y0021486D01*
X0230135Y0021597D01*
X0230133Y0021709D01*
D11*
X0233283Y0021709D03*
X0016748Y0021709D03*
D12*
X0016748Y0207535D03*
X0232102Y0207535D03*
D13*
X0208500Y0174937D03*
X0208500Y0164937D03*
X0198500Y0164937D03*
X0188500Y0164937D03*
X0178500Y0164937D03*
X0178500Y0174937D03*
X0188500Y0174937D03*
X0198500Y0174937D03*
X0138500Y0238500D03*
X0138500Y0248500D03*
X0128500Y0248500D03*
X0128500Y0238500D03*
X0118500Y0238500D03*
X0118500Y0248500D03*
X0227535Y0059602D03*
X0082250Y0018500D03*
X0072250Y0018500D03*
X0072250Y0028500D03*
X0062250Y0028500D03*
X0062250Y0018500D03*
X0052250Y0018500D03*
X0052250Y0028500D03*
X0042250Y0028500D03*
X0042250Y0018500D03*
D14*
X0227535Y0074602D03*
D15*
X0082250Y0028500D03*
D16*
X0176000Y0060906D02*
X0176000Y0066843D01*
X0186000Y0066843D02*
X0186000Y0060906D01*
X0196000Y0060906D02*
X0196000Y0066843D01*
X0206000Y0066843D02*
X0206000Y0060906D01*
X0043126Y0230472D02*
X0043126Y0236409D01*
X0020291Y0236409D02*
X0020291Y0230472D01*
X0019110Y0263150D02*
X0019110Y0269087D01*
X0044307Y0269087D02*
X0044307Y0263150D01*
D17*
X0031709Y0270685D03*
X0031709Y0243283D03*
D18*
X0040370Y0156354D03*
D19*
X0040370Y0106354D03*
X0040370Y0206354D03*
D20*
X0040370Y0191787D02*
X0036403Y0191565D01*
X0032485Y0190899D01*
X0028667Y0189799D01*
X0024996Y0188278D01*
X0021519Y0186356D01*
X0018278Y0184057D01*
X0015315Y0181409D01*
X0012667Y0178446D01*
X0010368Y0175206D01*
X0008446Y0171728D01*
X0006925Y0168057D01*
X0005825Y0164239D01*
X0005160Y0160322D01*
X0004937Y0156354D01*
X0005160Y0152387D01*
X0005825Y0148470D01*
X0006925Y0144652D01*
X0008446Y0140980D01*
X0010368Y0137503D01*
X0012667Y0134262D01*
X0015315Y0131299D01*
X0018278Y0128652D01*
X0021519Y0126352D01*
X0024996Y0124430D01*
X0028667Y0122910D01*
X0032485Y0121810D01*
X0036403Y0121144D01*
X0040370Y0120921D01*
X0044337Y0121144D01*
X0048255Y0121810D01*
X0052073Y0122910D01*
X0055744Y0124430D01*
X0059222Y0126352D01*
X0062462Y0128652D01*
X0065425Y0131299D01*
X0068073Y0134262D01*
X0070372Y0137503D01*
X0072294Y0140980D01*
X0073815Y0144652D01*
X0074915Y0148470D01*
X0075580Y0152387D01*
X0075803Y0156354D01*
X0075580Y0160322D01*
X0074915Y0164239D01*
X0073815Y0168057D01*
X0072294Y0171728D01*
X0070372Y0175206D01*
X0068073Y0178446D01*
X0065425Y0181409D01*
X0062462Y0184057D01*
X0059222Y0186356D01*
X0055744Y0188278D01*
X0052073Y0189799D01*
X0048255Y0190899D01*
X0044337Y0191565D01*
X0040370Y0191787D01*
X0035443Y0191402D02*
X0045297Y0191402D01*
X0048231Y0190903D02*
X0032509Y0190903D01*
X0030769Y0190405D02*
X0049971Y0190405D01*
X0051701Y0189906D02*
X0029039Y0189906D01*
X0027722Y0189408D02*
X0053018Y0189408D01*
X0054222Y0188909D02*
X0026519Y0188909D01*
X0025315Y0188410D02*
X0055425Y0188410D01*
X0056407Y0187912D02*
X0024333Y0187912D01*
X0023431Y0187413D02*
X0057309Y0187413D01*
X0058211Y0186915D02*
X0022529Y0186915D01*
X0021627Y0186416D02*
X0059113Y0186416D01*
X0059840Y0185918D02*
X0020901Y0185918D01*
X0020198Y0185419D02*
X0060542Y0185419D01*
X0061245Y0184921D02*
X0019495Y0184921D01*
X0018793Y0184422D02*
X0061947Y0184422D01*
X0062611Y0183924D02*
X0018129Y0183924D01*
X0017571Y0183425D02*
X0063169Y0183425D01*
X0063727Y0182927D02*
X0017013Y0182927D01*
X0016455Y0182428D02*
X0064285Y0182428D01*
X0064843Y0181930D02*
X0015898Y0181930D01*
X0015340Y0181431D02*
X0065400Y0181431D01*
X0065851Y0180933D02*
X0014889Y0180933D01*
X0014444Y0180434D02*
X0066296Y0180434D01*
X0066742Y0179936D02*
X0013998Y0179936D01*
X0013553Y0179437D02*
X0067187Y0179437D01*
X0067633Y0178939D02*
X0013107Y0178939D01*
X0012663Y0178440D02*
X0068077Y0178440D01*
X0068431Y0177942D02*
X0012309Y0177942D01*
X0011956Y0177443D02*
X0068785Y0177443D01*
X0069138Y0176945D02*
X0011602Y0176945D01*
X0011248Y0176446D02*
X0069492Y0176446D01*
X0069846Y0175948D02*
X0010894Y0175948D01*
X0010541Y0175449D02*
X0070199Y0175449D01*
X0070513Y0174951D02*
X0010227Y0174951D01*
X0009951Y0174452D02*
X0070789Y0174452D01*
X0071064Y0173954D02*
X0009676Y0173954D01*
X0009400Y0173455D02*
X0071340Y0173455D01*
X0071615Y0172957D02*
X0009125Y0172957D01*
X0008849Y0172458D02*
X0071891Y0172458D01*
X0072166Y0171960D02*
X0008574Y0171960D01*
X0008335Y0171461D02*
X0072405Y0171461D01*
X0072611Y0170963D02*
X0008129Y0170963D01*
X0007922Y0170464D02*
X0072818Y0170464D01*
X0073024Y0169966D02*
X0007716Y0169966D01*
X0007509Y0169467D02*
X0073231Y0169467D01*
X0073437Y0168969D02*
X0007303Y0168969D01*
X0007096Y0168470D02*
X0073644Y0168470D01*
X0073839Y0167972D02*
X0006901Y0167972D01*
X0006757Y0167473D02*
X0073983Y0167473D01*
X0074127Y0166974D02*
X0006613Y0166974D01*
X0006470Y0166476D02*
X0074270Y0166476D01*
X0074414Y0165977D02*
X0006326Y0165977D01*
X0006183Y0165479D02*
X0074558Y0165479D01*
X0074701Y0164980D02*
X0006039Y0164980D01*
X0005895Y0164482D02*
X0074845Y0164482D01*
X0074958Y0163983D02*
X0005782Y0163983D01*
X0005697Y0163485D02*
X0075043Y0163485D01*
X0075128Y0162986D02*
X0005613Y0162986D01*
X0005528Y0162488D02*
X0075212Y0162488D01*
X0075297Y0161989D02*
X0005443Y0161989D01*
X0005358Y0161491D02*
X0075382Y0161491D01*
X0075466Y0160992D02*
X0005274Y0160992D01*
X0005189Y0160494D02*
X0075551Y0160494D01*
X0075599Y0159995D02*
X0005141Y0159995D01*
X0005113Y0159497D02*
X0075627Y0159497D01*
X0075655Y0158998D02*
X0005085Y0158998D01*
X0005058Y0158500D02*
X0075683Y0158500D01*
X0075711Y0158001D02*
X0005030Y0158001D01*
X0005002Y0157503D02*
X0075739Y0157503D01*
X0075767Y0157004D02*
X0004974Y0157004D01*
X0004946Y0156506D02*
X0075795Y0156506D01*
X0075784Y0156007D02*
X0004956Y0156007D01*
X0004984Y0155509D02*
X0075756Y0155509D01*
X0075728Y0155010D02*
X0005012Y0155010D01*
X0005040Y0154512D02*
X0075700Y0154512D01*
X0075672Y0154013D02*
X0005068Y0154013D01*
X0005096Y0153515D02*
X0075644Y0153515D01*
X0075616Y0153016D02*
X0005124Y0153016D01*
X0005152Y0152518D02*
X0075588Y0152518D01*
X0075518Y0152019D02*
X0005222Y0152019D01*
X0005307Y0151521D02*
X0075433Y0151521D01*
X0075348Y0151022D02*
X0005392Y0151022D01*
X0005476Y0150524D02*
X0075264Y0150524D01*
X0075179Y0150025D02*
X0005561Y0150025D01*
X0005646Y0149527D02*
X0075094Y0149527D01*
X0075010Y0149028D02*
X0005731Y0149028D01*
X0005815Y0148530D02*
X0074925Y0148530D01*
X0074788Y0148031D02*
X0005952Y0148031D01*
X0006095Y0147533D02*
X0074645Y0147533D01*
X0074501Y0147034D02*
X0006239Y0147034D01*
X0006383Y0146536D02*
X0074358Y0146536D01*
X0074214Y0146037D02*
X0006526Y0146037D01*
X0006670Y0145539D02*
X0074070Y0145539D01*
X0073927Y0145040D02*
X0006813Y0145040D01*
X0006971Y0144541D02*
X0073769Y0144541D01*
X0073563Y0144043D02*
X0007177Y0144043D01*
X0007384Y0143544D02*
X0073356Y0143544D01*
X0073150Y0143046D02*
X0007590Y0143046D01*
X0007797Y0142547D02*
X0072943Y0142547D01*
X0072737Y0142049D02*
X0008003Y0142049D01*
X0008210Y0141550D02*
X0072530Y0141550D01*
X0072324Y0141052D02*
X0008416Y0141052D01*
X0008682Y0140553D02*
X0072058Y0140553D01*
X0071783Y0140055D02*
X0008958Y0140055D01*
X0009233Y0139556D02*
X0071507Y0139556D01*
X0071232Y0139058D02*
X0009509Y0139058D01*
X0009784Y0138559D02*
X0070956Y0138559D01*
X0070681Y0138061D02*
X0010060Y0138061D01*
X0010335Y0137562D02*
X0070405Y0137562D01*
X0070061Y0137064D02*
X0010680Y0137064D01*
X0011033Y0136565D02*
X0069707Y0136565D01*
X0069353Y0136067D02*
X0011387Y0136067D01*
X0011741Y0135568D02*
X0069000Y0135568D01*
X0068646Y0135070D02*
X0012094Y0135070D01*
X0012448Y0134571D02*
X0068292Y0134571D01*
X0067903Y0134073D02*
X0012837Y0134073D01*
X0013282Y0133574D02*
X0067458Y0133574D01*
X0067013Y0133076D02*
X0013728Y0133076D01*
X0014173Y0132577D02*
X0066567Y0132577D01*
X0066122Y0132079D02*
X0014619Y0132079D01*
X0015064Y0131580D02*
X0065676Y0131580D01*
X0065181Y0131082D02*
X0015559Y0131082D01*
X0016117Y0130583D02*
X0064624Y0130583D01*
X0064066Y0130085D02*
X0016674Y0130085D01*
X0017232Y0129586D02*
X0063508Y0129586D01*
X0062950Y0129088D02*
X0017790Y0129088D01*
X0018366Y0128589D02*
X0062374Y0128589D01*
X0061672Y0128091D02*
X0019069Y0128091D01*
X0019771Y0127592D02*
X0060969Y0127592D01*
X0060266Y0127094D02*
X0020474Y0127094D01*
X0021176Y0126595D02*
X0059564Y0126595D01*
X0058759Y0126097D02*
X0021981Y0126097D01*
X0022883Y0125598D02*
X0057857Y0125598D01*
X0056955Y0125100D02*
X0023785Y0125100D01*
X0024687Y0124601D02*
X0056053Y0124601D01*
X0054953Y0124103D02*
X0025787Y0124103D01*
X0026991Y0123604D02*
X0053749Y0123604D01*
X0052546Y0123105D02*
X0028194Y0123105D01*
X0029718Y0122607D02*
X0051022Y0122607D01*
X0049292Y0122108D02*
X0031448Y0122108D01*
X0033661Y0121610D02*
X0047079Y0121610D01*
X0043757Y0121111D02*
X0036983Y0121111D01*
M02*
